<?xml version="1.0" encoding="utf-8"?>
<!-- Generator: Adobe Illustrator 23.0.1, SVG Export Plug-In . SVG Version: 6.00 Build 0)  -->
<svg version="1.1" id="Layer_1" xmlns="http://www.w3.org/2000/svg" xmlns:xlink="http://www.w3.org/1999/xlink" x="0px" y="0px"
	 viewBox="0 0 579 742" style="enable-background:new 0 0 579 742;" xml:space="preserve">
<style type="text/css">
	.st0{fill:#FFFFFF;}
</style>
<title>app-icon-store</title>
<path class="st0" d="M536,561.8c-17.9,42.5-40.4,82.2-72.7,115.3c-10.7,11.2-23.1,20.5-38.9,24.2c-11.3,3-22.5,1.4-33.4-1.4
	c-20.8-5.7-40.6-14.4-61.7-19c-17.4-3.7-34.6-5.2-52.3-1.1c-19.3,4-37.5,10.7-55.6,17.8c-29.7,11.5-55,4.3-77.6-17
	c-19-17.9-33.8-39.2-47-61.7C81,592.5,68,564.6,57.9,535.5c-11.3-31.4-17.8-64.3-19.3-97.7c-0.9-21.7,0.8-43.4,4.9-64.7
	c4.3-23.1,12.1-44.6,24.8-64.6c9.8-15.5,21.1-30.3,35.8-41.5c4.4-2.1,8.5-4.8,12.1-8.1c14.1-8.4,29.7-12.7,45.8-14.1
	c22.2-1.7,43.6,1.7,65.2,7.1c18.5,5,36.6,10.1,55.4,13.5c12,2,23.4,1,35.1-1.4c19.9-4,39-11.5,58.9-16.7c24.8-6.6,49.9-9.2,75-2.6
	c24.8,6.6,45.9,19.8,63.2,38.9c2.3,2.6,1.7,4.3-0.6,6.3c-10.1,9.5-19.8,19.1-28.5,30.3c-12.4,16.1-20.5,34.6-25.7,54.5
	c-6.1,23.4-6.1,46.7-1.7,70.4c5.7,32,20.5,60,42.9,83.7c9.8,10.3,20.5,19.6,32.9,26.8C536,557.2,537.2,558.9,536,561.8 M562.9,534.4
	c-10.7-4.6-20.8-10.1-29.4-18.2c-24.5-22.8-41-50.2-45-83.9c-1.7-15.9-1.7-32.1,2-47.9c4.7-20.9,15.2-40,30.3-55.1
	c9.7-9.8,19.8-19.3,29.7-29.1c6.1-6.1,7.2-15,2-21.7c-11-13.8-23.1-26.8-37.5-37.5c-17.8-13.4-38.3-22.9-60-27.9
	c-15.5-3.5-31.1-5.5-47.3-4.1c-26.8,2.7-52.5,10.1-77.8,18.8c-20.2,6.6-39.8,8.6-60.6,2.6c-23.8-7.2-48.1-13.8-73.2-16.7
	c-25.8-2.9-50.5-1.1-74.8,8.1c-30.2,11.5-53.6,31.1-72.3,57.3c-13.8,19.2-24.3,40.5-31.2,63.1C9.7,368.5,6,395.6,6,410.4
	c-1.2,38.9,2.7,64.9,8.1,90.5c4.4,19.5,10.3,38.7,17.6,57.3c17.1,44.7,39.3,86.2,69.5,123.2c16.1,19.7,34.6,36.6,58,47
	c15,6.7,30.5,9.2,46.4,6.7c16.8-2.7,32.9-8.7,48.8-14.8c10.1-3.7,20.2-7.2,30.8-8.9c17.1-2.9,33.2,0.3,49.3,5.2
	c17.1,5.2,33.5,11.3,50.5,15.9c25.8,6.9,49.3,3.7,71.8-10.1c28-17.4,48.8-41.8,67-68.7c20.1-30.2,37.2-62.3,48.1-97.1
	C575.3,546.8,572.2,538.1,562.9,534.4"/>
<path class="st0" d="M302.4,158.4c3-22.6,10.8-44.2,23.1-63.4c14.7-23.4,36.3-37.2,61.7-46.2c5.4-2,5.8-1.7,5.4,5.8
	c-1.1,30.6-14.1,55.6-34.5,77.6c-10.4,11.3-21.4,21.7-36.1,26.8c-5,1.7-10.1,2.9-15.3,3.7C303,162.9,301.8,161.5,302.4,158.4
	 M288.3,197c2.9-0.3,6.1-0.6,9-0.9c20.4-1.7,39.8-6.1,57-18.2c12.8-9.1,24.4-19.8,34.4-31.9c12.4-15.1,22.8-31.5,29.1-49.9
	c4.7-13.3,6.1-27.5,7.5-41.3c0.9-8.3,0.9-16.4,1.4-24.8c0.9-13-8.1-23.4-22.5-19.9s-28.5,7.7-42.1,14.1
	c-20.5,9.5-39.3,21.5-53.7,39.5c-26,32-37.2,69.5-39.5,110.2v6.6C269,192.1,276.7,198.7,288.3,197"/>
</svg>
