<?xml version="1.0" encoding="utf-8"?>
<!-- Generator: Adobe Illustrator 23.0.1, SVG Export Plug-In . SVG Version: 6.00 Build 0)  -->
<svg version="1.1" id="Layer_1" xmlns="http://www.w3.org/2000/svg" xmlns:xlink="http://www.w3.org/1999/xlink" x="0px" y="0px"
	 viewBox="0 0 692 743" style="enable-background:new 0 0 692 743;" xml:space="preserve">
<style type="text/css">
	.st0{fill:#FFFFFF;}
</style>
<title>app-icon-store</title>
<path class="st0" d="M184.3,237.3c9-80.3,77.3-143.1,160-143.1s151.1,62.8,160,143.1H184.3z M480.8,113.7l57-79.6
	c6.1-7.8,4.8-19-2.9-25.2c-7.8-6.1-19-4.8-25.2,2.9c-0.3,0.4-0.7,0.9-1,1.4l-55.8,77.9C386.4,47,299.7,47.5,233.7,92.5l-53.4-78.9
	c-5.7-8.1-16.9-10-25-4.3c-7.9,5.6-10,16.4-4.7,24.5l55.3,81.7c-37.4,36.9-58.5,87.2-58.5,139.8c0,9.9,8.1,17.8,17.9,17.8h358.1
	c9.8,0,17.8-8,17.8-17.8c0,0,0,0,0,0c0-1.3-0.1-2.5-0.4-3.7C540,199.3,518.3,149.8,480.8,113.7"/>
<path class="st0" d="M394.9,149.7c-7,6.9-7,18.2-0.1,25.1c0,0,0,0,0.1,0.1c3.3,3.4,7.9,5.4,12.7,5.4c4.8,0,9.4-2,12.7-5.4
	c3.4-3.3,5.3-7.8,5.2-12.5c0-4.8-1.9-9.3-5.2-12.7C413.7,143.1,401.5,143.1,394.9,149.7"/>
<path class="st0" d="M266.8,149.7c-3.4,3.3-5.3,7.9-5.4,12.7c0.2,9.8,8.1,17.6,17.8,17.7c9.8-0.1,17.9-7.9,18.1-17.7
	c0-4.8-2-9.4-5.4-12.7C285.4,143,273.4,143.1,266.8,149.7"/>
<path class="st0" d="M93.8,582.7H67c-14.8-0.1-26.8-12.1-26.8-26.9V342.6c0-14.8,12-26.8,26.8-26.8h26.8L93.8,582.7z M111.7,280H67
	c-34.6,0-62.6,28-62.6,62.6v213.2c0,34.6,28,62.7,62.6,62.7h44.7c9.8,0,17.8-8,17.8-17.8c0,0,0-0.1,0-0.1V298
	c0.1-9.8-7.8-17.9-17.6-18C111.9,280,111.8,280,111.7,280"/>
<path class="st0" d="M648.3,555.8c0,14.8-12,26.8-26.8,26.9h-26.8V315.8h26.8c14.8,0,26.8,12,26.8,26.8V555.8z M621.5,280h-44.7
	c-9.8,0-17.8,7.9-17.8,17.8c0,0,0,0,0,0.1v302.7c0,9.8,7.9,17.8,17.8,17.8c0,0,0,0,0.1,0h44.7c34.5,0,62.5-28,62.6-62.6V342.6
	C684.1,308.1,656.1,280,621.5,280"/>
<path class="st0" d="M505.3,539.4c0,88.7-72.2,160.9-161,160.9s-161-72.2-161-160.9V324.8h322V539.4z M523.1,289H165.4
	c-9.8,0-17.8,7.9-17.8,17.8c0,0,0,0,0,0.1v232.6c0,108.5,88.2,196.8,196.7,196.8S541,647.9,541,539.4V306.8
	C541,297,533,289,523.1,289"/>
</svg>
