<?xml version="1.0" encoding="utf-8"?>
<!-- Generator: Adobe Illustrator 23.0.1, SVG Export Plug-In . SVG Version: 6.00 Build 0)  -->
<svg version="1.1" id="Layer_1" xmlns="http://www.w3.org/2000/svg" xmlns:xlink="http://www.w3.org/1999/xlink" x="0px" y="0px"
	 viewBox="0 0 50 50" style="enable-background:new 0 0 50 50;" xml:space="preserve">
<style type="text/css">
	.st0{fill:#FC0000;}
</style>
<g>
	<g>
		<g>
			<path class="st0" d="M37.2,19.5h-6.6v-6.6c0-0.5-0.4-0.9-0.9-0.9h-9c-0.5,0-0.9,0.4-0.9,0.9l0,6.6h-6.6c-0.5,0-0.9,0.4-0.9,0.9v9
				c0,0.5,0.4,0.9,0.9,0.9l6.6,0v6.6c0,0.2,0.1,0.4,0.2,0.6c0.1,0.2,0.4,0.2,0.6,0.2h9c0.5,0,0.9-0.4,0.9-0.9l0-6.6h6.6
				c0.5,0,0.9-0.4,0.9-0.9v-9C38.2,19.9,37.7,19.5,37.2,19.5L37.2,19.5z M36.3,28.4h-6.6c-0.5,0-0.9,0.4-0.9,0.9v6.6h-7.2v-6.6
				c0-0.5-0.4-0.9-0.9-0.9h-6.6v-7.2h6.6c0.5,0,0.9-0.4,0.9-0.9v-6.6h7.2v6.6c0,0.5,0.4,0.9,0.9,0.9h6.6V28.4z"/>
			<path class="st0" d="M29.7,38.4h-9c-0.4,0-0.9-0.2-1.1-0.5c-0.2-0.3-0.5-0.7-0.5-1.1v-5.9l-5.9,0c-0.9,0-1.6-0.7-1.6-1.6v-9
				c0-0.9,0.7-1.6,1.6-1.6h5.9l0-5.9c0-0.9,0.7-1.6,1.6-1.6h9c0.9,0,1.6,0.7,1.6,1.6v5.9h5.9c0.9,0,1.6,0.8,1.6,1.6v9
				c0,0.9-0.7,1.6-1.6,1.6h-5.9l0,5.9C31.3,37.7,30.6,38.4,29.7,38.4z M13.3,20.2c-0.1,0-0.2,0.1-0.2,0.2v9c0,0.1,0.1,0.2,0.2,0.2
				l7.3,0v7.3c0,0,0,0.1,0.1,0.2l9,0c0.1,0,0.2-0.1,0.2-0.2l0-7.3h7.3c0.1,0,0.2-0.1,0.2-0.2v-9c0-0.1-0.1-0.2-0.2-0.2H30v-7.3
				c0-0.1-0.1-0.2-0.2-0.2h-9c-0.1,0-0.2,0.1-0.2,0.2l0,7.3H13.3z M29.5,36.6H21v-7.3c0-0.1-0.1-0.2-0.2-0.2h-7.3v-8.6h7.3
				c0.1,0,0.2-0.1,0.2-0.2v-7.3h8.6v7.3c0,0.1,0.1,0.2,0.2,0.2H37v8.6h-7.3c-0.1,0-0.2,0.1-0.2,0.2V36.6z M22.4,35.2h5.7v-5.9
				c0-0.9,0.7-1.6,1.6-1.6h5.9V22h-5.9c-0.9,0-1.6-0.7-1.6-1.6v-5.9h-5.7v5.9c0,0.9-0.7,1.6-1.6,1.6h-5.9v5.7h5.9
				c0.9,0,1.6,0.7,1.6,1.6C22.4,29.3,22.4,35.2,22.4,35.2z"/>
		</g>
		<g>
			<path class="st0" d="M25.3,1.6C12.4,1.6,2,12,2,24.9s10.4,23.3,23.3,23.3s23.3-10.4,23.3-23.3S38.1,1.6,25.3,1.6z M25.3,46.3
				c-11.9,0-21.5-9.6-21.5-21.5S13.4,3.4,25.3,3.4S46.7,13,46.7,24.8S37.1,46.3,25.3,46.3L25.3,46.3z"/>
			<path class="st0" d="M25.3,48.8c-13.2,0-24-10.8-24-24s10.8-24,24-24s24,10.8,24,24S38.5,48.8,25.3,48.8z M25.3,2.3
				C12.8,2.3,2.7,12.4,2.7,24.9s10.1,22.6,22.6,22.6c12.4,0,22.6-10.1,22.6-22.6C47.8,12.4,37.7,2.3,25.3,2.3z M25.3,47
				C13,47,3.1,37.1,3.1,24.9S13,2.7,25.3,2.7c12.2,0,22.2,9.9,22.2,22.2S37.5,47,25.3,47z M25.3,4.1c-11.4,0-20.8,9.3-20.8,20.8
				s9.3,20.8,20.8,20.8S46,36.3,46,24.9S36.7,4.1,25.3,4.1z"/>
		</g>
	</g>
</g>
</svg>
