<?xml version="1.0" encoding="utf-8"?>
<!-- Generator: Adobe Illustrator 24.1.3, SVG Export Plug-In . SVG Version: 6.00 Build 0)  -->
<svg version="1.1" id="Layer_1" xmlns="http://www.w3.org/2000/svg" xmlns:xlink="http://www.w3.org/1999/xlink" x="0px" y="0px"
	 viewBox="0 0 91.4 73.6" style="enable-background:new 0 0 91.4 73.6;" xml:space="preserve">
<style type="text/css">
	.st0{fill:#FFFFFF;}
</style>
<path class="st0" d="M83.1,12.2H61.4v-4c0-4.5-3.7-8.2-8.2-8.2H36c-4.5,0-8.2,3.7-8.2,8.2v4H8.1c-4.5,0-8.1,3.6-8.1,8.1v48.3
	c0,2.8,2.7,5,6,5h79.4c3.3,0,6-2.3,6-5V20.4l0,0C91.2,15.9,87.6,12.2,83.1,12.2L83.1,12.2z M30.9,8.3c0-2.8,2.3-5.1,5.1-5.1h17.2
	c2.8,0,5.1,2.3,5.1,5.1v4h-3.7V9.4c0-1.8-1.5-3.3-3.3-3.3H37.9c-1.7,0-3.1,1.4-3.1,3.1v3h-3.9V8.3z M51.5,9.3v2.9H38v-3h13.3
	C51.4,9.2,51.5,9.2,51.5,9.3L51.5,9.3z M88.1,36.4c-9.9,2.9-20.1,4.7-30.4,5.5c-0.8,0.1-1.5,0.8-1.4,1.6c0,0.8,0.7,1.5,1.6,1.5
	c10.2-0.8,20.4-2.6,30.2-5.4v29c0,1-1.3,1.9-2.8,1.9H5.9c-1.5,0-2.8-0.9-2.8-1.9v-29c10.5,3,21.4,4.8,32.3,5.6v1.7
	c0,2.3,1.8,4.1,4.1,4.1H50c2.3,0,4.1-1.8,4.1-4.1V42c0-2.3-1.8-4.1-4.1-4.1H39.4c-1.1,0-2.1,0.4-2.9,1.2s-1.2,1.8-1.2,2.9
	c-10.9-0.7-21.7-2.6-32.2-5.6v-16c0-2.8,2.2-5,5-5h75.1c2.8,0,5,2.2,5,5L88.1,36.4z M38.5,46.9V42c0-0.5,0.4-1,1-1H50
	c0.5,0,1,0.4,1,1v4.9c0,0.5-0.4,1-1,1H39.4C38.9,47.8,38.5,47.4,38.5,46.9z"/>
</svg>
