<?xml version="1.0" encoding="utf-8"?>
<!-- Generator: Adobe Illustrator 24.1.3, SVG Export Plug-In . SVG Version: 6.00 Build 0)  -->
<svg version="1.1" id="Layer_1" xmlns="http://www.w3.org/2000/svg" xmlns:xlink="http://www.w3.org/1999/xlink" x="0px" y="0px"
	 viewBox="0 0 99.5 95.6" style="enable-background:new 0 0 99.5 95.6;" xml:space="preserve">
<style type="text/css">
	.st0{fill:#FFFFFF;}
	.st1{fill-rule:evenodd;clip-rule:evenodd;fill:#FFFFFF;}
</style>
<g>
	<path class="st0" d="M19.9,65.5c-5.9,0-10.6-5.6-10.6-12.4c0-7.8,3.1-12.4,10.6-12.4s10.6,4.6,10.6,12.4
		C30.5,59.9,25.8,65.5,19.9,65.5z M19.9,62c3.8,0,7.1-3.9,7.1-8.9c0-6.1-1.9-8.8-7.1-8.8s-7.1,2.8-7.1,8.8C12.8,58.1,16,62,19.9,62z
		"/>
	<path class="st0" d="M49.9,58.4C41,58.4,34,49.6,34,38.9c0-12.5,4.6-19.5,15.9-19.5s15.9,7,15.9,19.5
		C65.9,49.6,58.8,58.4,49.9,58.4z M49.9,54.9c6.7,0,12.4-7.1,12.4-15.9c0-10.7-3.4-15.9-12.4-15.9c-8.9,0-12.4,5.2-12.4,15.9
		C37.6,47.8,43.2,54.9,49.9,54.9z"/>
	<path class="st0" d="M49.9,58.4c-1.8,0-3.6-0.4-5.3-1.1v6.4c0,2.9,2.4,5.3,5.3,5.3c2.9,0,5.3-2.4,5.3-5.3v-6.4
		C53.6,58,51.8,58.4,49.9,58.4z M58.8,63.7c0,4.9-4,8.8-8.9,8.8s-8.8-4-8.8-8.8V50.8l2.8,2c1.8,1.3,3.9,2,6,2s4.2-0.7,6-2l2.8-2
		L58.8,63.7z"/>
	<path class="st0" d="M42.4,37.4c-1.8,0.4-3.4,0.6-4.6,0.7c-0.7,0.1-1.2,0.1-1.6,0c-0.3,0-0.6-0.1-0.9-0.2c-0.7-0.3-1.2-0.9-1.1-1.9
		c0.7-10.6,5.5-16.6,15.8-16.6c10.9,0,15.6,6.6,15.9,18.3c-0.2,1.2-0.2,1.2-1.9,1.8c-0.7-0.2-0.7-0.2-0.9-0.3
		c-0.1-0.1-0.2-0.2-0.4-0.3c0,0-0.6-0.5-0.8-0.7c-0.9-0.8-1.9-1.5-3-2.2c-1.6-1-3.3-1.8-5.2-2.3C50.4,35.3,46.3,36.6,42.4,37.4
		L42.4,37.4z M41.6,34c3.9-0.8,8-2.2,11.1-3.7c0.4-0.2,0.8-0.2,1.2-0.1c2.5,0.6,4.8,1.6,6.8,2.9c0.5,0.3,0.9,0.6,1.3,0.9
		c-1-7.3-4.7-10.9-12.1-10.9c-7.7,0-11.3,3.8-12.2,11.6C38.8,34.5,40.2,34.3,41.6,34L41.6,34z"/>
	<path class="st0" d="M80,65.5c-5.9,0-10.6-5.6-10.6-12.4c0-7.8,3.2-12.4,10.6-12.4s10.6,4.6,10.6,12.4C90.7,59.9,86,65.5,80,65.5z
		 M80,62c3.8,0,7.1-3.9,7.1-8.9c0-6.1-1.9-8.8-7.1-8.8s-7.1,2.8-7.1,8.8C73,58.1,76.2,62,80,62z"/>
	<path class="st1" d="M68.4,68.9l-1.6-3.2c2.4-1.2,5.9-2.4,10.5-3.6c0.4-0.1,0.9-0.2,1.3-0.2h2.7c0.4,0,0.9,0.1,1.3,0.2
		c4.6,1.2,8.1,2.4,10.5,3.6c2.3,1.2,4.2,2.9,5.5,5c0.5,0.8,0.8,1.8,0.8,2.8v2.3c0,2-1.1,3.8-2.8,4.7c-5.6,3-11.8,4.4-18.4,4.4v-3.5
		c6,0,11.6-1.3,16.8-4c0.6-0.3,0.9-0.9,0.9-1.6v-2.3c0-0.3-0.1-0.6-0.3-0.9c-1-1.6-2.3-2.8-4.1-3.7c-2.2-1.1-5.4-2.2-9.8-3.3
		c-0.1,0-0.3-0.1-0.4-0.1h-2.7c-0.1,0-0.3,0-0.4,0.1C73.9,66.7,70.6,67.8,68.4,68.9L68.4,68.9z"/>
	<path class="st1" d="M28.7,86.7c0-1,0.8-1.8,1.8-1.8s1.8,0.8,1.8,1.8v7.1c0,1-0.8,1.8-1.8,1.8s-1.8-0.8-1.8-1.8V86.7z"/>
	<path class="st1" d="M67.6,86.7c0-1,0.8-1.8,1.8-1.8s1.8,0.8,1.8,1.8v7.1c0,1-0.8,1.8-1.8,1.8s-1.8-0.8-1.8-1.8V86.7z"/>
	<path class="st1" d="M56.2,63.5c-0.9-0.4-1.2-1.5-0.8-2.4s1.5-1.2,2.4-0.8C67.2,65,67.2,65,72,67.4c5.9,2.9,9.8,6.9,9.8,12.2v14.2
		c0,1-0.8,1.8-1.8,1.8s-1.7-0.8-1.7-1.8V79.7c0-3.6-3.1-6.7-7.9-9L56.2,63.5z"/>
	<path class="st1" d="M21.6,93.8c0,1-0.8,1.8-1.8,1.8S18,94.8,18,93.8V79.7c0-5.3,4-9.3,9.8-12.2L42,60.4c0.9-0.4,1.9-0.1,2.4,0.8
		s0.1,1.9-0.8,2.4l-14.1,7c-4.8,2.4-7.9,5.5-7.9,9V93.8z"/>
	<path class="st1" d="M62.3,14.2v3.5c0,1-0.8,1.8-1.8,1.8s-1.8-0.8-1.8-1.8v-5.3c0-1,0.8-1.8,1.8-1.8h37.2c1,0,1.8,0.8,1.8,1.8v21.2
		c0,1-0.8,1.8-1.8,1.8h-3.5v5.3c0,1.7-2.2,2.4-3.2,1.1l-4.8-6.4H69.4c-1,0-1.8-0.8-1.8-1.8s0.8-1.8,1.8-1.8h17.7
		c0.6,0,1.1,0.3,1.4,0.7l2.1,2.8v-1.8c0-1,0.8-1.8,1.8-1.8h3.5V14.2H62.3z"/>
	<path class="st1" d="M9.2,31.1l2.3-2.3c0.3-0.3,0.8-0.5,1.2-0.5h17.8c1,0,1.8,0.8,1.8,1.8s-0.8,1.8-1.8,1.8h-17l-4.8,4.8
		c-1.1,1.1-3,0.3-3-1.3v-3.5H2.2c-1,0-1.8-0.8-1.8-1.8V1.8c0-1,0.8-1.8,1.8-1.8h46c1,0,1.8,0.8,1.8,1.8v12.4c0,1-0.8,1.8-1.8,1.8
		s-1.8-0.8-1.8-1.8V3.6H3.9v24.8h3.6c1,0,1.8,0.8,1.8,1.8L9.2,31.1z"/>
	<path class="st1" d="M12.8,7.1h24.7c1,0,1.8,1,1.8,1.8c0,1-0.8,1.8-1.8,1.8H12.8c-1,0-1.8-1-1.8-1.8C11,7.9,11.8,7.1,12.8,7.1z"/>
	<path class="st1" d="M12.8,14.2h24.7c1,0,1.8,1,1.8,1.8c0,1-0.8,1.8-1.8,1.8H12.8c-1,0-1.8-1-1.8-1.8C11,15,11.8,14.2,12.8,14.2z"
		/>
	<path class="st1" d="M12.8,21.3h10.6c1,0,1.8,1,1.8,1.8c0,1-0.8,1.8-1.8,1.8H12.8c-1,0-1.8-1-1.8-1.8C11,22,11.8,21.3,12.8,21.3z"
		/>
	<path class="st1" d="M88.9,22.8c0,2.9-4.4,2.9-4.4,0S88.9,19.8,88.9,22.8"/>
	<path class="st1" d="M81.8,22.8c0,2.9-4.4,2.9-4.4,0S81.8,19.8,81.8,22.8"/>
	<path class="st1" d="M74.7,22.8c0,2.9-4.4,2.9-4.4,0S74.7,19.8,74.7,22.8"/>
	<path class="st1" d="M31,68.9l1.6-3.2c-2.4-1.2-5.9-2.4-10.5-3.6c-0.4-0.1-0.9-0.2-1.3-0.2h-2.7c-0.4,0-0.9,0.1-1.3,0.2
		c-4.6,1.2-8.1,2.4-10.5,3.6c-2.3,1.2-4.2,2.9-5.5,5C0.3,71.5,0,72.5,0,73.5v2.3c0,2,1.1,3.8,2.8,4.7c5.6,3,11.8,4.4,18.4,4.4v-3.5
		c-6,0-11.6-1.3-16.8-4c-0.5-0.3-0.9-0.9-0.9-1.6v-2.3c0-0.3,0.1-0.6,0.3-0.9c1-1.6,2.3-2.8,4.1-3.7c2.2-1.1,5.4-2.2,9.8-3.3
		c0.1,0,0.3-0.1,0.4-0.1h2.7c0.1,0,0.3,0,0.4,0.1C25.6,66.7,28.9,67.8,31,68.9L31,68.9z"/>
</g>
</svg>
