<?xml version="1.0" encoding="utf-8"?>
<!-- Generator: Adobe Illustrator 24.1.3, SVG Export Plug-In . SVG Version: 6.00 Build 0)  -->
<svg version="1.1" id="Layer_1" xmlns="http://www.w3.org/2000/svg" xmlns:xlink="http://www.w3.org/1999/xlink" x="0px" y="0px"
	 viewBox="0 0 62.4 85" style="enable-background:new 0 0 62.4 85;" xml:space="preserve">
<style type="text/css">
	.st0{fill:#FFFFFF;}
</style>
<g>
	<path class="st0" d="M31.2,8.6h-0.3C18.3,8.6,8,18.9,8,31.5c0,3.9,1,7.7,2.9,11.1l3.7,5.7c1.5,2.3,2.6,4.8,3.2,7.5
		c0.2,0.9,0.4,1.7,0.4,2.4c0.1,1.3,0.1,2.4,0.1,4.1c0,1.5,0.5,2.8,1.6,3.9c0.4,0.4,0.8,0.6,1.2,0.9v3.7c-0.4,0.1-0.9,0.4-1,0.8
		c-0.1,0.6,0.2,1.2,0.8,1.4H21v4.1c-0.4,0.1-0.9,0.4-1,0.8c-0.1,0.6,0.2,1.2,0.8,1.4h0.1v1.1c0,1.9,1.5,3.4,3.4,3.4h1.6
		c0,0,0,0,0,0.1c0,0.6,0.5,1.1,1.1,1.1h7.4c0.6,0,1.1-0.5,1.1-1.1c0,0,0,0,0-0.1h1.6c1.9,0,3.4-1.5,3.4-3.4v-3.3
		c0.1,0,0.2-0.1,0.2-0.1c0.6-0.3,0.8-0.9,0.5-1.5c-0.1-0.3-0.4-0.5-0.7-0.6v-4.1c0.1,0,0.2-0.1,0.2-0.1c0.6-0.3,0.8-0.9,0.5-1.5
		c-0.1-0.3-0.4-0.5-0.7-0.6v-1.5c0.4-0.2,0.8-0.5,1.2-0.9c1-1,1.6-2.4,1.6-3.9c0-1.6,0-2.8,0.1-4.1c0.1-0.7,0.2-1.5,0.4-2.4
		c0.6-2.6,1.7-5.1,3.2-7.5l3.7-5.8c1.8-3.4,2.8-7.2,2.8-11C53.8,19.1,43.7,8.8,31.2,8.6L31.2,8.6z M38.5,80.4c0,0.7-0.5,1.2-1.2,1.2
		H24.5c-0.7,0-1.2-0.5-1.2-1.2v-0.8c1.3,0.2,2.5,0.3,3.8,0.3c4.8,0,8.9-1.1,11.5-2L38.5,80.4z M38.5,75.6c-2.7,1-8.8,2.8-15.2,1.9
		v-4.1c1.3,0.2,2.5,0.3,3.8,0.3c4.8,0,8.9-1.1,11.5-2L38.5,75.6z M38.5,69.3c-2.7,1-8.8,2.8-15.2,1.9v-3.4c0.2,0,0.3,0,0.5,0h14.3
		c0.2,0,0.3,0,0.5,0L38.5,69.3z M26.6,37.3h-0.9c-0.3,0-0.5,0-0.7-0.1c-0.8-0.2-1.2-0.7-1.3-1.3s0.1-1.2,0.5-1.6
		c0.1-0.1,0.4-0.2,0.7-0.2c0.1,0,0.3,0,0.4,0.1c0.7,0.2,1.2,0.8,1.2,1.6L26.6,37.3z M31,39.6h1.9v26h-4v-26H31z M49,41.4l-3.7,5.7
		c-1.6,2.6-2.8,5.3-3.5,8.2c-0.2,1-0.4,2-0.5,2.8c-0.1,1.3-0.1,2.6-0.1,4.3c0,0.9-0.3,1.7-0.9,2.3c-0.6,0.6-1.4,0.9-2.3,0.9h-3v-26
		h1c0.4,0,0.7-0.1,1.1-0.1c1.5-0.3,2.7-1.4,3-2.9c0.4-1.5-0.2-3-1.3-3.9c-0.9-0.7-1.9-0.9-3-0.6c-1.7,0.4-2.9,2-2.9,3.8v1.5h-4v-1.5
		c0-1.8-1.2-3.4-2.9-3.8c-1.1-0.3-2.2-0.1-3,0.6c-1.3,0.8-1.8,2.3-1.4,3.8s1.5,2.6,3,2.9c0.3,0.1,0.7,0.1,1.1,0.1h0.9v26h-2.8
		c-0.9,0-1.7-0.3-2.3-0.9s-0.9-1.4-0.9-2.3c0-1.7,0-2.9-0.1-4.3c-0.1-0.8-0.2-1.7-0.5-2.8c-0.7-2.9-1.9-5.6-3.5-8.2l-3.7-5.5
		c-1.7-3-2.6-6.5-2.6-10c0-11.4,9.3-20.6,20.6-20.7H31l0,0c11.2,0.1,20.4,9.4,20.4,20.7C51.5,35,50.7,38.5,49,41.4L49,41.4z
		 M35.1,37.3v-1.5c0-0.8,0.5-1.4,1.2-1.6c0.6-0.2,0.9,0,1.1,0.2c0.5,0.4,0.7,1,0.5,1.6c-0.1,0.5-0.5,1.1-1.3,1.3
		c-0.2,0-0.4,0.1-0.6,0.1L35.1,37.3z"/>
	<path class="st0" d="M15,30.1c-0.6,0-1.1,0.5-1.2,1.1v0.6c0,0.6,0.5,1.1,1.1,1.1s1.1-0.5,1.1-1.1v-0.6C16.1,30.7,15.6,30.1,15,30.1
		L15,30.1z"/>
	<path class="st0" d="M31.1,14.3c-7.9,0.4-14.8,6-16.7,13.7c-0.1,0.6,0.2,1.2,0.8,1.4c0.1,0,0.2,0,0.3,0c0.5,0,1-0.3,1.1-0.9
		c1.7-6.7,7.7-11.7,14.6-12c0.6,0,1.1-0.6,1.1-1.2C32.3,14.7,31.7,14.3,31.1,14.3L31.1,14.3z"/>
	<path class="st0" d="M31.2,6.8c0.6,0,1.1-0.5,1.1-1.1V1.1c0-0.6-0.5-1.1-1.1-1.1s-1.1,0.5-1.1,1.1v4.6C30.1,6.3,30.6,6.8,31.2,6.8z
		"/>
	<path class="st0" d="M21.3,7.6c0.2,0.5,0.6,0.7,1.1,0.7c0.1,0,0.3,0,0.4-0.1c0.6-0.2,0.9-0.9,0.7-1.4l-1.7-4.3
		c-0.2-0.6-0.9-0.9-1.4-0.7c-0.6,0.2-0.9,0.9-0.7,1.4L21.3,7.6z"/>
	<path class="st0" d="M13.6,12.5c0.2,0.3,0.5,0.4,0.9,0.4c0.3,0,0.5-0.1,0.7-0.3c0.5-0.4,0.5-1.1,0.1-1.6l-3-3.5
		C11.9,7,11.2,7,10.7,7.4S10.2,8.5,10.6,9L13.6,12.5z"/>
	<path class="st0" d="M4.2,17.3l4,2.3c0.2,0.1,0.4,0.2,0.6,0.2c0.4,0,0.8-0.2,1-0.6c0.3-0.5,0.1-1.2-0.4-1.5l-4-2.3
		c-0.5-0.3-1.2-0.1-1.5,0.4C3.4,16.3,3.6,17,4.2,17.3L4.2,17.3z"/>
	<path class="st0" d="M0.9,27.4l4.5,0.8c0.1,0,0.1,0,0.2,0c0.5,0,1-0.4,1.1-0.9c0.1-0.6-0.3-1.2-0.9-1.3l-4.5-0.8
		c-0.6-0.1-1.2,0.3-1.3,0.9S0.3,27.3,0.9,27.4z"/>
	<path class="st0" d="M6.7,36c-0.1-0.6-0.7-1-1.3-0.9l-4.5,0.8c-0.6,0.1-1,0.7-0.9,1.3c0.1,0.5,0.6,0.9,1.1,0.9c0.1,0,0.1,0,0.2,0
		l4.5-0.8C6.4,37.2,6.8,36.6,6.7,36z"/>
	<path class="st0" d="M8.1,43.7l-4,2.3c-0.5,0.3-0.7,1-0.4,1.5c0.2,0.4,0.6,0.6,1,0.6c0.2,0,0.4-0.1,0.6-0.2l4-2.3
		c0.5-0.3,0.7-1,0.4-1.5C9.4,43.5,8.7,43.4,8.1,43.7L8.1,43.7z"/>
	<path class="st0" d="M58.3,46l-4-2.3c-0.5-0.3-1.2-0.1-1.5,0.4s-0.1,1.2,0.4,1.5l4,2.3c0.2,0.1,0.4,0.2,0.6,0.2
		c0.4,0,0.8-0.2,1-0.6C59,47,58.8,46.3,58.3,46L58.3,46z"/>
	<path class="st0" d="M61.5,35.9L57,35.1c-0.6-0.1-1.2,0.3-1.3,0.9c-0.1,0.6,0.3,1.2,0.9,1.3l4.5,0.8c0.1,0,0.1,0,0.2,0
		c0.5,0,1-0.4,1.1-0.9C62.5,36.5,62.1,36,61.5,35.9z"/>
	<path class="st0" d="M55.7,27.3c0.1,0.5,0.6,0.9,1.1,0.9c0.1,0,0.1,0,0.2,0l4.5-0.8c0.6-0.1,1-0.7,0.9-1.3s-0.7-1-1.3-0.9L56.6,26
		C56,26.1,55.6,26.7,55.7,27.3z"/>
	<path class="st0" d="M53.7,19.8c0.2,0,0.4,0,0.6-0.2l4-2.3c0.5-0.3,0.7-1,0.4-1.5c-0.3-0.5-1-0.7-1.5-0.4l-4,2.3
		c-0.5,0.3-0.7,1-0.4,1.5C52.9,19.6,53.3,19.8,53.7,19.8L53.7,19.8z"/>
	<path class="st0" d="M47.9,12.9c0.3,0,0.6-0.1,0.9-0.4l3-3.5c0.4-0.5,0.3-1.2-0.1-1.6c-0.5-0.4-1.2-0.3-1.6,0.1l-3,3.5
		c-0.4,0.5-0.3,1.2,0.1,1.6C47.4,12.8,47.6,12.9,47.9,12.9L47.9,12.9z"/>
	<path class="st0" d="M39.7,8.3c0.1,0,0.3,0.1,0.4,0.1c0.5,0,0.9-0.3,1.1-0.7l1.6-4.3C43,2.8,42.7,2.2,42.1,2
		c-0.6-0.2-1.2,0.1-1.4,0.7L39.1,7C38.8,7.4,39.1,8.1,39.7,8.3z"/>
</g>
</svg>
