<svg id="Layer_1" data-name="Layer 1" xmlns="http://www.w3.org/2000/svg" viewBox="0 0 114.09 132.28"><defs><style>.cls-1{fill:#007853;}</style></defs><path class="cls-1" d="M107.13,6.89q0,8.91,0,17.83,0,11.43,0,22.87H68.43V6.89h38.7M114,0H61.54V54.48h52.51c0-17.38,0-34.77,0-52.15V0Z" transform="translate(0.04)"/><path class="cls-1" d="M45.59,6.89v40.7H6.85q0-11.43,0-22.86,0-8.91,0-17.84h38.7M52.48,0H0V2.33C0,19.71,0,37.1,0,54.48H52.48V0Z" transform="translate(0.04)"/><path class="cls-1" d="M107.12,70.42q0,4.53,0,9.06c-.08,12.26-5.17,21.28-15.55,27.57-7.58,4.59-15.41,9.07-23.1,13.42v-50h38.69M114,63.53H61.54v68.75c11.23-6.36,22.51-12.64,33.56-19.34,12.32-7.46,18.78-18.8,18.87-33.42q0-8,.06-16Z" transform="translate(0.04)"/><path class="cls-1" d="M45.59,70.42v50.05c-7.7-4.35-15.52-8.83-23.1-13.42C12.1,100.76,7,91.74,6.94,79.48q0-4.53-.05-9.06h38.7m6.89-6.89H0c0,5.33,0,10.66.07,16,.09,14.62,6.55,26,18.87,33.42,11,6.7,22.32,13,33.56,19.34V63.53Z" transform="translate(0.04)"/></svg>