<svg id="Layer_1" data-name="Layer 1" xmlns="http://www.w3.org/2000/svg" viewBox="0 0 70.12 70.12"><defs><style>.cls-1{fill:#90d5ac;}.cls-2{fill:#007853;}</style></defs><path class="cls-1" d="M35.06,0A35.06,35.06,0,1,0,70.12,35.06,35.1,35.1,0,0,0,35.06,0Zm0,68A32.93,32.93,0,1,1,68,35.06,33,33,0,0,1,35.06,68Z"/><path class="cls-1" d="M35.06,7.18A27.88,27.88,0,1,0,62.93,35.06,27.92,27.92,0,0,0,35.06,7.18Zm0,53.63A25.75,25.75,0,1,1,60.81,35.06,25.78,25.78,0,0,1,35.06,60.81Z"/><path class="cls-2" d="M50,30.68l-9.68-1.41L36,20.5a1.11,1.11,0,0,0-1.91,0l-4.32,8.77L20.1,30.68a1.06,1.06,0,0,0-.59,1.81l7,6.83L24.86,49a1.07,1.07,0,0,0,.42,1,1.06,1.06,0,0,0,1.12.08l8.66-4.55,8.65,4.55a1.11,1.11,0,0,0,.5.12,1.07,1.07,0,0,0,.62-.2,1.05,1.05,0,0,0,.42-1L43.6,39.32l7-6.83A1.06,1.06,0,0,0,50,30.68Zm-8.3,7.51a1,1,0,0,0-.3.94L42.8,47.2l-7.25-3.81a1,1,0,0,0-.49-.12,1.11,1.11,0,0,0-.5.12L27.32,47.2l1.38-8.07a1.05,1.05,0,0,0-.31-.94l-5.86-5.72,8.1-1.17a1,1,0,0,0,.8-.59l3.63-7.34,3.62,7.34a1,1,0,0,0,.8.59l8.1,1.17Z"/></svg>