<svg id="Layer_1" data-name="Layer 1" xmlns="http://www.w3.org/2000/svg" viewBox="0 0 72.56 67.75"><defs><style>.cls-1{fill:#90d5ac;}.cls-2{fill:#007853;}</style></defs><path class="cls-1" d="M5,56h41.4l-3.31,9.64a1.69,1.69,0,0,0,.45,1.65,1.38,1.38,0,0,0,1.66.3l9-3.61,9.18,3.61a1.63,1.63,0,0,0,1.65-.3,1.68,1.68,0,0,0,.46-1.65L62.18,56h5.41a5,5,0,0,0,5-5V5a5,5,0,0,0-5-5H5A5,5,0,0,0,0,5V51.18A4.88,4.88,0,0,0,5,56ZM47.12,36.73c.45-.3,2.41.15,3.91-.45a6,6,0,0,0,2-1.51,4.79,4.79,0,0,1,1.06-.9c.15,0,.75.6,1.05.9,1.35,1.51,2.11,1.81,4.21,1.81a6.8,6.8,0,0,1,1.66.15,3.36,3.36,0,0,1,.15,1.36c0,2.25.3,3,1.81,4.51.3.3.9.9.9,1a4.79,4.79,0,0,1-.9,1.06,6,6,0,0,0-1.51,2c-.6,1.5-.15,3.46-.45,3.91s-2.56-.15-3.92.45a10.51,10.51,0,0,0-2.4,2H53.44A9.88,9.88,0,0,0,51,51c-1.2-.45-3.46-.3-3.91-.45A3.36,3.36,0,0,1,47,49.22c0-2.25-.3-3-1.81-4.51a4.79,4.79,0,0,1-.9-1.06c0-.15.6-.75.9-1C46.67,41.1,47,40.49,47,38.09a5.23,5.23,0,0,0,.15-1.36ZM54.65,61a1.28,1.28,0,0,0-1,0L47,63.68l3.31-9.49c.9.61,2,2.26,3.92,2.26,1.8,0,2.86-1.65,3.91-2.41l3.31,9.49ZM3,5A2,2,0,0,1,5,3H67.44a2,2,0,0,1,2,2V51.18a2,2,0,0,1-2,2H62.93c.15-.15.3-.15.3-.3,1.5-1.5.75-3.91,1.05-4.81.45-1.21,5.12-3.16.9-7.53l-.9-.9c-.45-1.21,1.21-5.88-4.37-5.88-1.65,0-1.5.15-2.55-.9-2.41-2.41-4.07-2.56-6.48,0-1.05,1-.9.9-2.56.9-5.57,0-3.91,4.67-4.36,5.88s-5.12,3.31-.91,7.52c1.06.91.91.91.91,2.26,0,1.51.15,2.86,1.35,3.77H5a2,2,0,0,1-2-2Z"/><path class="cls-2" d="M12.8,11.29H57.66a1.43,1.43,0,0,0,1.51-1.5,1.43,1.43,0,0,0-1.51-1.51H12.8a1.42,1.42,0,0,0-1.51,1.51,1.61,1.61,0,0,0,1.51,1.5Z"/><path class="cls-2" d="M12.8,19.42H57.66a1.51,1.51,0,1,0,0-3H12.8a1.42,1.42,0,0,0-1.51,1.51,1.61,1.61,0,0,0,1.51,1.5Z"/><path class="cls-2" d="M12.8,27.4H57.66a1.51,1.51,0,1,0,0-3H12.8a1.42,1.42,0,0,0-1.51,1.5A1.51,1.51,0,0,0,12.8,27.4Z"/><path class="cls-2" d="M12.8,39.74H37.18a1.51,1.51,0,1,0,0-3H12.8a1.43,1.43,0,0,0-1.51,1.51A1.61,1.61,0,0,0,12.8,39.74Z"/><path class="cls-2" d="M12.8,47.87h16a1.51,1.51,0,1,0,0-3H12.8a1.43,1.43,0,0,0-1.51,1.51A1.61,1.61,0,0,0,12.8,47.87Z"/><path class="cls-1" d="M54.2,49.68a6,6,0,1,0-6-6A6,6,0,0,0,54.2,49.68Zm0-9a3,3,0,1,1-3,3A3,3,0,0,1,54.2,40.65Z"/></svg>