<svg id="Layer_1" data-name="Layer 1" xmlns="http://www.w3.org/2000/svg" viewBox="0 0 55.03 59.35"><defs><style>.cls-1{fill:#90d5ac;}.cls-2{fill:#007853;}</style></defs><path class="cls-1" d="M48.77,5.51H46.2V4.94a4.95,4.95,0,0,0-9.89,0v.57h-4V4.94a4.95,4.95,0,0,0-9.89,0v.57H18.53V4.94a4.95,4.95,0,0,0-9.89,0v.57H6.07A6.07,6.07,0,0,0,0,11.58v41.7a6.11,6.11,0,0,0,6.07,6.07H49A6.07,6.07,0,0,0,55,53.28V11.58a6.33,6.33,0,0,0-6.26-6.07Zm-9.33-.63a1.82,1.82,0,0,1,3.63,0V9.2a1.82,1.82,0,0,1-3.63,0Zm-13.9,0a1.82,1.82,0,0,1,3.63,0V9.2a1.82,1.82,0,0,1-3.63,0Zm-13.9,0a1.82,1.82,0,0,1,3.63,0V9.2a1.82,1.82,0,0,1-3.63,0ZM6,8.64H8.51V9.2a4.95,4.95,0,0,0,9.89,0V8.64h4V9.2a4.95,4.95,0,0,0,9.89,0V8.64h3.94V9.2a4.95,4.95,0,0,0,9.89,0V8.64h2.57a2.93,2.93,0,0,1,2.94,2.94v6.7H3v-6.7A2.94,2.94,0,0,1,6,8.64ZM48.77,56.28H6A2.94,2.94,0,0,1,3,53.34V21.47H51.77V53.34a3.07,3.07,0,0,1-3,2.94Z"/><path class="cls-2" d="M16.9,27.42H10.7A1.55,1.55,0,0,0,9.14,29v6.27a1.55,1.55,0,0,0,1.56,1.56h6.2a1.55,1.55,0,0,0,1.57-1.56V29A1.59,1.59,0,0,0,16.9,27.42Zm-1.63,6.26h-3V30.61h3Z"/><path class="cls-2" d="M30.42,27.42H24.23A1.55,1.55,0,0,0,22.66,29v6.27a1.55,1.55,0,0,0,1.57,1.56h6.19A1.55,1.55,0,0,0,32,35.25V29A1.52,1.52,0,0,0,30.42,27.42Zm-1.56,6.26h-3V30.61h3Z"/><path class="cls-2" d="M44,27.42h-6.2A1.55,1.55,0,0,0,36.25,29v6.27a1.55,1.55,0,0,0,1.56,1.56H44a1.55,1.55,0,0,0,1.57-1.56V29A1.52,1.52,0,0,0,44,27.42Zm-1.56,6.26h-3V30.61h3Z"/><path class="cls-2" d="M16.9,40.76H10.7a1.54,1.54,0,0,0-1.56,1.56v6.26a1.55,1.55,0,0,0,1.56,1.57h6.2a1.55,1.55,0,0,0,1.57-1.57V42.32A1.63,1.63,0,0,0,16.9,40.76ZM15.27,47h-3V44h3Z"/><path class="cls-2" d="M30.42,40.76H24.23a1.55,1.55,0,0,0-1.57,1.56v6.26a1.55,1.55,0,0,0,1.57,1.57h6.19A1.55,1.55,0,0,0,32,48.58V42.32A1.55,1.55,0,0,0,30.42,40.76ZM28.86,47h-3V44h3Z"/><path class="cls-2" d="M44,40.76h-6.2a1.54,1.54,0,0,0-1.56,1.56v6.26a1.55,1.55,0,0,0,1.56,1.57H44a1.55,1.55,0,0,0,1.57-1.57V42.32A1.55,1.55,0,0,0,44,40.76ZM42.45,47h-3V44h3Z"/></svg>