<?xml version="1.0" encoding="utf-8"?>
<!-- Generator: Adobe Illustrator 24.1.3, SVG Export Plug-In . SVG Version: 6.00 Build 0)  -->
<svg version="1.1" id="Layer_1" xmlns="http://www.w3.org/2000/svg" xmlns:xlink="http://www.w3.org/1999/xlink" x="0px" y="0px"
	 viewBox="0 0 75 74.3" style="enable-background:new 0 0 75 74.3;" xml:space="preserve">
<style type="text/css">
	.st0{fill:#FFFFFF;}
</style>
<path class="st0" d="M70.8,4.7l-4.1-4.1L0,65.1V66c0,5.3,3,8.3,8.3,8.3h0.9l26.2-26.2l4.2,4.2l1.5-1.5c22-22,29.8-38.1,29.8-45.2
	L70.8,4.7z M39.6,46.3l-4.2-4.2l-27.9,28c-2.1-0.2-3.1-1.2-3.3-3.3L66.6,6.4C66,11.8,59.8,25.8,39.6,46.3L39.6,46.3z M28.9,18.6
	L13.1,2.9L16,0l17.6,17.6l-0.4,1.2c-0.9,2.7-1.1,5.7-0.5,6.2l2.2,2.1l-2.9,3L29.8,28C27.5,25.7,28.2,21.1,28.9,18.6L28.9,18.6z
	 M75,65.1V66c0,5.3-3,8.3-8.3,8.3h-0.9L44.3,51.7l3-2.9l20.2,21.3c2.1-0.2,3.1-1.2,3.3-3.3L49.6,46.6l2.9-3L75,65.1z M18.2,32.9
	L0.6,15.4l2.9-2.9l15.8,15.8c2.5-0.7,6.9-1.4,9.2,0.9l2.1,2.1l-2.9,2.9l-2.1-2.1c-0.6-0.6-3.7-0.3-6.2,0.5L18.2,32.9z M19.4,25.8
	L4.8,11.2l2.9-2.9l14.6,14.5L19.4,25.8z M23.5,21.6L8.9,7l2.9-2.9l14.7,14.6L23.5,21.6z"/>
</svg>
