<?xml version="1.0" encoding="utf-8"?>
<!-- Generator: Adobe Illustrator 24.1.3, SVG Export Plug-In . SVG Version: 6.00 Build 0)  -->
<svg version="1.1" id="Layer_1" xmlns="http://www.w3.org/2000/svg" xmlns:xlink="http://www.w3.org/1999/xlink" x="0px" y="0px"
	 viewBox="0 0 74.8 92.1" style="enable-background:new 0 0 74.8 92.1;" xml:space="preserve">
<style type="text/css">
	.st0{fill:#FFFFFF;}
</style>
<g>
	<path class="st0" d="M51.1,0H19l-0.3,0.1h-0.1l0,0c-0.1,0.1-0.2,0.1-0.3,0.2l-18,18c-0.1,0.1-0.2,0.2-0.2,0.3v0.1l0,0
		c0,0.1,0,0.2-0.1,0.2V19v52.5c0,2.4,1.9,4.3,4.3,4.3h39.4V91c0,0.4,0.2,0.7,0.5,0.9c0.2,0.1,0.4,0.1,0.5,0.1c0.2,0,0.4,0,0.5-0.1
		l9.1-5.3l9.2,5.4l0,0c0.3,0.2,0.7,0.2,1,0s0.5-0.5,0.5-0.9V68.9h1.4c0.4,0,0.8-0.3,0.9-0.7l2-6l5.1-3.7l0,0
		c0.3-0.3,0.5-0.7,0.4-1.1l-2-6l2-6c0.1-0.4,0-0.9-0.4-1.1l-5.1-3.7l-2-6c-0.1-0.4-0.5-0.7-0.9-0.7h-6.3l-4.7-3.4V4.3
		C55.4,2,53.5,0,51.1,0L51.1,0z M18,3.4v12.7c0,1.1-0.9,1.9-1.9,1.9H3.4L18,3.4z M43.7,73.8H4.3c-1.3,0-2.3-1-2.3-2.3V20.1h14.1
		c2.2,0,3.9-1.8,3.9-3.9V2h31.1c1.3,0,2.3,1.1,2.3,2.3v26.1l-4.6,3.4h-6.4c-0.2,0-0.5,0.1-0.7,0.3H10c-0.6,0-1,0.4-1,1s0.4,1,1,1h31
		l-1.4,4.4l-3.2,2.3H10.1c-0.6,0-1,0.4-1,1s0.4,1,1,1h24.1c0,0.2,0,0.3,0,0.5l1.9,6L36,51.6H10c-0.6,0-1,0.4-1,1s0.4,1,1,1h25.3
		l-1.2,3.7l0,0c-0.1,0.4,0,0.8,0.3,1.1l2.6,1.9H10c-0.6,0-1,0.4-1,1s0.4,1,1,1h29.6l1.9,5.8l0,0c0.1,0.4,0.5,0.7,0.9,0.7h1.3V73.8z
		 M63.1,89.3l-8.2-4.8l0,0c-0.3-0.2-0.7-0.2-1,0l-8.2,4.8V68.9h3l4.5,3.3l0.6,0.4l0,0c0.1,0.1,0.2,0.1,0.3,0.1c0.1,0,0.2,0,0.3,0
		c0.2,0,0.4-0.1,0.6-0.2l0.3-0.2l3.5-2.5v11.1c0,0.6,0.4,1,1,1s1-0.4,1-1v-12h2.3L63.1,89.3z M59.2,35.7c0.2,0.1,0.4,0.2,0.6,0.2
		h5.9l1.8,5.6l0,0c0.1,0.2,0.2,0.4,0.4,0.5l4.8,3.5l-1.8,5.6c-0.1,0.2-0.1,0.4,0,0.6l1.8,5.6l-4.8,3.5c-0.2,0.1-0.3,0.3-0.4,0.5
		l-1.8,5.6h-5.9c-0.1,0-0.2,0-0.4,0.1h-0.1l-0.1,0.1l-3.8,2.8l-1,0.7l-1-0.7l-3.8-2.7l0,0C49.4,67.1,49.2,67,49,67h-5.9l-1.5-4.5
		l-0.3-1v-0.1c-0.1-0.2-0.2-0.4-0.4-0.5l-0.5-0.4l-4.3-3.1l1.2-3.6l0.3-1l0.3-1c0.1-0.2,0.1-0.4,0-0.6l-1.8-5.6l0.8-0.6l1.4-1l1.4-1
		l1.3-0.9c0.2-0.1,0.3-0.3,0.4-0.5l1.8-5.6h5.9c0.2,0,0.4-0.1,0.6-0.2l3.7-2.8l1-0.7l1,0.7L59.2,35.7z"/>
	<path class="st0" d="M19,27.4h28.9c0.6,0,1-0.4,1-1s-0.4-1-1-1H19c-0.6,0-1,0.4-1,1S18.5,27.4,19,27.4z"/>
	<path class="st0" d="M54.4,37.5h-1c-4.1,0.3-7.9,2.4-10.3,5.8c-0.4,0.5-0.7,1-1,1.6c-1.1,2-1.6,4.2-1.6,6.5v0.3c0,0.3,0,0.7,0.1,1
		s0.1,0.7,0.1,1l0,0c0.8,4.7,3.9,8.6,8.2,10.5c1.2,0.5,2.4,0.8,3.6,1c0.3,0,0.6,0.1,0.9,0.1s0.7,0,1,0h1c0.3,0,0.6-0.1,0.9-0.1
		c1.2-0.2,2.5-0.5,3.6-1c5.8-2.6,9.1-8.8,8.1-15c-1.1-6.3-6.2-11-12.6-11.5C55.1,37.6,54.8,37.5,54.4,37.5L54.4,37.5z M66.3,51.4
		L66.3,51.4c0,6.2-4.7,11.3-10.9,11.8h-1h-1c-5.3-0.5-9.7-4.4-10.6-9.7c-0.1-0.6-0.2-1.2-0.2-1.9v-0.3c0-6.2,4.7-11.3,10.8-11.9h1h1
		C61.6,40.1,66.3,45.2,66.3,51.4L66.3,51.4z"/>
	<path class="st0" d="M54.4,41.9h-1c-2.5,0.3-4.7,1.5-6.3,3.4c-0.4,0.4-0.3,1.1,0.1,1.4c0.4,0.4,1.1,0.3,1.4-0.1
		c1.2-1.4,2.9-2.4,4.8-2.6c0.3,0,0.7-0.1,1-0.1s0.7,0,1,0.1c2.7,0.4,5.1,2.2,6,4.8c1,2.6,0.4,5.5-1.4,7.6c-0.3,0.3-0.3,0.7-0.1,1.1
		c0.2,0.4,0.5,0.6,0.9,0.6c0.3,0,0.6-0.1,0.8-0.3c2.3-2.7,3-6.4,1.7-9.7c-1.3-3.3-4.3-5.6-7.8-6C55.1,42,54.8,41.9,54.4,41.9
		L54.4,41.9z"/>
	<path class="st0" d="M27.5,8.7h19.1l0,0c0.1,0,0.1,0,0.2,0.1c0,0,0.1,0.1,0.1,0.2v11.6c0,0.6,0.4,1,1,1s1-0.4,1-1V8.9
		c0-1.2-1-2.3-2.3-2.3H27.5c-0.6,0-1,0.4-1,1S27,8.7,27.5,8.7L27.5,8.7z"/>
</g>
</svg>
