<?xml version="1.0" encoding="utf-8"?>
<svg id="Layer_1" data-name="Layer 1" xmlns="http://www.w3.org/2000/svg" viewBox="0 0 224.26 151.66"><defs><style>.cls-1{fill:#fff;}</style></defs><title>greenest2021-english-white</title><path class="cls-1" d="M121.4,78.35a5.49,5.49,0,0,1-4,1.48,5.35,5.35,0,0,1-4.49-2.06c-1.65-2-1.54-5.69-1.54-8.47s-.11-6.55,1.54-8.53a5.35,5.35,0,0,1,4.49-2.05,5.49,5.49,0,0,1,4,1.47,6.66,6.66,0,0,1,1.82,4.62h-4.11a4,4,0,0,0-.32-1.6,1.6,1.6,0,0,0-2.76,0c-.49,1-.55,3.54-.55,6s.06,5.08.55,6a1.37,1.37,0,0,0,1.36.82,1.43,1.43,0,0,0,1.43-.82,3.76,3.76,0,0,0,.31-1.59h4.12A6.74,6.74,0,0,1,121.4,78.35Z" transform="translate(0 0)"/><path class="cls-1" d="M134.24,79.6l-.66-3.22h-4.76l-.67,3.22h-4.29L129.17,59h4.06l5.31,20.65ZM131.2,65l-1.6,7.65h3.19Z" transform="translate(0 0)"/><path class="cls-1" d="M148.8,79.6l-4.38-10.1V79.6H140.3V59h3.6L148.19,69V59h4.12V79.6Z" transform="translate(0 0)"/><path class="cls-1" d="M164.46,79.6l-.67-3.22H159l-.67,3.22h-4.29L159.39,59h4.06l5.3,20.65Zm-3-14.59-1.6,7.65H163Z" transform="translate(0 0)"/><path class="cls-1" d="M180.87,77.59a5.46,5.46,0,0,1-4.52,2h-5.83V59h5.83a5.48,5.48,0,0,1,4.52,2c1.66,1.91,1.54,5.63,1.54,8.32S182.53,75.68,180.87,77.59Zm-3.07-14a1.64,1.64,0,0,0-1.54-.9h-1.62V75.88h1.62a1.62,1.62,0,0,0,1.54-.9c.49-1,.49-3.45.49-5.74S178.29,64.52,177.8,63.56Z" transform="translate(0 0)"/><path class="cls-1" d="M193.52,79.6l-.67-3.22H188.1l-.67,3.22h-4.29L188.44,59h4.06l5.31,20.65ZM190.47,65l-1.59,7.65h3.19Z" transform="translate(0 0)"/><path class="cls-1" d="M198.3,66.11V59h4.12v4.12Z" transform="translate(0 0)"/><path class="cls-1" d="M215.3,78.29a6.44,6.44,0,0,1-4.5,1.54,6.13,6.13,0,0,1-4.46-1.51c-1-1-1.37-2.47-1.37-4.58h4.12a2.73,2.73,0,0,0,.44,1.88,1.62,1.62,0,0,0,1.27.5,1.5,1.5,0,0,0,1.31-.53,2.69,2.69,0,0,0,.4-1.74c0-2-.31-2.32-1.79-2.93l-2.61-1.07c-2.09-.87-3-2-3-5.19A5.82,5.82,0,0,1,207,60.08a5.67,5.67,0,0,1,3.8-1.31,5.73,5.73,0,0,1,4.06,1.31c1.13,1,1.6,2.7,1.6,4.78h-4.12A3.07,3.07,0,0,0,212,63a1.33,1.33,0,0,0-1.19-.52,1.39,1.39,0,0,0-1.19.55,2.32,2.32,0,0,0-.34,1.48c0,1.3.23,1.68,1.42,2.17l2.58,1c2.61,1.08,3.36,2.24,3.36,6C216.63,75.8,216.37,77.25,215.3,78.29Z" transform="translate(0 0)"/><path class="cls-1" d="M118.19,107.83a5.33,5.33,0,0,1-4.49-2.06c-1.66-2-1.54-5.71-1.54-8.5s-.12-6.52,1.54-8.5a5.32,5.32,0,0,1,4.49-2,5.69,5.69,0,0,1,4.09,1.53,6.86,6.86,0,0,1,1.77,4.61h-4.12c0-.87-.17-2.43-1.74-2.43a1.38,1.38,0,0,0-1.36.81c-.49,1-.55,3.54-.55,6s.06,5.08.55,6a1.37,1.37,0,0,0,1.36.82c1.37,0,1.74-1.28,1.74-2.41V99.56h-1.71V96.23h5.83v5.25C124.05,105.59,121.73,107.83,118.19,107.83Z" transform="translate(0 0)"/><path class="cls-1" d="M134.69,107.6l-2.52-8h-1.36v8h-4.12V87h5.89c4.49,0,5.74,2.35,5.74,6.29,0,2.2-.35,4.18-2.35,5.42l3,8.94Zm-2.14-16.94h-1.74v5.19h1.74c1.56,0,1.65-1.42,1.65-2.61S134.11,90.66,132.55,90.66Z" transform="translate(0 0)"/><path class="cls-1" d="M141.31,107.6V87h9.51v3.71h-5.4v4.67h4.64V99h-4.64v4.84h5.4v3.72Z" transform="translate(0 0)"/><path class="cls-1" d="M153.34,107.6V87h9.51v3.71h-5.39v4.67h4.64V99h-4.64v4.84h5.39v3.72Z" transform="translate(0 0)"/><path class="cls-1" d="M173.87,107.6l-4.38-10.1v10.1h-4.12V87H169L173.26,97V87h4.12V107.6Z" transform="translate(0 0)"/><path class="cls-1" d="M180.57,107.6V87h9.51v3.71h-5.39v4.67h4.64V99h-4.64v4.84h5.39v3.72Z" transform="translate(0 0)"/><path class="cls-1" d="M202.26,106.29a6.42,6.42,0,0,1-4.49,1.54,6.17,6.17,0,0,1-4.47-1.51c-1-1-1.36-2.47-1.36-4.58h4.12a2.73,2.73,0,0,0,.43,1.88,1.65,1.65,0,0,0,1.28.5,1.48,1.48,0,0,0,1.3-.53,2.68,2.68,0,0,0,.41-1.74c0-2-.32-2.32-1.8-2.93l-2.61-1.07c-2.09-.87-3-2-3-5.19A5.79,5.79,0,0,1,194,88.08a5.65,5.65,0,0,1,3.8-1.31,5.75,5.75,0,0,1,4.06,1.31c1.13,1,1.59,2.7,1.59,4.78H199.3A3.15,3.15,0,0,0,199,91a1.34,1.34,0,0,0-1.19-.52,1.38,1.38,0,0,0-1.19.55,2.31,2.31,0,0,0-.35,1.48c0,1.3.23,1.68,1.42,2.17l2.58,1c2.61,1.08,3.37,2.24,3.37,6C203.6,103.8,203.34,105.25,202.26,106.29Z" transform="translate(0 0)"/><path class="cls-1" d="M212.76,90.66V107.6h-4.12V90.66h-3.48V87h11.08v3.71Z" transform="translate(0 0)"/><path class="cls-1" d="M104.72,135.6V115h9.51v3.71h-5.39v4.67h4.64V127h-4.64v4.84h5.39v3.72Z" transform="translate(0 0)"/><path class="cls-1" d="M127.46,135.6V124.84l-2.26,7.07h-2.12l-2.21-7V135.6h-4.11V115h3.62l3.77,10.12L127.92,115h3.66V135.6Z" transform="translate(0 0)"/><path class="cls-1" d="M140.59,128.14h-1.71v7.46h-4.12V115h5.83c4.47,0,5.8,2.52,5.8,6.55S145.06,128.14,140.59,128.14Zm0-9.48h-1.74v5.77h1.74c1.57,0,1.66-1.59,1.66-2.9S142.19,118.66,140.62,118.66Z" transform="translate(0 0)"/><path class="cls-1" d="M148.89,135.6V115H153v16.93h5.39v3.72Z" transform="translate(0 0)"/><path class="cls-1" d="M170.09,133.77a5.48,5.48,0,0,1-4.56,2.06,5.34,5.34,0,0,1-4.49-2.06c-1.65-2-1.54-5.71-1.54-8.5s-.11-6.52,1.54-8.5a5.34,5.34,0,0,1,4.49-2,5.48,5.48,0,0,1,4.56,2c1.65,2,1.53,5.72,1.53,8.5S171.74,131.8,170.09,133.77ZM167,119.24a1.48,1.48,0,0,0-1.43-.81,1.38,1.38,0,0,0-1.36.81c-.49,1-.55,3.54-.55,6s.06,5.08.55,6a1.37,1.37,0,0,0,1.36.82,1.47,1.47,0,0,0,1.43-.82c.49-1,.55-3.53.55-6S167.45,120.2,167,119.24Z" transform="translate(0 0)"/><path class="cls-1" d="M180.47,127.82v7.78h-4.12v-7.78L172.15,115h4.52l1.74,7.48,1.74-7.48h4.52Z" transform="translate(0 0)"/><path class="cls-1" d="M186.24,135.6V115h9.51v3.71h-5.39v4.67H195V127h-4.64v4.84h5.39v3.72Z" transform="translate(0 0)"/><path class="cls-1" d="M206.28,135.6l-2.52-8h-1.37v8h-4.12V115h5.89c4.5,0,5.74,2.35,5.74,6.29,0,2.2-.34,4.18-2.35,5.42l3,8.94Zm-2.15-16.94h-1.74v5.19h1.74c1.57,0,1.66-1.42,1.66-2.61S205.7,118.66,204.13,118.66Z" transform="translate(0 0)"/><path class="cls-1" d="M222.55,134.29a6.44,6.44,0,0,1-4.5,1.54,6.13,6.13,0,0,1-4.46-1.51c-1-1-1.37-2.47-1.37-4.58h4.12a2.73,2.73,0,0,0,.44,1.88,1.62,1.62,0,0,0,1.27.5,1.5,1.5,0,0,0,1.31-.53,2.69,2.69,0,0,0,.4-1.74c0-2-.31-2.32-1.79-2.93l-2.61-1.07c-2.09-.87-3-2-3-5.19a5.82,5.82,0,0,1,1.85-4.58,5.67,5.67,0,0,1,3.8-1.31,5.73,5.73,0,0,1,4.06,1.31c1.13,1,1.6,2.7,1.6,4.78h-4.12a3.07,3.07,0,0,0-.35-1.85,1.33,1.33,0,0,0-1.19-.52,1.39,1.39,0,0,0-1.19.55,2.32,2.32,0,0,0-.34,1.48c0,1.3.23,1.68,1.42,2.17l2.58,1c2.61,1.08,3.36,2.24,3.36,6C223.88,131.8,223.62,133.25,222.55,134.29Z" transform="translate(0 0)"/><path class="cls-1" d="M118.15.19c-27.55,26.78-38.85,63-34.7,96,14.21-4,19.18-18.3,22.5-39.75,1.67-10.55,2.08-22.91,4.28-33.53C112.17,12.33,115.91,3.48,118.15.19Z" transform="translate(0 0)"/><path class="cls-1" d="M117.79,0C114,2.63,103.46,7.72,92,16.93c-11.32,9-23.51,22.1-28.19,36-4.89,14-4.17,26-.52,33.54,3.26,6.87,8.86,10.22,15,10.34a113,113,0,0,0,8.63,34.33,76.63,76.63,0,0,0-16.43-14.61c1.89-3.68,1.68-8.1-1.36-12.25-3.35-4.6-10.25-8.87-20.19-10.46s-21.55,1.38-30.55,5.24C9.21,103,2.79,107.61,0,109a81,81,0,0,1,63.92,5.34,74.66,74.66,0,0,1,27.61,26.27c2.21,3.67,4.48,7.36,6.65,10.6l2.41-1.39A109.17,109.17,0,0,1,80,86.78,119.47,119.47,0,0,1,117.79,0Z" transform="translate(0 0)"/><path class="cls-1" d="M16.12,111.88c7,2.09,14.55,5.83,21.38,8.21,13.87,4.92,24,6.56,31-.65-18.37-13.08-43.62-18-68.45-10.15C2.68,109,9.17,109.63,16.12,111.88Z" transform="translate(0 0)"/><rect class="cls-1" x="2.26" y="147.81" width="222" height="3.85"/><path class="cls-1" d="M141.32,48.8H125.9V44.23c4.91-7,9.2-12.43,9.2-17.93,0-3-1.26-4.3-3.82-4.3a16.17,16.17,0,0,0-4.71.93h-.25V17.61a19.64,19.64,0,0,1,5.8-.87c6.3,0,9.15,3.18,9.15,8.68,0,7.16-4.87,12.38-8.9,17.88h8.95Z" transform="translate(0 0)"/><path class="cls-1" d="M162.11,45c-1.56,3-4.21,4.29-7.61,4.29s-5.88-1.38-7.35-4S145.3,38.45,145.3,33s.3-9.33,1.77-12.15,4.2-4.3,7.6-4.3,5.84,1.39,7.31,4,1.89,6.75,1.89,12.38C163.87,38.22,163.58,42.15,162.11,45Zm-5.17-21.63a2.51,2.51,0,0,0-4.75.1c-.63,1.52-.84,3.83-.84,9.51s.21,8,.88,9.52a2.51,2.51,0,0,0,4.75-.09c.63-1.53.84-3.84.84-9.52S157.61,24.82,156.94,23.34Z" transform="translate(0 0)"/><path class="cls-1" d="M182.18,48.8H166.76V44.23c4.92-7,9.2-12.43,9.2-17.93,0-3-1.26-4.3-3.82-4.3a16.16,16.16,0,0,0-4.7.93h-.26V17.61a19.72,19.72,0,0,1,5.8-.87c6.3,0,9.16,3.18,9.16,8.68,0,7.16-4.87,12.38-8.91,17.88h9Z" transform="translate(0 0)"/><path class="cls-1" d="M190.28,48.8V23l-4.49,1.62h-.29V19.23L191.92,17h4.16V48.8Z" transform="translate(0 0)"/></svg>