<?xml version="1.0" encoding="utf-8"?>
<!-- Generator: Adobe Illustrator 24.1.3, SVG Export Plug-In . SVG Version: 6.00 Build 0)  -->
<svg version="1.1" id="Layer_1" xmlns="http://www.w3.org/2000/svg" xmlns:xlink="http://www.w3.org/1999/xlink" x="0px" y="0px"
	 viewBox="0 0 92.7 71.5" style="enable-background:new 0 0 92.7 71.5;" xml:space="preserve">
<style type="text/css">
	.st0{fill-rule:evenodd;clip-rule:evenodd;fill:#FFFFFF;}
</style>
<path class="st0" d="M51.5,7C66.3-8.9,92.7,4.6,92.7,27.7c0,15.6-28.8,35.7-41.1,43.8C44.1,66.4,30,56.8,20.7,46.3
	c-3-3,0.6-5.7,3.6-2.4c8.1,9.6,21,18.3,27.3,22.2c6.9-4.2,20.7-14.1,29.4-24c0.6-0.3,0.9-0.9,1.2-1.5c3.6-4.5,6.3-9,6.3-12.9
	c0-20.7-25.2-33-36.9-12.9C39.8-5.6,14.9,7.3,14.9,27.7c0,1.8,0.6,3.9,1.5,6h14.4l4.8-8.1c0.9-1.8,3.6-1.5,3.9,0.3l5.7,19.8
	l9.3-32.1c0.6-2.1,3.6-2.1,4.2,0l8.4,26.1l3.3-5.1c0.6-0.6,1.2-0.9,1.8-0.9H80c2.7,0,2.7,4.2,0,4.2h-6.6l-5.1,7.8
	c-0.9,1.5-3.3,1.2-3.9-0.6L57,21.7l-9.6,32.4c-0.3,2.1-3.6,2.4-4.2,0l-6.3-22.2l-3,4.8c-0.3,0.9-0.9,1.2-1.8,1.2H2.3
	c-3,0-3-4.2,0-4.2h9.6c-0.9-2.1-1.2-4.2-1.2-6C10.6,4.9,36.5-9.2,51.5,7L51.5,7z"/>
</svg>
