<?xml version="1.0" encoding="utf-8"?>
<!-- Generator: Adobe Illustrator 25.4.0, SVG Export Plug-In . SVG Version: 6.00 Build 0)  -->
<svg version="1.1" id="Layer_1" xmlns="http://www.w3.org/2000/svg" xmlns:xlink="http://www.w3.org/1999/xlink" x="0px" y="0px"
	 viewBox="0 0 529.2 88.3" style="enable-background:new 0 0 529.2 88.3;" xml:space="preserve">
<style type="text/css">
	.st0{fill:#3E2B2F;}
	.st1{fill:#007853;}
	.st2{clip-path:url(#SVGID_00000044896372081181127080000002753473108217383564_);}
	.st3{fill:#FFFFFF;}
</style>
<path class="st0" d="M0,41.2C0,37.5,0,34,4.8,34c3,0,4.1,1.6,4,4.6H6c0-1.8-0.4-2.5-1.2-2.5c-1.6,0-1.8,1.5-1.8,5.1s0.2,5.1,1.8,5.1
	c1.3,0,1.3-1.7,1.3-2.8h2.8c0,3.7-1.5,4.9-4.2,4.9C0,48.3,0,44.8,0,41.2z"/>
<path class="st0" d="M10.8,48.1V34.3h7.6v2.1h-4.7v3.4H18v2.1h-4.3V46h4.8v2.1L10.8,48.1z"/>
<path class="st0" d="M20.5,48.1V34.3h3.9l3.7,9.6l0,0v-9.6h2.7v13.8H27L23.2,38l0,0v10.1H20.5z"/>
<path class="st0" d="M41.5,34.3v2.3h-3.2v11.5h-2.9V36.6h-3.2v-2.3H41.5z"/>
<path class="st0" d="M45.7,48.1h-2.9V34.3h5.3c2,0,3.2,1.3,3.2,3.6c0,1.8-0.7,3.1-2.6,3.4l0,0c1.4,0,2.5,1,2.5,2.4
	c0,0.1,0,0.2,0,0.3c0,1.4,0.1,2.7,0.3,4.1h-2.8c-0.3-0.9-0.4-1.8-0.3-2.7c0-1.6,0.2-3-2.1-3h-0.8V48.1z M45.7,40.2H47
	c1.2,0,1.5-1.2,1.5-2c0-1.3-0.5-1.8-1.5-1.8h-1.3V40.2z"/>
<path class="st0" d="M53.6,48.1V34.3h7.5v2.1h-4.7v3.4h4.3v2.1h-4.3V46h4.8v2.1L53.6,48.1z"/>
<path class="st0" d="M67.5,48.1V34.3h7.2v2.1h-4.3v3.5h4.1v2.1h-4.1v6L67.5,48.1z"/>
<path class="st0" d="M75.9,41.2c0-3.7,0-7.2,4.8-7.2s4.8,3.5,4.8,7.2s0,7.1-4.8,7.1S75.9,44.8,75.9,41.2z M82.5,41.2
	c0-3.5-0.2-5.1-1.8-5.1s-1.8,1.5-1.8,5.1s0.2,5.1,1.8,5.1S82.5,44.7,82.5,41.2z"/>
<path class="st0" d="M90.7,48.1h-2.9V34.3h5.3c2,0,3.2,1.3,3.2,3.6c0,1.8-0.7,3.1-2.6,3.4l0,0c1.4,0,2.5,1,2.5,2.4
	c0,0.1,0,0.2,0,0.3c0,1.4,0.1,2.7,0.3,4.1h-2.8c-0.3-0.9-0.4-1.8-0.3-2.7c0-1.6,0.2-3-2.1-3h-0.7V48.1z M90.7,40.2h1.3
	c1.2,0,1.5-1.2,1.5-2c0-1.3-0.6-1.8-1.5-1.8h-1.3V40.2z"/>
<path class="st1" d="M0,56.1h7.2c5.9,0,7,1.6,7,8.9s-1.1,8.9-7,8.9H4.3v13.6H0V56.1z M4.3,70.1h2.3c3,0,3.3-0.5,3.3-5.2
	s-0.3-5.2-3.3-5.2H4.3V70.1z"/>
<path class="st1" d="M17,56.1h6.7c6.3,0,7,1.7,7,8.6c0,4.2-0.6,6-4.1,7.1v0.1c3,0.3,4,1.8,4,4.8v6.8c0,1.3,0.1,2.7,0.3,4h-4.1
	c-0.4-0.9-0.6-1.9-0.5-2.8v-7.1c0-2.9-0.5-3.7-3.4-3.7h-1.5v13.6H17V56.1z M21.3,70.1h1.2c3.4,0,3.9-0.7,3.9-5.3s-0.3-5.1-3-5.1h-2
	L21.3,70.1z"/>
<path class="st1" d="M33.9,64.1c0-4.4,1.4-8.3,7.3-8.3c5.6,0,7.4,2.9,7.4,7.8v15.8c0,4.4-1.4,8.2-7.4,8.2c-5.6,0-7.3-2.9-7.3-7.8
	V64.1z M38.3,80.2c0,2.7,1.2,4.1,3,4.1s3-1.4,3-4.1V63.7c0-3.1-1-4.5-3-4.5s-3,1.4-3,4.5V80.2z"/>
<path class="st1" d="M51.8,56.1h11.8v3.6h-7.5v9.8h7v3.6h-7v14.2h-4.3V56.1z"/>
<path class="st1" d="M65.6,56.1h11.8v3.6H70v9.8h7v3.6h-7v10.6h7.5v3.7H65.6V56.1z"/>
<path class="st1" d="M79,78.3h4.3v2.6c0,2.1,0.8,3.4,2.5,3.4c2.3,0,2.9-1.6,2.9-3.6c0-2.7-0.1-3.5-4.6-8c-2.8-2.8-5-5.3-5-9.6
	c0-5.1,2.4-7.3,7.1-7.3c1.8-0.1,3.7,0.5,5.1,1.7c0.7,0.7,1.3,1.8,1.3,4v2.9h-4.1V62c0-1.8-0.7-2.8-2.4-2.8s-2.6,1-2.6,3.4
	c0,2.1,0.4,3.4,4.4,7.6c4.2,4.4,5,6,5,9.7c0,4.9-1.9,7.7-7.1,7.7c-4,0-6.7-1.7-6.7-5.6L79,78.3z"/>
<path class="st1" d="M95.1,78.3h4.3v2.6c0,2.1,0.8,3.4,2.5,3.4c2.3,0,2.9-1.6,2.9-3.6c0-2.7-0.1-3.5-4.7-8c-2.8-2.8-5.1-5.3-5.1-9.6
	c0-5.1,2.4-7.3,7.1-7.3c1.9-0.1,3.7,0.5,5.1,1.7c0.7,0.7,1.3,1.8,1.3,4v3h-4.1V62c0-1.8-0.7-2.8-2.4-2.8s-2.6,1-2.6,3.4
	c0,2.1,0.4,3.4,4.4,7.6c4.2,4.4,5,6,5,9.7c0,4.9-1.9,7.7-7.1,7.7c-4,0-6.7-1.7-6.7-5.6L95.1,78.3z"/>
<path class="st1" d="M111.7,56.1h4.3v31.4h-4.3V56.1z"/>
<path class="st1" d="M119,64.1c0-4.4,1.4-8.3,7.3-8.3c5.6,0,7.4,2.9,7.4,7.8v15.8c0,4.4-1.4,8.2-7.4,8.2c-5.6,0-7.3-2.9-7.3-7.8
	V64.1z M123.3,80.2c0,2.7,1.2,4.1,3,4.1s3-1.4,3-4.1V63.7c0-3.1-1-4.5-3-4.5s-3,1.4-3,4.5L123.3,80.2z"/>
<path class="st1" d="M137,56.1h6l5.1,26.1h0.1v-26h4.1v31.3H146l-5.1-26.8h-0.1v26.8H137V56.1z"/>
<path class="st1" d="M161.3,56.1h5l6.4,31.4h-4.4l-1.4-8h-6.8l-1.4,8h-4.3L161.3,56.1z M160.9,75.8h5.5l-2.7-15.1h-0.1L160.9,75.8z"
	/>
<path class="st1" d="M175,56.1h4.3v27.7h7.3v3.7H175V56.1z"/>
<path class="st1" d="M201.2,56.1h5l6.4,31.4h-4.3l-1.4-8H200l-1.4,8h-4.3L201.2,56.1z M200.7,75.8h5.5l-2.7-15.1h-0.1L200.7,75.8z"
	/>
<path class="st1" d="M214.9,56.1h6l5.1,26.1h0.1v-26h4.1v31.3h-6.3l-5.1-26.8h-0.1v26.8h-3.8L214.9,56.1z"/>
<path class="st1" d="M233.4,56.1h7c7,0,7.6,2.3,7.6,11.5v9.3c0,8-1.4,10.6-8.3,10.6h-6.3L233.4,56.1z M237.8,83.8h2.1
	c3.2,0,3.8-1.7,3.8-7.1V65.9c0-4.6-0.5-6.2-4.2-6.2h-1.7V83.8z"/>
<path class="st1" d="M256.4,56.1h7.2c5.9,0,7,1.6,7,8.9s-1.1,8.9-7,8.9h-2.8v13.6h-4.3V56.1z M260.8,70.1h2.2c3,0,3.3-0.5,3.3-5.2
	s-0.3-5.2-3.3-5.2h-2.3L260.8,70.1z"/>
<path class="st1" d="M279.1,56.1h5l6.4,31.4h-4.3l-1.4-8H278l-1.4,8h-4.4L279.1,56.1z M278.6,75.8h5.5l-2.7-15.1h-0.1L278.6,75.8z"
	/>
<path class="st1" d="M292.6,56.1h6.7c6.3,0,7,1.7,7,8.6c0,4.2-0.6,6-4.1,7.1v0.1c3,0.3,4,1.8,4,4.8v6.8c0,1.3,0,2.7,0.3,4h-4.1
	c-0.4-0.9-0.6-1.9-0.5-2.8v-7.1c0-2.9-0.5-3.7-3.4-3.7H297v13.6h-4.4V56.1z M296.9,70.1h1.1c3.4,0,3.9-0.7,3.9-5.3s-0.3-5.1-3-5.1
	h-2.1L296.9,70.1z"/>
<path class="st1" d="M308.1,56.1h14.8v3.6h-5.2v27.7h-4.4V59.7h-5.2V56.1z"/>
<path class="st1" d="M324.3,74.7h10.5v3.4h-10.5V74.7z"/>
<path class="st1" d="M336.3,56.1h14.8v3.6h-5.2v27.7h-4.3V59.7h-5.2V56.1z"/>
<path class="st1" d="M352.8,56.1h4.3v31.4h-4.3V56.1z"/>
<path class="st1" d="M360.2,56.1h6.9l4,23.9h0.1l4-23.9h6.7v31.4h-4.1V59.2h-0.1l-4.4,28.2H369l-4.9-28.2H364v28.2h-3.8L360.2,56.1z
	"/>
<path class="st1" d="M385.1,56.1H397v3.6h-7.5v9.8h7v3.6h-7v10.6h7.5v3.7h-11.9V56.1z"/>
<path class="st1" d="M406.9,56.1h4.4v27.7h7.3v3.7h-11.6V56.1z"/>
<path class="st1" d="M420.6,56.1h11.8v3.6h-7.5v9.8h7v3.6h-7v10.6h7.5v3.7h-11.8V56.1z"/>
<path class="st1" d="M440,56.1h5l6.4,31.4H447l-1.4-8h-6.8l-1.4,8h-4.3L440,56.1z M439.5,75.8h5.5l-2.7-15.1h-0.1L439.5,75.8z"/>
<path class="st1" d="M453.5,56.1h6.7c6.3,0,7,1.7,7,8.6c0,4.2-0.6,6-4.1,7.1v0.1c3,0.3,4,1.8,4,4.8v6.8c0,1.3,0,2.7,0.3,4h-4.1
	c-0.4-0.9-0.6-1.9-0.5-2.8v-7.1c0-2.9-0.5-3.7-3.4-3.7h-1.5v13.6h-4.3L453.5,56.1z M457.9,70.1h1.1c3.4,0,3.9-0.7,3.9-5.3
	s-0.3-5.1-3-5.1h-2.1L457.9,70.1z"/>
<path class="st1" d="M470.4,56.1h6l5.1,26.1h0.1v-26h4.1v31.3h-6.3l-5.1-26.8h-0.1v26.8h-3.8L470.4,56.1z"/>
<path class="st1" d="M488.8,56.1h4.4v31.4h-4.4V56.1z"/>
<path class="st1" d="M496.2,56.1h6l5.1,26.1h0.1v-26h4.1v31.3h-6.3l-5.1-26.8h-0.1v26.8h-3.8L496.2,56.1z"/>
<path class="st1" d="M524.9,64.3v-1.6c0-2.2-1.1-3.6-2.8-3.6c-2,0-3,1.8-3,5.2v15.8c0,2.5,1.2,4.1,3,4.1c0.9,0,1.9-0.1,2.8-0.3v-9.2
	H522v-3.6h7.2v15.8c-2.4,0.5-4.8,0.8-7.2,0.8c-5.5,0-7.3-2.9-7.3-7.8V64.1c0-5.9,1.8-8.3,7.4-8.3c4.7,0,7.1,1.7,7.1,5.7v2.9H524.9z"
	/>
<g>
	<defs>
		<rect id="SVGID_1_" x="0.5" y="1.8" width="124.5" height="6.4"/>
	</defs>
	<clipPath id="SVGID_00000092424585926877467620000011172037565261341878_">
		<use xlink:href="#SVGID_1_"  style="overflow:visible;"/>
	</clipPath>
	<g style="clip-path:url(#SVGID_00000092424585926877467620000011172037565261341878_);">
		<polygon class="st1" points="38.4,8.3 38.4,1.8 125,1.8 125,8.3 38.4,8.3 		"/>
		<polygon class="st0" points="0.5,8.3 0.5,1.8 35.5,1.8 35.5,8.3 0.5,8.3 		"/>
		<polygon class="st3" points="35.5,8.3 35.5,1.8 38.4,1.8 38.4,8.3 35.5,8.3 		"/>
	</g>
</g>
</svg>
