<?xml version="1.0" encoding="utf-8"?>
<!-- Generator: Adobe Illustrator 25.2.1, SVG Export Plug-In . SVG Version: 6.00 Build 0)  -->
<svg version="1.1" id="Layer_1" xmlns="http://www.w3.org/2000/svg" xmlns:xlink="http://www.w3.org/1999/xlink" x="0px" y="0px"
	 viewBox="0 0 187.1 176.4" style="enable-background:new 0 0 187.1 176.4;" xml:space="preserve">
<style type="text/css">
	.st0{fill:#DE3726;}
	.st1{enable-background:new    ;}
	.st2{fill:#FFFFFF;}
</style>
<path class="st0" d="M104.7,59.7c-1.7,0-3.3-0.9-4.4-2.2l-3,2.1c1.7,2.3,4.4,3.7,7.3,3.8h0.1c2.9-0.1,5.5-1.5,7.2-3.8l-3-2.1
	C107.9,58.8,106.3,59.6,104.7,59.7z"/>
<path class="st0" d="M131.7,99.8h-4.6v-4.5h-3.6v4.5h-4.6c-1.3,0-2.4,1.1-2.4,2.4c0,0,0,0,0,0v16.4c0,1.3,1.1,2.4,2.4,2.4h6.4v6.6
	h3.6v-6.6h2.9c1.3,0,2.4-1.1,2.4-2.4v-16.4C134.1,100.9,133.1,99.8,131.7,99.8z M130.5,117.3h-10.4v-13.9h3.4v2.2h3.6v-2.2h3.4
	V117.3z"/>
<rect x="81" y="112.6" class="st0" width="3.6" height="15"/>
<rect x="138.1" y="45.2" class="st0" width="3.6" height="7.5"/>
<path class="st0" d="M141.8,39.8h-3.6c0-12.4-4.6-23.5-12-29.1l2.2-2.9C136.6,14,141.8,26.3,141.8,39.8z"/>
<rect x="52.7" y="47.9" class="st0" width="3.6" height="16"/>
<rect x="52.7" y="67.9" class="st0" width="3.6" height="5.5"/>
<path class="st0" d="M147.7,96.9c-1.9-6-6-11.1-11.6-14.2v-0.1l0.1-0.2c0.1-0.1,0.1-0.2,0.2-0.2c-0.4-0.1-0.8-0.3-1.1-0.5
	c-0.7-0.4-1.4-0.9-2.1-1.4l-0.7,0.7c-1.5-0.6-3.1-1-4.7-1.2l-7-1.1c-3-0.5-5.3-2.9-5.7-5.9l-0.5-4.2c5.8-2.9,10-8.2,11.3-14.5h1.6
	c0.5,0,1.1-0.1,1.6-0.2l0,0c0.5-0.1,1.1-0.3,1.6-0.5c0.2-0.1,0.3-0.2,0.5-0.3c0.2-0.1,0.3-0.3,0.4-0.5c0.3-0.5,0.7-0.9,1.1-1.3v-0.3
	c0.6-1,0.9-2.1,0.9-3.2v-1.1c0-0.7-0.1-1.4-0.4-2.1l0.4-5.6v-0.1c0-17.5-12.8-31.6-28.5-31.6h-1.6C87.8,7.4,75,21.6,75,39.1l0.2,8.9
	l0,0c0,1.4,0.5,2.7,1.3,3.8l0,0c1.3,0.8,2.5,1.6,3.8,2.3c0.4,0.1,0.8,0.1,1.1,0.1h1.2c1.3,6.4,5.6,11.8,11.5,14.6L93.6,73
	c-0.4,3-2.7,5.4-5.7,5.9l-7,1.1c-1.5,0.2-3,0.6-4.5,1.1l-0.2-0.2c-1.2,0.6-2.5,0.9-3.8,1l0,0c0.2,0.3,0.4,0.5,0.6,0.8
	c-3.5,1.9-6.5,4.5-8.8,7.8V4.7c0-1.3-1-2.5-2.4-2.5c-0.7,0-1.4,0.3-1.8,0.8L25.1,39c-0.7,0.7-0.9,1.7-0.5,2.6
	c0.4,0.9,1.3,1.5,2.2,1.5l0,0L60.5,43v84.5h3.6v-28c0-0.5,0.1-1,0.3-1.5c2.4-7.7,9-13.3,17-14.5l7-1.1c0.9-0.1,1.8-0.4,2.7-0.8v5
	c0,1.8,1.5,3.2,3.3,3.2c0.5,0,0.9-0.1,1.4-0.3l9.4-4.3l9.4,4.3c0.4,0.2,0.9,0.3,1.4,0.3c0.6,0,1.2-0.2,1.8-0.5
	c0.9-0.6,1.5-1.6,1.5-2.7v-4.4c0.3,0.1,0.7,0.2,1,0.2l7,1.1c8,1.2,14.6,6.8,17,14.5c0.2,0.5,0.3,1.1,0.3,1.7v28h3.6v-28
	C148.1,98.7,148,97.8,147.7,96.9z M60.5,39.4l-30.9,0.1L60.5,7.7V39.4z M130,48.1c0,1.4-1.1,2.5-2.5,2.5h-1.1v-6.2h1.1
	c1.4,0,2.5,1.1,2.5,2.5V48.1z M82.4,46.5c-0.2,1.3-0.3,2.7-0.2,4.1h-0.7c-1.5,0-2.7-1.2-2.7-2.7l0,0v-0.8c0-1.5,1.2-2.7,2.7-2.7h1.3
	L82.4,46.5z M81.4,40.8c-1,0-1.9,0.2-2.8,0.7V39c0-15.4,11.2-28,24.9-28h1.6c13.7,0,24.9,12.5,24.9,28l-0.1,2.3
	c-0.7-0.3-1.5-0.5-2.3-0.5h-2.8c-5.3-0.8-7.8-8.6-8.8-13.2c-0.3-1.3-1.1-2.5-2.3-3.2c-1.2-0.7-2.6-0.9-3.9-0.6
	c-3.2,0.8-6,3.7-8.4,8.6C97.8,40,88,40.7,85.5,40.8l0,0L81.4,40.8z M88,58.3c-1.9-3.4-2.6-7.4-2-11.2l0.4-2.7
	c4-0.2,14.1-1.8,18.3-10.4c1.9-3.8,4-6.2,6-6.7c0.4-0.1,0.8,0,1.1,0.2c0.3,0.2,0.6,0.5,0.7,0.9c1.9,8.7,5.6,14.2,10.4,15.7v5.3
	c0,9.8-7.5,17.7-16.7,17.7h-3.7C96.3,66.9,90.9,63.6,88,58.3z M94.8,86v-4.5c1.6,1,3.4,1.7,5.3,2.1L94.8,86z M104.6,80.3
	c-5.3,0-7.9-1.7-9-2.7c0.8-1.3,1.3-2.7,1.5-4.2l0.4-3.3c1.6,0.4,3.2,0.6,4.8,0.6h3.7c1.7,0,3.4-0.2,5-0.6l0.4,3.3
	c0.2,1.5,0.7,3,1.6,4.3C112.1,78.7,109.8,80.3,104.6,80.3L104.6,80.3z M115.6,86l-5.7-2.6c2.1-0.5,4-1.5,5.6-3l0.1,0.1V86z"/>
<rect x="1.8" y="127.3" class="st0" width="185.3" height="49"/>
<g class="st1">
	<path class="st2" d="M15.4,164.1v-23.6h4.8c1.6,0,2.9,0.2,3.9,0.6c1,0.4,1.8,1.1,2.3,2c0.5,0.9,0.7,2.1,0.7,3.6
		c0,0.9-0.1,1.7-0.3,2.5c-0.2,0.7-0.5,1.4-0.9,1.9s-1,0.9-1.7,1.1l3.4,11.8h-3.2L21.2,153h-2.6v11.1H15.4z M18.7,150.7h1.3
		c0.9,0,1.7-0.1,2.3-0.4s1-0.6,1.3-1.2s0.4-1.4,0.4-2.4c0-1.4-0.3-2.4-0.8-3c-0.5-0.6-1.5-0.9-3-0.9h-1.5V150.7z"/>
	<path class="st2" d="M30.5,164.1v-23.6h9.2v2.5h-5.9v7.8h4.8v2.3h-4.8v8.7h5.9v2.4H30.5z"/>
	<path class="st2" d="M48,164.4c-1.5,0-2.7-0.3-3.5-0.9c-0.9-0.6-1.5-1.6-1.9-2.8c-0.4-1.2-0.6-2.7-0.6-4.3v-7.9
		c0-1.7,0.2-3.2,0.5-4.4c0.4-1.2,1-2.1,1.9-2.8c0.9-0.6,2.2-1,3.9-1c1.5,0,2.7,0.2,3.6,0.7s1.6,1.3,2,2.3c0.4,1,0.6,2.3,0.6,3.9v0.9
		h-3.1v-0.7c0-1-0.1-1.9-0.2-2.5c-0.1-0.7-0.4-1.1-0.8-1.5c-0.4-0.3-1.1-0.5-2-0.5c-1,0-1.7,0.2-2.1,0.7c-0.4,0.4-0.7,1.1-0.8,1.8
		c-0.1,0.8-0.2,1.6-0.2,2.6v8.8c0,1.1,0.1,2.1,0.2,2.8c0.2,0.8,0.5,1.3,0.9,1.7c0.5,0.4,1.1,0.6,2,0.6c0.9,0,1.5-0.2,2-0.6
		s0.8-1,1-1.8c0.2-0.8,0.3-1.8,0.3-3v-1.6h-3v-2.3h6v11.7h-2.1l-0.3-2.7c-0.3,0.9-0.8,1.6-1.5,2.2C50.1,164.1,49.2,164.4,48,164.4z"
		/>
	<path class="st2" d="M58.2,164.1v-23.6h3.2v23.6H58.2z"/>
	<path class="st2" d="M70.8,164.4c-1.4,0-2.5-0.3-3.4-0.9c-0.9-0.6-1.6-1.4-2.1-2.4c-0.5-1-0.7-2.2-0.8-3.6l2.9-0.8
		c0.1,0.8,0.2,1.6,0.4,2.4c0.2,0.8,0.5,1.4,1,1.9c0.5,0.5,1.1,0.7,2,0.7c0.9,0,1.5-0.2,1.9-0.7s0.7-1.2,0.7-2.1
		c0-1.1-0.2-1.9-0.7-2.6c-0.5-0.7-1.1-1.3-1.8-2l-4-3.5c-0.8-0.7-1.4-1.4-1.7-2.2c-0.4-0.8-0.6-1.8-0.6-3c0-1.7,0.5-3.1,1.5-4
		s2.3-1.4,4.1-1.4c0.9,0,1.8,0.1,2.5,0.4c0.7,0.2,1.3,0.6,1.8,1.1s0.9,1.1,1.1,1.9c0.3,0.8,0.5,1.7,0.6,2.7l-2.8,0.8
		c-0.1-0.8-0.2-1.5-0.4-2.1c-0.2-0.7-0.5-1.2-0.9-1.6c-0.4-0.4-1.1-0.6-1.9-0.6s-1.5,0.2-1.9,0.7c-0.5,0.4-0.7,1.1-0.7,1.9
		c0,0.7,0.1,1.3,0.4,1.8c0.2,0.5,0.6,0.9,1.2,1.4l4,3.5c0.9,0.8,1.7,1.7,2.4,2.8c0.7,1.1,1,2.4,1,3.8c0,1.2-0.2,2.2-0.7,3
		c-0.5,0.8-1.2,1.5-2,1.9C72.9,164.2,71.9,164.4,70.8,164.4z"/>
	<path class="st2" d="M81.6,164.1v-21.2h-4v-2.5h11.2v2.5h-3.9v21.2H81.6z"/>
	<path class="st2" d="M91.1,164.1v-23.6h9.2v2.5h-5.9v7.8h4.8v2.3h-4.8v8.7h5.9v2.4H91.1z"/>
	<path class="st2" d="M102.9,164.1v-23.6h4.8c1.6,0,2.9,0.2,3.9,0.6c1,0.4,1.8,1.1,2.3,2c0.5,0.9,0.7,2.1,0.7,3.6
		c0,0.9-0.1,1.7-0.3,2.5c-0.2,0.7-0.5,1.4-0.9,1.9s-1,0.9-1.7,1.1l3.4,11.8h-3.2l-3.1-11.1h-2.6v11.1H102.9z M106.2,150.7h1.3
		c0.9,0,1.7-0.1,2.3-0.4c0.6-0.2,1-0.6,1.3-1.2s0.4-1.4,0.4-2.4c0-1.4-0.3-2.4-0.8-3c-0.5-0.6-1.5-0.9-3-0.9h-1.5V150.7z"/>
	<path class="st2" d="M124.8,164.1v-23.6h2.2l6.7,15.7v-15.7h2.7v23.6h-2.1l-6.8-16.1v16.1H124.8z"/>
	<path class="st2" d="M146.2,164.4c-1.6,0-2.9-0.3-3.8-0.9c-1-0.6-1.6-1.5-2-2.7s-0.6-2.5-0.6-4.1v-9c0-1.6,0.2-2.9,0.6-4
		s1.1-2,2-2.6c0.9-0.6,2.2-0.9,3.8-0.9s2.9,0.3,3.8,0.9c0.9,0.6,1.6,1.5,2,2.6s0.6,2.4,0.6,4v9c0,1.5-0.2,2.9-0.6,4s-1.1,2-2,2.7
		S147.8,164.4,146.2,164.4z M146.2,161.8c0.9,0,1.5-0.2,2-0.5c0.4-0.4,0.7-0.9,0.9-1.5s0.2-1.4,0.2-2.3v-10.4c0-0.9-0.1-1.6-0.2-2.3
		s-0.5-1.1-0.9-1.5c-0.4-0.3-1.1-0.5-2-0.5s-1.5,0.2-2,0.5c-0.5,0.3-0.8,0.8-0.9,1.5s-0.2,1.4-0.2,2.3v10.4c0,0.9,0.1,1.6,0.2,2.3
		s0.5,1.2,0.9,1.5C144.7,161.6,145.3,161.8,146.2,161.8z"/>
	<path class="st2" d="M159,164.1l-3.9-23.6h2.7l2.5,17l3.2-16.9h2.3l3.2,17l2.5-17.1h2.7l-3.8,23.6h-2.4l-3.3-17.5l-3.3,17.5H159z"
		/>
</g>
</svg>
