<?xml version="1.0" encoding="utf-8"?>
<!-- Generator: Adobe Illustrator 23.0.1, SVG Export Plug-In . SVG Version: 6.00 Build 0)  -->
<svg version="1.1" id="Layer_1" xmlns="http://www.w3.org/2000/svg" xmlns:xlink="http://www.w3.org/1999/xlink" x="0px" y="0px"
	 viewBox="0 0 800 800" style="enable-background:new 0 0 800 800;" xml:space="preserve">
<style type="text/css">
	.st0{fill:#00754A;}
	.st1{fill:#007853;}
	.st2{clip-path:url(#SVGID_2_);}
	.st3{fill:#777B7E;}
	.st4{fill:#F04E23;}
	.st5{fill:#ED1B2F;}
	.st6{fill:#AF1E23;}
	.st7{fill:#7C2E42;}
	.st8{fill:#F47920;}
	.st9{fill:#FAA61A;}
	.st10{fill:#FFC20E;}
	.st11{fill:#C49E69;}
	.st12{fill:#674026;}
	.st13{fill:#CACA8E;}
	.st14{fill:#C4CF2E;}
	.st15{fill:#7F7E32;}
	.st16{fill:#5F893C;}
	.st17{fill:#9CCD68;}
	.st18{fill:#2DA44A;}
	.st19{fill:#1F8258;}
	.st20{fill:#76D1F7;}
	.st21{fill:#149CCC;}
	.st22{fill:#0061A2;}
	.st23{fill:#1E3773;}
	.st24{fill:#C7AED3;}
	.st25{fill:#7682C0;}
	.st26{clip-path:url(#SVGID_4_);}
	.st27{fill:#007853;stroke:#007853;stroke-width:10;stroke-miterlimit:10;}
</style>
<g>
	<path class="st1" d="M693.1,133.6c15.6,0,28.6,13,28.6,28.6V634c0,15.6-13,28.6-28.6,28.6H192.6c-3.7,0-7.4-1.6-10.1-4.2
		L82.5,558.3c-2.7-2.6-4.2-6.3-4.2-10.1V162.2c0-15.6,13-28.6,28.6-28.6L693.1,133.6z M693.1,162.2H106.8v114.4h586.2V162.2z
		 M564.4,190.8c15.8,0,28.6,12.8,28.6,28.6S580.2,248,564.4,248c-15.8,0-28.6-12.8-28.6-28.6S548.6,190.8,564.4,190.8z M235.5,190.8
		c15.8,0,28.6,12.8,28.6,28.6S251.3,248,235.5,248s-28.6-12.8-28.6-28.6S219.7,190.8,235.5,190.8z M693.1,305.2H106.8v228.8h71.5
		c15.6,0,28.6,13,28.6,28.6V634h486.2V305.2z M628.7,355.2v100.1h-92.9V355.2H628.7z M507.2,355.2v100.1h-92.9V355.2H507.2z
		 M385.7,355.2v100.1h-92.9V355.2H385.7z M264.1,355.2v100.1h-92.9V355.2H264.1z M628.7,483.9V584h-92.9V483.9H628.7z M507.2,483.9
		V584h-92.9V483.9H507.2z M385.7,483.9V584h-92.9V483.9H385.7z M178.3,562.5h-51.2l51.2,51.2V562.5z"/>
</g>
</svg>
