<?xml version="1.0" encoding="utf-8"?>
<!-- Generator: Adobe Illustrator 23.0.1, SVG Export Plug-In . SVG Version: 6.00 Build 0)  -->
<svg version="1.1" id="Layer_1" xmlns="http://www.w3.org/2000/svg" xmlns:xlink="http://www.w3.org/1999/xlink" x="0px" y="0px"
	 viewBox="0 0 800 800" style="enable-background:new 0 0 800 800;" xml:space="preserve">
<style type="text/css">
	.st0{fill:#00754A;}
	.st1{fill:#007853;}
	.st2{clip-path:url(#SVGID_2_);}
	.st3{fill:#777B7E;}
	.st4{fill:#F04E23;}
	.st5{fill:#ED1B2F;}
	.st6{fill:#AF1E23;}
	.st7{fill:#7C2E42;}
	.st8{fill:#F47920;}
	.st9{fill:#FAA61A;}
	.st10{fill:#FFC20E;}
	.st11{fill:#C49E69;}
	.st12{fill:#674026;}
	.st13{fill:#CACA8E;}
	.st14{fill:#C4CF2E;}
	.st15{fill:#7F7E32;}
	.st16{fill:#5F893C;}
	.st17{fill:#9CCD68;}
	.st18{fill:#2DA44A;}
	.st19{fill:#1F8258;}
	.st20{fill:#76D1F7;}
	.st21{fill:#149CCC;}
	.st22{fill:#0061A2;}
	.st23{fill:#1E3773;}
	.st24{fill:#C7AED3;}
	.st25{fill:#7682C0;}
	.st26{clip-path:url(#SVGID_4_);}
	.st27{fill:#007853;stroke:#007853;stroke-width:10;stroke-miterlimit:10;}
</style>
<g>
	<g>
		<defs>
			<path id="SVGID_1_" d="M706.5-415.7c13.5-55.1,1.3-107.2-34.3-147.2c-38.1-42.4-99.4-65.1-155.9-57.7
				c-38.2,5-72.1,21.7-96.5,45.6c-13.6-31.3-38.9-59.2-72.5-78.1c-50-27.8-115.2-29.6-166.2-4.3c-47.9,23.8-78.6,67.8-86.6,124.3
				c-11.1,91.6,94.8,232,195,356.4c15,18.6,38.9,49.8,47.1,60.8c10.1-6.2,39-22.7,55.6-32.4C531.5-229.4,682-323.6,706.5-415.7
				L706.5-415.7z M721.1-605c47.7,52.6,64.3,121,46.6,192.5C737.4-299,573.4-197.1,408.1-102.3l-20.3,11.5
				c-15.6,8.8-32.2,18.3-39.6,22.8l-28.9,17.4L299-77.5c-9.4-12.2-35-45.1-50.7-64.5C128.6-288.4,12.9-440.7,26.5-553.8
				c10.4-74,51-131.5,114.8-162.7c44.4-21.7,96.7-28.3,147.8-18.5c24.3,4.7,47.1,12.9,67.9,24.4c28.6,15.9,53.2,37.2,71.8,61.8
				c26.8-16.1,57.4-26.8,89.7-30.7c23.5-3,47.6-2.1,71.8,2.6C641.3-667.1,687.6-641.7,721.1-605L721.1-605z"/>
		</defs>
		<clipPath id="SVGID_2_">
			<use xlink:href="#SVGID_1_"  style="overflow:visible;"/>
		</clipPath>
		<g class="st2">
			
				<rect x="498.1" y="-117.9" transform="matrix(0.1889 -0.982 0.982 0.1889 510.2551 493.2531)" class="st24" width="111.3" height="111.3"/>
			
				<rect x="607.1" y="-96.9" transform="matrix(0.1889 -0.982 0.982 0.1889 578.0795 617.3061)" class="st25" width="111.3" height="111.3"/>
			<rect x="716.1" y="-76" transform="matrix(0.1889 -0.982 0.982 0.1889 645.8994 741.3506)" width="111.3" height="111.3"/>
		</g>
	</g>
	<g>
		<defs>
			<path id="SVGID_3_" d="M637.9-532.2c18,20,36.6,54.4,24.2,105.1c-21.5,81.1-204.9,187.9-293,239.2c-7.4,4.2-14.2,8.2-20.3,11.8
				c-6.9-8.7-14.8-18.6-23.5-29.3C262.1-283.9,130.4-447.3,140-527.1c7.4-52.2,37.4-77.2,61.4-89.1c37.9-18.7,86.4-17.5,123.4,3.2
				c38.3,21.4,81.8,106.7,81.8,106.7s72.3-63.1,115.6-68.7C564.3-580.5,609.7-563.7,637.9-532.2L637.9-532.2z"/>
		</defs>
		<clipPath id="SVGID_4_">
			<use xlink:href="#SVGID_3_"  style="overflow:visible;"/>
		</clipPath>
		<g class="st26">
			
				<rect x="498.1" y="-117.9" transform="matrix(0.1889 -0.982 0.982 0.1889 510.2551 493.2531)" class="st24" width="111.3" height="111.3"/>
			
				<rect x="607.1" y="-96.9" transform="matrix(0.1889 -0.982 0.982 0.1889 578.0795 617.3061)" class="st25" width="111.3" height="111.3"/>
			<rect x="716.1" y="-76" transform="matrix(0.1889 -0.982 0.982 0.1889 645.8994 741.3506)" width="111.3" height="111.3"/>
		</g>
	</g>
</g>
<g>
	<g>
		<path class="st1" d="M427.6,451.4c-43.3,0-84.8-17.2-115.4-47.8c-30.6-30.6-47.8-72.1-47.8-115.4c0-43.3,17.2-84.8,47.8-115.4
			c30.6-30.6,72.1-47.8,115.4-47.8c43.3,0,84.8,17.2,115.4,47.8c30.6,30.6,47.8,72.1,47.8,115.4c0,43.2-17.2,84.7-47.8,115.4
			C512.4,434.1,470.9,451.3,427.6,451.4L427.6,451.4z M427.6,148.6L427.6,148.6c-37,0-72.6,14.7-98.8,40.9
			c-26.2,26.2-40.9,61.7-40.9,98.8c0,37.1,14.7,72.6,40.9,98.8c26.2,26.2,61.7,40.9,98.8,40.9c37.1,0,72.6-14.7,98.8-40.9
			c26.2-26.2,40.9-61.7,40.9-98.8c-0.1-37-14.8-72.5-41-98.7C500.1,163.3,464.6,148.6,427.6,148.6L427.6,148.6z"/>
		<path class="st1" d="M685.1,494.3c-13.7-16.4-37.1-20.9-55.9-10.7l-12.9-15.7h0c-11.7-13.7-31.6-16.6-46.7-6.9l-12.7,8.4l-7.6-9.1
			c-11.6-13.7-31.6-16.6-46.7-6.9l-86,56L321,470.1h0c-30.1-12.3-64.6-7.4-90,12.9l-121.9,96.9c-2.7,1.9-4.4,4.8-4.9,8
			c-0.5,3.2,0.4,6.5,2.5,9c2,2.5,5,4.1,8.2,4.4c3.2,0.3,6.4-0.8,8.8-3l121.9-96.9h0c18.9-15,44.4-18.7,66.8-9.5L481.4,561h0
			c10.7,4.8,15.7,17.2,11.3,28c-4.4,10.9-16.5,16.3-27.6,12.4l-114.3-44.6c-2.9-1.4-6.3-1.4-9.3-0.2c-3,1.2-5.4,3.6-6.5,6.6
			c-1.2,3-1.1,6.4,0.3,9.3c1.4,2.9,3.9,5.1,7,6.2l114,44.9c5.3,2.1,10.9,3.1,16.6,3.1c24.2,0,44.2-19,45.4-43.3l1.3-0.7l119.1-77.7
			c9.8-6.1,22.8-3.4,29.3,6.2c6.5,9.6,4.3,22.6-5,29.5L501.5,655.2c-20.7,14.8-47.1,19.3-71.5,12.3l-136.2-38.4
			c-25.1-7.1-52-1.5-72.2,15l-36.7,30.1h0c-3.8,3.2-5.2,8.4-3.5,13c1.6,4.7,6,7.7,11,7.8c2.7,0,5.3-0.9,7.4-2.6l37.1-29.8
			C251,651,270,647.1,287.7,652l135.8,38.3c31.3,8.8,64.9,3,91.3-15.9L676.5,560c10.3-7.2,17.1-18.5,18.7-31
			C696.8,516.5,693.1,504,685.1,494.3L685.1,494.3z M514.9,473.1c5.2-3.3,12-2.3,16,2.4l5.8,6.9l-71.4,47l-22.4-9.2L514.9,473.1z
			 M512.3,559.4L512.3,559.4c-4.7-8.4-12-15.1-20.8-19.1l90.6-59.6c5.2-3.3,12-2.3,16,2.4l10.9,13.4L512.3,559.4z"/>
		<path class="st1" d="M429.1,237.6c11.5,0.4,22.9,2,34,4.8c6.3,1.7,12.8-2,14.5-8.2c1.7-6.3-2-12.7-8.2-14.5
			c-9.4-2.4-18.9-4.1-28.5-5.1v-16c0-6.5-5.2-11.8-11.8-11.8c-6.5,0-11.8,5.3-11.8,11.8v16.1c-31.6,4.3-35.4,25.8-35.4,35.6
			c0,24.5,25.2,34.6,40.3,41l2.9,1.2l4.4,1.8c15.2,6,21.9,9.8,21.9,20.8s-7.3,16.3-21.7,16.9h-2.5v0c-13.5-1.2-26.7-4.4-39.3-9.5
			c-2.9-1.3-6.3-1.3-9.2-0.1c-3,1.2-5.3,3.6-6.5,6.6c-1.1,3-1,6.3,0.4,9.2c1.4,2.9,3.9,5.1,6.9,6.1c12.2,4.7,24.9,8,37.8,10.1v15.8
			c0,6.5,5.3,11.8,11.8,11.8c6.5,0,11.8-5.3,11.8-11.8v-16.4c21.4-4.2,34.1-18.3,34.1-39.3c0-27.7-23-36.8-36.7-42.3l-6.9-2.9
			c-10.8-4.4-25.7-10.5-25.7-19.2C405.5,246.3,405.5,237.6,429.1,237.6L429.1,237.6z"/>
	</g>
</g>
</svg>
