<?xml version="1.0" encoding="utf-8"?>
<!-- Generator: Adobe Illustrator 23.0.1, SVG Export Plug-In . SVG Version: 6.00 Build 0)  -->
<svg version="1.1" id="Layer_1" xmlns="http://www.w3.org/2000/svg" xmlns:xlink="http://www.w3.org/1999/xlink" x="0px" y="0px"
	 viewBox="0 0 800 800" style="enable-background:new 0 0 800 800;" xml:space="preserve">
<style type="text/css">
	.st0{fill:#00754A;}
	.st1{fill:#007853;}
	.st2{clip-path:url(#SVGID_2_);}
	.st3{fill:#777B7E;}
	.st4{fill:#F04E23;}
	.st5{fill:#ED1B2F;}
	.st6{fill:#AF1E23;}
	.st7{fill:#7C2E42;}
	.st8{fill:#F47920;}
	.st9{fill:#FAA61A;}
	.st10{fill:#FFC20E;}
	.st11{fill:#C49E69;}
	.st12{fill:#674026;}
	.st13{fill:#CACA8E;}
	.st14{fill:#C4CF2E;}
	.st15{fill:#7F7E32;}
	.st16{fill:#5F893C;}
	.st17{fill:#9CCD68;}
	.st18{fill:#2DA44A;}
	.st19{fill:#1F8258;}
	.st20{fill:#76D1F7;}
	.st21{fill:#149CCC;}
	.st22{fill:#0061A2;}
	.st23{fill:#1E3773;}
	.st24{fill:#C7AED3;}
	.st25{fill:#7682C0;}
	.st26{clip-path:url(#SVGID_4_);}
	.st27{fill:#007853;stroke:#007853;stroke-width:10;stroke-miterlimit:10;}
</style>
<g>
	<path class="st1" d="M400,95.5c-108.1,0-198.3,82-198.3,198.3c0,44.1,17.1,96.1,35.4,130.3l144,269.1c3.7,7,10.9,11.4,18.8,11.4
		s15.1-4.4,18.8-11.4l144-269.1c18.3-34.2,35.4-86.2,35.4-130.3C598.3,177.5,508.1,95.5,400,95.5L400,95.5z M400,138
		c87.4,0,155.8,60.8,155.8,155.8c0,31.9-15.8,83.2-30.3,110.2L400,637.8L274.5,404c-14.5-27-30.3-78.2-30.3-110.2
		C244.2,198.8,312.6,138,400,138L400,138z M400,194.6c-54.5,0-99.1,44.6-99.1,99.1s44.6,99.1,99.1,99.1s99.1-44.6,99.1-99.1
		S454.5,194.6,400,194.6z M400,237.1c31.5,0,56.6,25.1,56.6,56.6s-25.1,56.6-56.6,56.6s-56.6-25.1-56.6-56.6S368.5,237.1,400,237.1z
		"/>
</g>
</svg>
