<?xml version="1.0" encoding="utf-8"?>
<!-- Generator: Adobe Illustrator 23.0.1, SVG Export Plug-In . SVG Version: 6.00 Build 0)  -->
<svg version="1.1" id="Layer_1" xmlns="http://www.w3.org/2000/svg" xmlns:xlink="http://www.w3.org/1999/xlink" x="0px" y="0px"
	 viewBox="0 0 100 100" style="enable-background:new 0 0 100 100;" xml:space="preserve">
<style type="text/css">
	.st0{fill:#007853;}
</style>
<g>
	<path class="st0" d="M79.2,49.1c-0.3-1.2-1.1-2.2-2.2-2.6c-2.6,5.1-5.2,10.1-5.4,10.5c-1,2-3,3.3-5.3,3.3c-2.3,0-4.3-1.2-5.3-3.3
		L55.4,46l-31.8,0c-0.6,0-1.3,0.2-1.9,0.5l63.7,29.9L79.2,49.1z"/>
	<path class="st0" d="M19.6,49.7l-7,30.5c-0.2,1.2,0,2.4,0.8,3.3c0.8,0.9,1.9,1.5,3.1,1.5h6.3l13-27.8L19.6,49.7z"/>
	<path class="st0" d="M39.3,58.9L27,85h19.8L63,70.1L39.3,58.9z"/>
	<path class="st0" d="M66.8,71.9L52.6,85h29.9c1.2,0,2.3-0.5,3.1-1.5c0.5-0.7,0.9-1.5,0.9-2.3L66.8,71.9z"/>
	<path class="st0" d="M64.6,55.1c0.7,1.5,2.9,1.5,3.6,0c0,0,8.5-16.5,10.4-20.4c1.9-3.9,2-8.2,0-12.3c-3.4-6.7-11.6-9.4-18.4-6
		c-6.8,3.4-9.3,11.8-6.1,18.3C57.5,41.2,64.6,55.1,64.6,55.1L64.6,55.1z M66.4,22.4c3.6,0,6.5,2.9,6.5,6.5s-2.9,6.5-6.5,6.5
		c-3.6,0-6.5-2.9-6.5-6.5C59.9,25.3,62.8,22.4,66.4,22.4z"/>
</g>
</svg>
