<?xml version="1.0" encoding="utf-8"?>
<!-- Generator: Adobe Illustrator 24.1.3, SVG Export Plug-In . SVG Version: 6.00 Build 0)  -->
<svg version="1.1" id="Layer_1" xmlns="http://www.w3.org/2000/svg" xmlns:xlink="http://www.w3.org/1999/xlink" x="0px" y="0px"
	 viewBox="0 0 100 100" style="enable-background:new 0 0 100 100;" xml:space="preserve">
<style type="text/css">
	.st0{fill:#0B8261;}
</style>
<g>
	<path class="st0" d="M33.3,47.1H22.9c-0.9,0-1.7-0.7-1.7-1.7v-9c0-0.9,0.7-1.7,1.7-1.7h10.4c0.9,0,1.7,0.7,1.7,1.7v9
		C35,46.3,34.3,47.1,33.3,47.1z M24.6,43.8h7.1v-5.7h-7.1V43.8z"/>
	<path class="st0" d="M47.9,47.1H37.5c-0.9,0-1.7-0.7-1.7-1.7v-9c0-0.9,0.7-1.7,1.7-1.7h10.4c0.9,0,1.7,0.7,1.7,1.7v9
		C49.6,46.3,48.8,47.1,47.9,47.1z M39.2,43.8h7.1v-5.7h-7.1V43.8z"/>
	<path class="st0" d="M62.5,47.1H52.1c-0.9,0-1.7-0.7-1.7-1.7v-9c0-0.9,0.7-1.7,1.7-1.7h10.4c0.9,0,1.7,0.7,1.7,1.7v9
		C64.2,46.3,63.4,47.1,62.5,47.1z M53.7,43.8h7.1v-5.7h-7.1V43.8z"/>
	<path class="st0" d="M77.1,47.1H66.7c-0.9,0-1.7-0.7-1.7-1.7v-9c0-0.9,0.7-1.7,1.7-1.7h10.4c0.9,0,1.7,0.7,1.7,1.7v9
		C78.7,46.3,78,47.1,77.1,47.1z M68.3,43.8h7.1v-5.7h-7.1V43.8z"/>
	<path class="st0" d="M33.3,60.9H22.9c-0.9,0-1.7-0.7-1.7-1.7v-9c0-0.9,0.7-1.7,1.7-1.7h10.4c0.9,0,1.7,0.7,1.7,1.7v9
		C35,60.1,34.3,60.9,33.3,60.9z M24.6,57.6h7.1v-5.7h-7.1V57.6z"/>
	<path class="st0" d="M47.9,60.9H37.5c-0.9,0-1.7-0.7-1.7-1.7v-9c0-0.9,0.7-1.7,1.7-1.7h10.4c0.9,0,1.7,0.7,1.7,1.7v9
		C49.6,60.1,48.8,60.9,47.9,60.9z M39.2,57.6h7.1v-5.7h-7.1V57.6z"/>
	<path class="st0" d="M62.5,60.9H52.1c-0.9,0-1.7-0.7-1.7-1.7v-9c0-0.9,0.7-1.7,1.7-1.7h10.4c0.9,0,1.7,0.7,1.7,1.7v9
		C64.2,60.1,63.4,60.9,62.5,60.9z M53.7,57.6h7.1v-5.7h-7.1V57.6z"/>
	<path class="st0" d="M77.1,60.9H66.7c-0.9,0-1.7-0.7-1.7-1.7v-9c0-0.9,0.7-1.7,1.7-1.7h10.4c0.9,0,1.7,0.7,1.7,1.7v9
		C78.7,60.1,78,60.9,77.1,60.9z M68.3,57.6h7.1v-5.7h-7.1V57.6z"/>
	<path class="st0" d="M33.3,74.7H22.9c-0.9,0-1.7-0.7-1.7-1.7v-9c0-0.9,0.7-1.7,1.7-1.7h10.4c0.9,0,1.7,0.7,1.7,1.7v9
		C35,73.9,34.3,74.7,33.3,74.7z M24.6,71.4h7.1v-5.7h-7.1V71.4z"/>
	<path class="st0" d="M47.9,74.7H37.5c-0.9,0-1.7-0.7-1.7-1.7v-9c0-0.9,0.7-1.7,1.7-1.7h10.4c0.9,0,1.7,0.7,1.7,1.7v9
		C49.6,73.9,48.8,74.7,47.9,74.7z M39.2,71.4h7.1v-5.7h-7.1V71.4z"/>
	<path class="st0" d="M62.5,74.7H52.1c-0.9,0-1.7-0.7-1.7-1.7v-9c0-0.9,0.7-1.7,1.7-1.7h10.4c0.9,0,1.7,0.7,1.7,1.7v9
		C64.2,73.9,63.4,74.7,62.5,74.7z M53.7,71.4h7.1v-5.7h-7.1V71.4z"/>
	<path class="st0" d="M77.1,88.5H66.7c-0.9,0-1.7-0.7-1.7-1.7L65,64c0-0.9,0.7-1.7,1.7-1.7h10.4c0.9,0,1.7,0.7,1.7,1.7v22.8
		C78.7,87.7,78,88.5,77.1,88.5L77.1,88.5z M68.3,85.2h7.1V65.7h-7.1V85.2z"/>
	<path class="st0" d="M33.3,88.5H22.9c-0.9,0-1.7-0.7-1.7-1.7v-9c0-0.9,0.7-1.7,1.7-1.7h10.4c0.9,0,1.7,0.7,1.7,1.7v9
		C35,87.7,34.3,88.5,33.3,88.5z M24.6,85.2h7.1v-5.7h-7.1V85.2z"/>
	<path class="st0" d="M47.9,88.5H37.5c-0.9,0-1.7-0.7-1.7-1.7v-9c0-0.9,0.7-1.7,1.7-1.7h10.4c0.9,0,1.7,0.7,1.7,1.7v9
		C49.6,87.7,48.8,88.5,47.9,88.5z M39.2,85.2h7.1v-5.7h-7.1V85.2z"/>
	<path class="st0" d="M62.5,88.5H52.1c-0.9,0-1.7-0.7-1.7-1.7v-9c0-0.9,0.7-1.7,1.7-1.7h10.4c0.9,0,1.7,0.7,1.7,1.7v9
		C64.2,87.7,63.4,88.5,62.5,88.5z M53.7,85.2h7.1v-5.7h-7.1V85.2z"/>
	<path class="st0" d="M84.2,96H15.8c-0.9,0-1.7-0.7-1.7-1.7V5.6c0-0.9,0.7-1.7,1.7-1.7h68.4c0.9,0,1.7,0.7,1.7,1.7v88.8
		C85.9,95.3,85.1,96,84.2,96z M17.4,92.7h65.1V7.3H17.4V92.7z"/>
	<path class="st0" d="M77.1,31.9H22.9c-0.9,0-1.7-0.7-1.7-1.7l0-12.3c0-0.9,0.7-1.7,1.7-1.7h54.2c0.9,0,1.7,0.7,1.7,1.7v12.3
		C78.7,31.2,78,31.9,77.1,31.9L77.1,31.9z M24.6,28.6h50.8v-9H24.6V28.6z"/>
	<path class="st0" d="M77.1,13.9h-7c-0.9,0-1.7-0.7-1.7-1.7c0-0.9,0.7-1.7,1.7-1.7h7c0.9,0,1.7,0.7,1.7,1.7
		C78.7,13.1,78,13.9,77.1,13.9z"/>
	<path class="st0" d="M72.5,25.7h-45c-0.9,0-1.7-0.7-1.7-1.7c0-0.9,0.7-1.7,1.7-1.7h45c0.9,0,1.7,0.7,1.7,1.7
		C74.2,25,73.4,25.7,72.5,25.7z"/>
</g>
</svg>
