<?xml version="1.0" encoding="utf-8"?>
<!-- Generator: Adobe Illustrator 23.0.1, SVG Export Plug-In . SVG Version: 6.00 Build 0)  -->
<svg version="1.1" id="Layer_1" xmlns="http://www.w3.org/2000/svg" xmlns:xlink="http://www.w3.org/1999/xlink" x="0px" y="0px"
	 viewBox="0 0 800 800" style="enable-background:new 0 0 800 800;" xml:space="preserve">
<style type="text/css">
	.st0{fill:#00754A;}
	.st1{fill:#007853;}
	.st2{clip-path:url(#SVGID_2_);}
	.st3{fill:#777B7E;}
	.st4{fill:#F04E23;}
	.st5{fill:#ED1B2F;}
	.st6{fill:#AF1E23;}
	.st7{fill:#7C2E42;}
	.st8{fill:#F47920;}
	.st9{fill:#FAA61A;}
	.st10{fill:#FFC20E;}
	.st11{fill:#C49E69;}
	.st12{fill:#674026;}
	.st13{fill:#CACA8E;}
	.st14{fill:#C4CF2E;}
	.st15{fill:#7F7E32;}
	.st16{fill:#5F893C;}
	.st17{fill:#9CCD68;}
	.st18{fill:#2DA44A;}
	.st19{fill:#1F8258;}
	.st20{fill:#76D1F7;}
	.st21{fill:#149CCC;}
	.st22{fill:#0061A2;}
	.st23{fill:#1E3773;}
	.st24{fill:#C7AED3;}
	.st25{fill:#7682C0;}
	.st26{clip-path:url(#SVGID_4_);}
	.st27{fill:#007853;stroke:#007853;stroke-width:10;stroke-miterlimit:10;}
</style>
<g>
	<g>
		<path class="st1" d="M301.6,501.8v37.4v0c0,3.6,1.4,7,4,9.6c2.5,2.5,6,4,9.6,4h214.2c3.6,0,7-1.4,9.6-4c2.5-2.5,4-6,4-9.6v-37.3
			c-0.2-52.7-42.9-95.2-95.5-95.2h-3.4c31.6-10.6,50.9-42.6,45.5-75.5c-5.4-32.9-33.8-57.1-67.2-57.1S360.4,298.1,355,331
			c-5.4,32.9,13.9,64.9,45.5,75.5H397C344.4,406.6,301.8,449.2,301.6,501.8L301.6,501.8z M381.1,342c0-16.6,10-31.6,25.4-37.9
			c15.4-6.4,33-2.8,44.7,8.9s15.3,29.4,8.9,44.7c-6.4,15.4-21.3,25.4-37.9,25.4C399.5,383,381.1,364.7,381.1,342z M515.8,501.8v23.8
			l-187.1,0v-23.8c0.1-37.7,30.7-68.2,68.4-68.2h50.3C485,433.5,515.7,464,515.8,501.8L515.8,501.8z"/>
		<path class="st1" d="M185.8,352.5h27v121.6h-27V352.5z"/>
		<path class="st1" d="M658.5,217.5c0-44.8-36.3-81-81-81H226.3c-22.4,0-40.5,18.2-40.5,40.5v74.3h27v-74.3c0-7.5,6-13.5,13.5-13.5
			h351.2c14.3,0,28.1,5.7,38.2,15.8c10.1,10.1,15.8,23.9,15.8,38.2v391.7c0,14.3-5.7,28.1-15.8,38.2c-10.1,10.1-23.9,15.8-38.2,15.8
			H226.3c-7.5,0-13.5-6-13.5-13.5v-74.3h-27v74.3c0,22.4,18.1,40.5,40.5,40.5h351.2c44.7,0,81-36.3,81-81V217.5z"/>
		<path class="st1" d="M141.5,523.3c0,3.6,1.4,7,4,9.6c2.5,2.5,6,4,9.6,4h91.2c7.5,0,13.5-6,13.5-13.5c0-7.5-6-13.5-13.5-13.5H155
			C147.5,509.8,141.5,515.8,141.5,523.3L141.5,523.3z"/>
		<path class="st1" d="M141.5,303.3c0,3.6,1.4,7,4,9.6s6,4,9.6,4h84.4c7.5,0,13.5-6,13.5-13.5c0-7.5-6-13.5-13.5-13.5H155
			C147.5,289.8,141.5,295.8,141.5,303.3L141.5,303.3z"/>
	</g>
</g>
<g>
	<g>
		<defs>
			<path id="SVGID_1_" d="M1526.5,404.3c13.5-55.1,1.3-107.2-34.3-147.2c-38.1-42.4-99.4-65.1-155.9-57.7
				c-38.2,5-72.1,21.7-96.5,45.6c-13.6-31.3-38.9-59.2-72.5-78.1c-50-27.8-115.2-29.6-166.2-4.3c-47.9,23.8-78.6,67.8-86.6,124.3
				c-11.1,91.6,94.8,232,195,356.4c15,18.6,38.9,49.8,47.1,60.8c10.1-6.2,39-22.7,55.6-32.4C1351.5,590.6,1502,496.4,1526.5,404.3
				L1526.5,404.3z M1541.1,215c47.7,52.6,64.3,121,46.6,192.5c-30.3,113.5-194.3,215.5-359.6,310.2l-20.3,11.5
				c-15.6,8.8-32.2,18.3-39.6,22.8l-28.9,17.4l-20.4-26.8c-9.4-12.2-35-45.1-50.7-64.5C948.6,531.6,832.9,379.3,846.5,266.2
				c10.4-74,51-131.5,114.8-162.7c44.4-21.7,96.7-28.3,147.8-18.5c24.3,4.7,47.1,12.9,67.9,24.4c28.6,15.9,53.2,37.2,71.8,61.8
				c26.8-16.1,57.4-26.8,89.7-30.7c23.5-3,47.6-2.1,71.8,2.6C1461.3,152.9,1507.6,178.3,1541.1,215L1541.1,215z"/>
		</defs>
		<clipPath id="SVGID_2_">
			<use xlink:href="#SVGID_1_"  style="overflow:visible;"/>
		</clipPath>
		<g class="st2">
			
				<rect x="793.8" y="488.2" transform="matrix(0.1889 -0.982 0.982 0.1889 154.8982 1275.2362)" class="st19" width="111.3" height="111.3"/>
			
				<rect x="772.8" y="597.2" transform="matrix(0.1889 -0.982 0.982 0.1889 30.8505 1343.0579)" class="st23" width="111.3" height="111.3"/>
		</g>
	</g>
	<g>
		<defs>
			<path id="SVGID_3_" d="M1457.9,287.8c18,20,36.6,54.4,24.2,105.1c-21.5,81.1-204.9,187.9-293,239.2c-7.4,4.2-14.2,8.2-20.3,11.8
				c-6.9-8.7-14.8-18.6-23.5-29.3c-63.3-78.5-194.9-241.9-185.3-321.7c7.4-52.2,37.4-77.2,61.4-89.1c37.9-18.7,86.4-17.5,123.4,3.2
				c38.3,21.4,81.8,106.7,81.8,106.7s72.3-63.1,115.6-68.7C1384.3,239.5,1429.7,256.3,1457.9,287.8L1457.9,287.8z"/>
		</defs>
		<clipPath id="SVGID_4_">
			<use xlink:href="#SVGID_3_"  style="overflow:visible;"/>
		</clipPath>
		<g class="st26">
			
				<rect x="793.8" y="488.2" transform="matrix(0.1889 -0.982 0.982 0.1889 154.8982 1275.2362)" class="st19" width="111.3" height="111.3"/>
			
				<rect x="772.8" y="597.2" transform="matrix(0.1889 -0.982 0.982 0.1889 30.8505 1343.0579)" class="st23" width="111.3" height="111.3"/>
		</g>
	</g>
</g>
</svg>
