<?xml version="1.0" encoding="utf-8"?>
<!-- Generator: Adobe Illustrator 23.0.1, SVG Export Plug-In . SVG Version: 6.00 Build 0)  -->
<svg version="1.1" id="Layer_1" xmlns="http://www.w3.org/2000/svg" xmlns:xlink="http://www.w3.org/1999/xlink" x="0px" y="0px"
	 viewBox="0 0 800 800" style="enable-background:new 0 0 800 800;" xml:space="preserve">
<style type="text/css">
	.st0{fill:#00754A;}
	.st1{fill:#007853;}
	.st2{clip-path:url(#SVGID_2_);}
	.st3{fill:#777B7E;}
	.st4{fill:#F04E23;}
	.st5{fill:#ED1B2F;}
	.st6{fill:#AF1E23;}
	.st7{fill:#7C2E42;}
	.st8{fill:#F47920;}
	.st9{fill:#FAA61A;}
	.st10{fill:#FFC20E;}
	.st11{fill:#C49E69;}
	.st12{fill:#674026;}
	.st13{fill:#CACA8E;}
	.st14{fill:#C4CF2E;}
	.st15{fill:#7F7E32;}
	.st16{fill:#5F893C;}
	.st17{fill:#9CCD68;}
	.st18{fill:#2DA44A;}
	.st19{fill:#1F8258;}
	.st20{fill:#76D1F7;}
	.st21{fill:#149CCC;}
	.st22{fill:#0061A2;}
	.st23{fill:#1E3773;}
	.st24{fill:#C7AED3;}
	.st25{fill:#7682C0;}
	.st26{clip-path:url(#SVGID_4_);}
	.st27{fill:#007853;stroke:#007853;stroke-width:10;stroke-miterlimit:10;}
</style>
<g>
	<g>
		<defs>
			<path id="SVGID_1_" d="M1526.5-415.7c13.5-55.1,1.3-107.2-34.3-147.2c-38.1-42.4-99.4-65.1-155.9-57.7
				c-38.2,5-72.1,21.7-96.5,45.6c-13.6-31.3-38.9-59.2-72.5-78.1c-50-27.8-115.2-29.6-166.2-4.3c-47.9,23.8-78.6,67.8-86.6,124.3
				c-11.1,91.6,94.8,232,195,356.4c15,18.6,38.9,49.8,47.1,60.8c10.1-6.2,39-22.7,55.6-32.4C1351.5-229.4,1502-323.6,1526.5-415.7
				L1526.5-415.7z M1541.1-605c47.7,52.6,64.3,121,46.6,192.5c-30.3,113.5-194.3,215.5-359.6,310.2l-20.3,11.5
				c-15.6,8.8-32.2,18.3-39.6,22.8l-28.9,17.4L1119-77.5c-9.4-12.2-35-45.1-50.7-64.5C948.6-288.4,832.9-440.7,846.5-553.8
				c10.4-74,51-131.5,114.8-162.7c44.4-21.7,96.7-28.3,147.8-18.5c24.3,4.7,47.1,12.9,67.9,24.4c28.6,15.9,53.2,37.2,71.8,61.8
				c26.8-16.1,57.4-26.8,89.7-30.7c23.5-3,47.6-2.1,71.8,2.6C1461.3-667.1,1507.6-641.7,1541.1-605L1541.1-605z"/>
		</defs>
		<clipPath id="SVGID_2_">
			<use xlink:href="#SVGID_1_"  style="overflow:visible;"/>
		</clipPath>
	</g>
	<g>
		<defs>
			<path id="SVGID_3_" d="M1457.9-532.2c18,20,36.6,54.4,24.2,105.1c-21.5,81.1-204.9,187.9-293,239.2c-7.4,4.2-14.2,8.2-20.3,11.8
				c-6.9-8.7-14.8-18.6-23.5-29.3c-63.3-78.5-194.9-241.9-185.3-321.7c7.4-52.2,37.4-77.2,61.4-89.1c37.9-18.7,86.4-17.5,123.4,3.2
				c38.3,21.4,81.8,106.7,81.8,106.7s72.3-63.1,115.6-68.7C1384.3-580.5,1429.7-563.7,1457.9-532.2L1457.9-532.2z"/>
		</defs>
		<clipPath id="SVGID_4_">
			<use xlink:href="#SVGID_3_"  style="overflow:visible;"/>
		</clipPath>
	</g>
</g>
<g>
	<path class="st1" d="M231.1,438.3c28.8,0,54.2-15,68.8-37.6l170-3.3c3.9-0.1,7-3.3,6.9-7.2l-1.2-64.1l16.5-3.3
		c1.8-0.4,3.4-1.5,4.5-3c1-1.5,1.4-3.5,1-5.3l-11.7-58.2l16.4-7.8c1.7-0.8,3-2.2,3.6-4c0.6-1.8,0.5-3.7-0.3-5.4l-62.4-131.7
		c-1.7-3.5-5.9-5-9.4-3.4L193.4,218.2c-3.5,1.7-5,5.9-3.4,9.4l7.5,15.7l0.1,0.4c-2.2,1.2-3.8,3.5-3.7,6.3l0.6,33
		c-26.9,13.5-45.5,41.3-45.5,73.4C149,401.4,185.8,438.3,231.1,438.3L231.1,438.3z M268.1,283.1l145.3-2.8
		c2.7,9.5,10.4,16.9,20,19.2l0.7,37.3c-9.5,2.7-16.9,10.4-19.2,20l-101.9,2c0-0.9,0.1-1.7,0.1-2.5
		C313.1,324.3,294.8,296.7,268.1,283.1L268.1,283.1z M454.1,237.9l-2.7-13.6c-0.4-1.8-1.5-3.4-3-4.5c-1.6-1-3.4-1.4-5.3-1
		c-7.2,1.4-14.4-3.3-15.8-10.5c-0.8-3.8-4.6-6.3-8.3-5.5L252.3,236c-1.8,0.4-3.4,1.5-4.5,3c-0.6,0.9-0.9,1.8-1,2.8l-34,0.7l-1.8-3.7
		l-1.6-7.9l247.1-49.5l11.3,56.4c-0.3,0-0.5-0.2-0.8-0.2h-0.1L454.1,237.9z M439.7,238.1l-139.4,2.7l115.3-23.1
		c4.4,8.9,13.2,14.7,23,15.3L439.7,238.1z M356.2,187.1l46.5-22c3.1,3.7,7.1,6.5,11.8,8.2c1.7,0.6,3.5,0.9,5.3,1.1L356.2,187.1z
		 M475.3,311.9l-0.8-40.4l7.8,39L475.3,311.9z M483.1,242.1l-6.1-30.7l13,27.5L483.1,242.1z M455.9,167.1l-13.7,2.7l-3.4-7.1
		c-1.7-3.5-5.9-5-9.4-3.4c-6.7,3.1-14.7,0.3-17.9-6.4c-0.8-1.7-2.3-3-4-3.6c-1.8-0.6-3.7-0.5-5.4,0.3l-99.2,47
		c-0.7,0.4-1.3,0.9-1.9,1.4l-56.4,11.3l188.8-89.5L455.9,167.1z M208.2,256.7l252-4.8l2.5,131.6l-155.4,3c1.7-4.4,3.2-8.9,4.1-13.6
		l109.9-2.1c1.9,0,3.7-0.8,4.9-2.1c1.3-1.3,2-3.1,2-5c-0.2-7.4,5.8-13.5,13.2-13.7c3.9-0.1,7-3.3,6.9-7.2l-0.9-49.6
		c-0.1-3.8-3.2-6.9-7-6.9h-0.4c-7.3,0-13.3-5.9-13.4-13.2c-0.1-3.9-3.2-6.9-7-6.9h-0.1l-169.8,3.2c-1.9,0-3.7,0.8-4.9,2.2
		c-0.9,1-1.5,2.3-1.7,3.6c-3.9-0.6-7.7-0.9-11.7-0.9c-7.8,0-15.3,1.2-22.5,3.2L208.2,256.7z M231.1,288.3
		c37.5,0,67.9,30.5,67.9,67.9c0,37.5-30.5,67.9-67.9,67.9s-67.9-30.5-67.9-67.9C163.1,318.7,193.6,288.3,231.1,288.3z M220.5,371.9
		c0-3.9-3.1-7-7-7c-3.9,0-7,3.1-7,7c0,10.3,7.5,18.9,17.6,21.7v5.3c0,3.9,3.1,7,7,7c3.9,0,7-3.1,7-7v-5.3
		c10.2-2.8,17.6-11.4,17.6-21.7s-7.5-18.9-17.6-21.7v-16.1c2.1,1.6,3.5,3.8,3.5,6.4c0,3.9,3.1,7,7,7c3.9,0,7-3.1,7-7
		c0-10.3-7.5-18.9-17.6-21.7v-5.3c0-3.9-3.1-7-7-7c-3.9,0-7,3.1-7,7v5.3c-10.2,2.8-17.6,11.4-17.6,21.7s7.5,18.9,17.6,21.7v16.1
		C221.9,376.7,220.5,374.5,220.5,371.9L220.5,371.9z M241.6,371.9c0,2.5-1.4,4.8-3.5,6.4v-12.7C240.2,367.2,241.6,369.4,241.6,371.9
		L241.6,371.9z M220.5,340.5c0-2.5,1.4-4.8,3.5-6.4v12.7C221.9,345.3,220.5,343,220.5,340.5L220.5,340.5z M335.4,347.6h0.5
		c7.4-0.1,14.2-3.1,19.3-8.4c5.1-5.3,7.8-12.3,7.7-19.6c-0.3-15-12.6-27-27.6-27h-0.5c-15.2,0.3-27.3,12.9-27,28.1
		c0.1,7.4,3.1,14.2,8.4,19.3C321.4,344.9,328.2,347.6,335.4,347.6L335.4,347.6z M335.1,306.6h0.2c7.3,0,13.3,5.9,13.5,13.2
		c0.1,3.6-1.3,7-3.8,9.6c-2.5,2.6-5.8,4-9.4,4.1c-3,0.1-7-1.3-9.6-3.7c-2.6-2.5-4-5.8-4.1-9.4C321.8,312.9,327.7,306.8,335.1,306.6
		L335.1,306.6z M689.2,397.4c-30.5-69.6-91.2-56.4-91.7-56.2c-1.1,0.3-2.2,0.8-3.1,1.6c-0.4,0.4-43.8,37.9-129.5,74.8
		c-4.1-2.3-8.3-4.2-12.8-5.3c-1.3-0.3-2.8-0.2-4,0.3l-72.2,27.1c-2.9,1.1-4.8,4-4.6,7.1c0.1,2.1,1.3,3.6,2.9,4.8
		c-91.2,30.8-184.4,54.6-185.2,54.8c-0.6,0.1-56.8,14.4-44.3,81c12.1,64.3,44.7,95.3,71.1,102.8c4.7,1.3,9.2,2,13.5,2
		c8.9,0,16.8-2.9,22.5-8.3l55.9-30.3c-2.1,23-6.5,39.9-6.6,40.3c-0.9,3.2,0.7,6.7,3.7,8.2c1,0.5,2.1,0.7,3.1,0.7
		c2.1,0,4.2-1,5.6-2.8c0.3-0.4,25.8-33.4,85.9-75.5l-10.6,22.5c-1.2,2.6-0.8,5.6,1.1,7.7c1.9,2.1,4.9,2.9,7.5,2l47.6-16.1l18.6,47.2
		c1,2.6,3.5,4.4,6.3,4.5h0.2c2.7,0,5.2-1.6,6.4-4l33.3-71l46.9,43.9c1.3,1.2,3.1,1.9,4.8,1.9c1,0,1.9-0.2,2.8-0.6
		c2.6-1.2,4.2-3.7,4.2-6.5l-0.5-48.1l50.8-5.2c2.8-0.3,5.1-2.1,6-4.8c0.9-2.6,0.2-5.5-1.8-7.4l-56.4-52.9
		c64.9-22.2,107.5-22.6,108-22.6c1.7,0,3.2-0.6,4.5-1.7C680.9,511.6,723.2,474.9,689.2,397.4L689.2,397.4z M450.9,426.6
		c12.7,3.9,27,17.7,39.7,38.3c18.6,30.2,28.2,65.8,24.2,88.2L456,585.9c0-0.6-0.1-1.3-0.1-1.9v-0.5c0.4-32.1-14.4-75.3-32.1-104.2
		c-6.8-11-16.3-23.9-27.7-32.2L450.9,426.6z M219.6,676.6c-22.4-6.4-50.2-34-61.1-91.9c-9.6-50.6,27.9-63,33.2-64.5
		c28.8-2.3,52.4,1.6,70.7,11.5l-59.2,26.5c-2.9,1.3-4.6,4.4-4.1,7.6c0.5,3.2,3.1,5.6,6.3,5.9c17.3,1.6,35,18.3,43.9,41.5
		c9,23.4,6.5,45.8-6.6,59.9C238,678.1,229.4,679.4,219.6,676.6L219.6,676.6z M306,638.3l-40.3,21.8c4.7-15.5,3.8-33.6-3.3-52
		c-7.8-20.4-21.3-36.4-36.7-44.6l50.4-22.6c3.2,2.8,6.2,5.7,8.9,8.9c20,24,24.3,58.4,23.4,87.6C307.6,637.6,306.8,637.9,306,638.3
		L306,638.3z M319.7,671.8c5.1-33.7,8-92.6-23.8-130.9c-4-4.8-8.6-9-13.4-12.8c-0.6-0.6-1.2-1.1-2-1.5
		c-12.1-9.1-26.6-15.3-43.6-18.5c38.8-10.7,97.3-27.8,153.7-47.3c7,5.8,14.2,14.5,21.1,25.9c17.9,29.1,29.5,67.2,30,93.9
		C378.8,617.3,340,651.3,319.7,671.8L319.7,671.8z M470.6,667.3l-15.1-38.2c-1.4-3.5-5.3-5.3-8.8-4.1l-38.2,12.9l13.1-28
		c0.1-0.2,0.1-0.4,0.2-0.6c5.9-3.8,12.2-7.7,18.6-11.6c-0.4,2.5,0.5,5.1,2.5,6.7c1.3,1,2.8,1.5,4.3,1.5c1.2,0,2.4-0.3,3.4-0.9
		l29-16.2l19.3,18.1L470.6,667.3z M602,590l-41.8,4.3c-3.6,0.4-6.4,3.4-6.3,7.1l0.4,38.1l-61.7-57.8l31.9-17.8
		c1.7-0.9,2.9-2.6,3.4-4.5c0.6-2.4,0.8-5,1.1-7.5c7.8-3.3,15.3-6.3,22.7-9.1L602,590z M671.6,500.8c-11.7,0.4-56.8,3.6-121.2,27.3
		c0,0-0.1,0-0.1,0c-6.7,2.5-13.7,5.2-20.8,8.2c-1.5-26.4-13.3-56.6-27-78.8c-5.2-8.5-13.8-20.6-24.5-30.3
		c75.1-33.3,115.9-65.6,124.1-72.5c8.7-1.3,50.6-5,74.1,48.5C702.5,462.8,678.4,493.6,671.6,500.8L671.6,500.8z"/>
</g>
</svg>
