<?xml version="1.0" encoding="utf-8"?>
<!-- Generator: Adobe Illustrator 23.0.1, SVG Export Plug-In . SVG Version: 6.00 Build 0)  -->
<svg version="1.1" id="Layer_1" xmlns="http://www.w3.org/2000/svg" xmlns:xlink="http://www.w3.org/1999/xlink" x="0px" y="0px"
	 viewBox="0 0 800 800" style="enable-background:new 0 0 800 800;" xml:space="preserve">
<style type="text/css">
	.st0{fill:#00754A;}
	.st1{fill:#007853;}
	.st2{clip-path:url(#SVGID_2_);}
	.st3{fill:#777B7E;}
	.st4{fill:#F04E23;}
	.st5{fill:#ED1B2F;}
	.st6{fill:#AF1E23;}
	.st7{fill:#7C2E42;}
	.st8{fill:#F47920;}
	.st9{fill:#FAA61A;}
	.st10{fill:#FFC20E;}
	.st11{fill:#C49E69;}
	.st12{fill:#674026;}
	.st13{fill:#CACA8E;}
	.st14{fill:#C4CF2E;}
	.st15{fill:#7F7E32;}
	.st16{fill:#5F893C;}
	.st17{fill:#9CCD68;}
	.st18{fill:#2DA44A;}
	.st19{fill:#1F8258;}
	.st20{fill:#76D1F7;}
	.st21{fill:#149CCC;}
	.st22{fill:#0061A2;}
	.st23{fill:#1E3773;}
	.st24{fill:#C7AED3;}
	.st25{fill:#7682C0;}
	.st26{clip-path:url(#SVGID_4_);}
	.st27{fill:#007853;stroke:#007853;stroke-width:10;stroke-miterlimit:10;}
</style>
<g>
	<g>
		<path class="st27" d="M572,266.7v241.8l-372.7,0V266.7L572,266.7 M582,256.7H189.3v261.8H582L582,256.7z"/>
		<g>
			<path class="st1" d="M110.5,585c-11.2,0-20.4-9.1-20.4-20.4v-13.4c0-0.6,0.4-1,1-1h64.5V243.4c0-11.2,9.1-20.4,20.4-20.4h419.4
				c11.2,0,20.4,9.1,20.4,20.4v306.9h64.4c0.6,0,1,0.4,1,1v13.4c0,11.2-9.1,20.4-20.4,20.4H110.5z M91.5,564.6c0,10.5,8.5,19,19,19
				h550.3c10.5,0,19-8.5,19-19v-5h-1.4l0-7.4H434.1V563h-98.2l0-10.7H91.5V564.6z M176,224.3c-10.5,0-19,8.5-19,19l0,306.9l457.5,0
				V243.4c0-10.5-8.5-19-19-19H176z"/>
			<path class="st1" d="M429.1,555.2v2v0.7h-88.2l0-0.7l0-2L429.1,555.2 M595.4,218H176c-14,0-25.4,11.3-25.4,25.4v301.9H91.1
				c-3.3,0-6,2.7-6,6v13.4c0,14,11.3,25.4,25.4,25.4h550.3c14,0,25.4-11.3,25.4-25.4v-13.4c0-3.3-2.7-6-6-6h-59.4V243.4
				C620.8,229.3,609.4,218,595.4,218L595.4,218z M161.9,545.3l0-301.9c0-7.4,6-14,14-14h419.4c7.4,0,14,6,14,14v301.9L161.9,545.3
				L161.9,545.3z M330.9,568h108.2v-10.7h175h59.4l0,7.4h1.3c0,7.4-6,14-14,14H110.5c-7.4,0-14-6-14-14v-7.4h59.4h175L330.9,568
				L330.9,568z M680.2,545.3L680.2,545.3L680.2,545.3L680.2,545.3z"/>
		</g>
	</g>
</g>
</svg>
