<?xml version="1.0" encoding="utf-8"?>
<!-- Generator: Adobe Illustrator 23.0.1, SVG Export Plug-In . SVG Version: 6.00 Build 0)  -->
<svg version="1.1" id="Layer_1" xmlns="http://www.w3.org/2000/svg" xmlns:xlink="http://www.w3.org/1999/xlink" x="0px" y="0px"
	 viewBox="0 0 800 800" style="enable-background:new 0 0 800 800;" xml:space="preserve">
<style type="text/css">
	.st0{fill:#00754A;}
	.st1{fill:#007853;}
	.st2{clip-path:url(#SVGID_2_);}
	.st3{fill:#777B7E;}
	.st4{fill:#F04E23;}
	.st5{fill:#ED1B2F;}
	.st6{fill:#AF1E23;}
	.st7{fill:#7C2E42;}
	.st8{fill:#F47920;}
	.st9{fill:#FAA61A;}
	.st10{fill:#FFC20E;}
	.st11{fill:#C49E69;}
	.st12{fill:#674026;}
	.st13{fill:#CACA8E;}
	.st14{fill:#C4CF2E;}
	.st15{fill:#7F7E32;}
	.st16{fill:#5F893C;}
	.st17{fill:#9CCD68;}
	.st18{fill:#2DA44A;}
	.st19{fill:#1F8258;}
	.st20{fill:#76D1F7;}
	.st21{fill:#149CCC;}
	.st22{fill:#0061A2;}
	.st23{fill:#1E3773;}
	.st24{fill:#C7AED3;}
	.st25{fill:#7682C0;}
	.st26{clip-path:url(#SVGID_4_);}
	.st27{fill:#007853;stroke:#007853;stroke-width:10;stroke-miterlimit:10;}
</style>
<g>
	<g>
		<path class="st1" d="M516.8,519.7c-3.4,0-6.9-0.5-10.2-1.4l-14.5-4.1l-17.2-5.6c-66.5-21.5-100.1-31.5-171.1-17.3l-102.2,20.4
			c-6.1,1.2-12.3,1.8-18.5,1.8c-44.5,0-83.2-31.7-91.9-75.5l-9.6-48.3c-10.3-51.8,23.4-102.4,75.1-112.7l100.3-20
			c72.6-14.5,97.3-35.6,151.2-81.7l25.6-21.2c6.6-5.3,14.5-8,22.8-8c17.5,0,32.7,12.4,36.1,29.5l59.9,300
			c2.2,10.9-0.6,21.9-7.6,30.5C538.1,514.8,527.8,519.7,516.8,519.7L516.8,519.7z M363.8,462.8c40.1,0,71,10,117.8,25.1l31,9.5
			c5.9,1.7,12-0.3,15.8-5c1.7-2,4.3-6.4,3.1-12.4l-59.9-300c-1.7-8.3-8.9-12.1-14.8-12.1c-3.4,0-6.5,1.1-9.3,3.3l-11.8,9.4
			l-13.3,11.3c-53.4,45.7-82.9,70.8-161,86.5l-100.3,20c-40,8-66.1,47.1-58.1,87.2l9.6,48.3c6.7,33.6,36.4,58,70.6,58
			c4.7,0,9.5-0.5,14.2-1.4L299.6,470C324.2,465.1,344.5,462.8,363.8,462.8L363.8,462.8z"/>
		<path class="st1" d="M308.2,665.3c-6.6,0-13.3-1.4-19.6-4.1c-11.9-5.2-21.1-14.8-25.9-27l-58.6-131.6l19.8-8.8l58.8,132.1
			c2.8,7.2,7.9,12.6,14.6,15.4c6.6,2.9,14,3.1,20.8,0.4c6.8-2.6,12.1-7.7,15-14.4c2.9-6.6,3.1-14,0.4-20.8L289,484.9l20.4-7.5
			l44.4,121.5c4.7,11.9,4.4,25.2-0.8,37.2c-5.2,11.9-14.8,21.1-27,25.9C320.2,664.2,314.2,665.3,308.2,665.3L308.2,665.3z"/>
		<path class="st1" d="M437.6,176.7l66,330l-21.3,4.2l-66-330L437.6,176.7z"/>
		<path class="st1" d="M514.2,393.9l-25.5-127.8l10.7-2.1c4.2-0.8,8.5-1.3,12.8-1.3c30.9,0,57.7,22,63.8,52.4
			c3.4,17.1,0,34.4-9.7,48.9c-9.6,14.5-24.4,24.3-41.4,27.8L514.2,393.9z M514.5,284.5L531,367c6.9-3.3,12.9-8.4,17.2-15
			c6.4-9.6,8.7-21.2,6.4-32.6C550.8,299.9,534.1,285.6,514.5,284.5L514.5,284.5z"/>
		<path class="st1" d="M309.9,257.6l42.5,212.9l-21.3,4.2l-42.5-212.9L309.9,257.6z"/>
		<path class="st1" d="M687.8,455.4l-18.4-11.5c26.5-42.5,35.5-98,24.6-152.3c-10.9-54.3-40.5-102.1-81.3-131.2l12.6-17.7
			c45.3,32.3,78,85,90,144.6C727.2,346.9,717.1,408.2,687.8,455.4L687.8,455.4z"/>
		<path class="st1" d="M627.4,437.8l-17.5-12.8c23.7-32.7,32.3-76.9,23.4-121.4c-8.9-44.4-33.8-82-68.3-103l11.3-18.5
			c39.7,24.2,68.2,66.9,78.2,117.3C664.6,349.8,654.7,400.2,627.4,437.8L627.4,437.8z"/>
	</g>
</g>
</svg>
