<?xml version="1.0" encoding="utf-8"?>
<!-- Generator: Adobe Illustrator 24.1.2, SVG Export Plug-In . SVG Version: 6.00 Build 0)  -->
<svg version="1.1" id="Layer_1" xmlns="http://www.w3.org/2000/svg" xmlns:xlink="http://www.w3.org/1999/xlink" x="0px" y="0px"
	 viewBox="0 0 100 100" style="enable-background:new 0 0 100 100;" xml:space="preserve">
<style type="text/css">
	.st0{fill:#3E2B2F;}
</style>
<g>
	<path class="st0" d="M4.8,75h12.3l6.8,20.5c0.1,0.4,0.5,0.8,0.9,1l0.7,0.3l68.6-22.6c0.4-0.1,0.8-0.5,1-0.9
		c0.2-0.4,0.2-0.9,0.1-1.3l-4.6-14.1h3c0.5,0,0.9-0.2,1.2-0.5c0.3-0.3,0.5-0.8,0.5-1.2V4.8c0-0.5-0.2-0.9-0.5-1.2
		c-0.3-0.3-0.8-0.5-1.2-0.5H22c-0.9,0-1.7,0.8-1.7,1.7v15.5H4.8c-0.9,0-1.7,0.8-1.7,1.7v51.2c0,0.5,0.2,0.9,0.5,1.2
		C3.9,74.8,4.4,75,4.8,75L4.8,75z M26.6,93.1l-15.2-46l65.2-21.5l15.2,46L26.6,93.1z M18.8,39.1c0-1.7,1.4-3.1,3.1-3.1
		s3.1,1.4,3.1,3.1v0.3l-5.5,1.8C19,40.6,18.7,39.8,18.8,39.1L18.8,39.1z M28.1,38.3c-0.2-1.9-1.3-3.5-2.9-4.5
		c-1.6-1-3.5-1.2-5.3-0.6c-1.8,0.6-3.2,1.9-3.9,3.7c-0.7,1.7-0.5,3.7,0.4,5.3l-4,1.3V29.7h41.8L28.1,38.3z M45.1,20.3
		c-0.7-2.7-3.2-4.6-6-4.6s-5.3,1.9-6,4.6h-3.3v-7.8h56.2v31.2l-6.8-20.5c-0.1-0.4-0.4-0.8-0.9-1h-0.2V22c0-0.5-0.2-0.9-0.5-1.2
		c-0.3-0.3-0.8-0.5-1.2-0.5L45.1,20.3z M41.8,20.3h-5.4c0.6-0.9,1.6-1.5,2.7-1.5S41.2,19.4,41.8,20.3z M23.4,6.3h68.8v48.4h-2.7
		l-0.5-1.6V9.4H26.6v10.9h-3.1L23.4,6.3z M6.3,23.4h67l-9.5,3.1H9.4v18L9,44.6c-0.4,0.1-0.8,0.5-1,0.9l-0.2,0.7l8.4,25.7h-10
		L6.3,23.4z"/>
	<path class="st0" d="M15.3,49.1l13.2,40.1l59.4-19.6L74.7,29.5L15.3,49.1z M72.7,33.5l7.6,23l-23.7-12L44.6,68.2l-5.9-3l-9,17.8
		L19.2,51.1L72.7,33.5z M55.3,77.1l-22.9,7.5l7.7-15.2L55.3,77.1z M59.5,75.7l-12.1-6.1l10.5-20.9l23.7,11.9l2.3,7L59.5,75.7z"/>
	<path class="st0" d="M31.1,63.3c2.7,0,5.1-1.7,6-4.3s-0.1-5.4-2.3-7c-2.2-1.6-5.2-1.6-7.4,0c-2.2,1.6-3.1,4.4-2.3,7
		C26,61.6,28.4,63.3,31.1,63.3L31.1,63.3z M28.3,55.7c0.4-0.7,1-1.3,1.8-1.6c0.3-0.1,0.6-0.2,1-0.2c1.4,0,2.6,0.9,3,2.3
		s-0.2,2.8-1.4,3.5c-1.2,0.7-2.7,0.6-3.8-0.4C27.9,58.4,27.7,56.9,28.3,55.7L28.3,55.7z"/>
</g>
</svg>
