<svg id="Layer_1" data-name="Layer 1" xmlns="http://www.w3.org/2000/svg" viewBox="0 0 12.98 17.29"><defs><style>.cls-1{fill:#007853;}</style></defs><path class="cls-1" d="M12.69,1.43H3.44A1.73,1.73,0,0,0,0,1.72V15.85H0a1.73,1.73,0,0,0,1.7,1.44H9.81a.27.27,0,0,0,.28-.28v-.87h2.6a.28.28,0,0,0,.2-.08.29.29,0,0,0,.09-.21V1.72a.25.25,0,0,0-.09-.2.25.25,0,0,0-.2-.09ZM1.73.57A1.14,1.14,0,0,1,2.88,1.72V14.28a1.72,1.72,0,0,0-2.3,0V1.72A1.14,1.14,0,0,1,1.73.57ZM9.52,16.72H1.73a1.15,1.15,0,0,1-.81-2,1.14,1.14,0,0,1,1.25-.25,1.15,1.15,0,0,1,.71,1.06v.29a.29.29,0,0,0,.09.21.3.3,0,0,0,.2.08H9.52Zm2.88-1.16H3.46V2H12.4Z"/><path class="cls-1" d="M4.33,6.05h7.21a.27.27,0,0,0,.2-.09.3.3,0,0,0,.08-.2V2.87a.27.27,0,0,0-.28-.28H4.33A.29.29,0,0,0,4,2.87V5.76a.3.3,0,0,0,.08.2.29.29,0,0,0,.21.09Zm.28-2.89h6.64V5.47H4.61Z"/><path class="cls-1" d="M4.33,10.37H7.79a.3.3,0,0,0,.2-.08.29.29,0,0,0,.09-.21V6.91a.31.31,0,0,0-.29-.29H4.33A.29.29,0,0,0,4,6.91v3.17a.27.27,0,0,0,.29.29ZM4.61,7.2H7.5V9.8H4.61Z"/><path class="cls-1" d="M11.54,11H8.08a.29.29,0,0,0-.29.29V14.7a.28.28,0,0,0,.08.2.29.29,0,0,0,.21.09h3.46a.27.27,0,0,0,.2-.09.28.28,0,0,0,.08-.2V11.24a.32.32,0,0,0-.08-.21.3.3,0,0,0-.2-.08Zm-.29,3.46H8.36V11.53h2.89Z"/><path class="cls-1" d="M8.65,6.91h3.18v.58H8.65Z"/><path class="cls-1" d="M8.65,8.07h3.18v.57H8.65Z"/><path class="cls-1" d="M8.65,9.22h3.18V9.8H8.65Z"/><path class="cls-1" d="M4,11H7.21v.58H4Z"/><path class="cls-1" d="M4,12.1H7.21v.58H4Z"/><path class="cls-1" d="M4,13.26H7.21v.57H4Z"/><path class="cls-1" d="M4,14.41H7.21V15H4Z"/></svg>