<svg id="Layer_1" data-name="Layer 1" xmlns="http://www.w3.org/2000/svg" viewBox="0 0 15.06 15.07"><defs><style>.cls-1,.cls-2{fill:#007853;}.cls-2{fill-rule:evenodd;}</style></defs><path class="cls-1" d="M7.53,15.07a7.54,7.54,0,1,1,7.53-7.54A7.54,7.54,0,0,1,7.53,15.07Zm0-14.3a6.76,6.76,0,1,0,6.76,6.76A6.78,6.78,0,0,0,7.53.77Z"/><path class="cls-2" d="M9.62,7.37a.07.07,0,0,1-.06,0,.07.07,0,0,0-.09,0v0l-.11,0s0,0,0,0H9.33s0,0,0,0H9.23s0,0-.06,0,0,0,0,0a0,0,0,0,1-.05,0h0s.05,0,.06,0H9.09l0,0s0,0,0,0,0,0,0,0l0,0s0,0-.07,0v0H9a.07.07,0,0,0,0,.09l0,.07,0,0H9l0,0,0,0H9l.1.06a0,0,0,0,1,0,.06v0H9s0,0,.05.07-.05,0-.08,0,0,.07,0,.11L9,8,9,8S9,8,8.94,8V8l0,0v0l-.07-.07,0,0h.07l.07,0H9a.45.45,0,0,0-.11,0H8.85l0-.06h0l0,0s0,0,0-.06,0-.07-.08-.07h0a.09.09,0,0,1,0,0v0s0,0,0-.06a.22.22,0,0,1,0-.08h0s0,0-.06-.06,0,0,0,0,0,0,0,0,0,0,0,0l-.06,0h0l-.06,0s0,0,0,0,0,0-.05,0L8.2,7l0,0,0,0,0,0s0,0,0-.06h0a.1.1,0,0,0,0,0l0,.07a.11.11,0,0,1,0-.11s0,0-.06,0a.21.21,0,0,0-.08.06s0,0,0,0,0,0,0,0,0,.06.05.08S8,7.05,8,7.1a0,0,0,0,1,0,0s0,.06.05.08.06.08.16.08h0s0,0,0,0l0,0,0,0a.25.25,0,0,1,.14.06l.08,0a.05.05,0,0,1,0,0l0,0s0,0,0-.06l-.09,0a.3.3,0,0,0,0,.08s0,0,0,0h0a.06.06,0,0,1,0,.06l0,0a0,0,0,0,0,0,0,0,0,0,0,1,0,0l0,0s0,0,0,0,0,0,0,0a.09.09,0,0,0,0-.07h0s0,0,0-.07,0-.05,0-.08,0,0,0,0h0l0,0h0s0,0,0,0l-.06,0,0,0s0,0,0,0H8a0,0,0,0,1-.06,0s-.08-.07-.11-.1l0,0v0s0,0,0,0l-.06,0a0,0,0,0,1,0,0l0-.09,0,0-.08,0s-.06,0-.08,0V7L7.37,7s-.06,0-.09.06,0,0,0,0-.06,0-.08,0l-.06,0s0,0,0,0H7l0,0s-.08,0-.09.09h0a.4.4,0,0,1,0,.11.09.09,0,0,1,0,.08h0a0,0,0,0,1-.06,0h0l0,0v0h0s0,0,0,0l-.06.09s0,0,0,.07a.1.1,0,0,0,0,0h0l0,0s0,.07,0,.12l-.08,0s0,0,0,.07h0l0,0a.3.3,0,0,0-.16,0h0s0,0,0,0a0,0,0,0,0,0,0S6,8.06,6,8L5.94,8a.06.06,0,0,0-.06,0s0,0-.07,0,0,0,0,0a.11.11,0,0,0-.08,0,.28.28,0,0,1,0-.09V7.74h0a0,0,0,0,1,0,0l0,0a.11.11,0,0,1,0-.09h0a.08.08,0,0,1,0,0,0,0,0,0,0,0,0,.06.06,0,0,1,0,0v0h0s0,0,0-.07a.28.28,0,0,0,0-.09v0a.07.07,0,0,0,0-.06h0s0,0,0,0,0,0,0,0,0,0,.05,0,0,0,0,0a.07.07,0,0,1,.09,0H6a.26.26,0,0,0,.15,0h.09s0,0,.05,0,0,0,0,0h0a.08.08,0,0,0,.09,0,.15.15,0,0,0,0-.09s0,0,0,0a.17.17,0,0,1,0-.12s0,0,0,0,0,0-.06-.06a.11.11,0,0,0,0,0h0v0h0s-.06,0-.09-.06,0,0,0,0l0,0h0s0,0,0,0l-.13,0H6.18s0,0,0,0h0v0h0a.11.11,0,0,1,.08,0h0l0,0,0,0h.07l0,0v0a.08.08,0,0,0,0-.08s0,0,0,0h.06v0a.23.23,0,0,0,.14,0v0h0l.07,0c.06,0,.08,0,.09-.07s0,0,0,0,0,0,0,0a.07.07,0,0,0,.06,0s0,0,.05,0H7V5.87a.13.13,0,0,0,0-.09s0,0,.06-.06h0l0,0s0,0,0,0h0s0,0,.07,0,0,0,0,0a.09.09,0,0,1,.09,0,0,0,0,0,0,0,0v0s0,0,0,0,0,0,0,0V5.6h0l0-.08h0s0,0,0,0a0,0,0,0,1,0,0s0,0,0-.06,0,0,0,0,0,0,0,0a.06.06,0,0,0,0,0s0,0,0,0h0a.08.08,0,0,0,0,0h.06a.08.08,0,0,0,0,0s0,0,0,0h0l0-.07s0,0,.06,0-.07,0-.09,0,0,0,0,0l0,0s0,0,.07-.06,0,0,0,0a.07.07,0,0,1,.06,0l0,0a0,0,0,0,0,0,.06,0,0,0,0,1,0,0,.26.26,0,0,0,0,.08.06.06,0,0,0,.08,0v0s0,0-.06,0v0s0,0,0,0,0,0,0,0a0,0,0,0,1,0,.05.09.09,0,0,0,.06.06l0,0h0v0l0,0,0,0,0,0a.07.07,0,0,1,0,.06s0,0,0,0h0a.12.12,0,0,0,.08,0h0v0h0v0s0,0,.06,0,0,0,0,0h0s0,0,0,0l0,0H8s0,0,0,0H8s0-.06.07-.07l.05,0s0,0,0,0h0s0,0,0,0,.08,0,.12,0a.09.09,0,0,1,.07,0s0,0,0,0,0,0,0,0h0s.07,0,.11,0H8.52s0,0,0,0,.06,0,.08,0a.08.08,0,0,0,0-.08l0,0v0a.12.12,0,0,0,0-.13.06.06,0,0,1,0-.08.45.45,0,0,0,0-.11l.1,0,0,.06,0,0s0,0,.07,0a.08.08,0,0,0,0-.07V4.9l0,0s-.06,0,0-.09h0v0s0,0,0,0h0a.08.08,0,0,1,.1,0H9s0,0,0,0l.09,0h.09s0,0,0,0v0h0l0,0h0l.08,0,.05,0h0l0,0a.1.1,0,0,1-.11,0h0v0s0,0-.07,0l0,0s0,0-.05,0H9s0,0,0,0H9v0H8.89l-.05,0h0a0,0,0,0,1,0,0l0,0s0,0,0-.07v0h0l-.09-.05H8.55v0h0a.29.29,0,0,1,0-.09.08.08,0,0,0,0,0,.14.14,0,0,1,0-.06v0s0,0,0-.08,0,0,0,0l0,0h0s0,0,0-.05,0,0,.05,0V4a.1.1,0,0,0,0,0,.47.47,0,0,1,.06-.09.09.09,0,0,1,.06,0V3.74s0,0,0,0l0,0s-.05,0-.08,0H8.59s0,0-.05,0a.08.08,0,0,0,0,0s0,0,0,0l0,0,0,0a.22.22,0,0,1,0,.08,0,0,0,0,0,0,0,.08.08,0,0,1,0,0l0,0a0,0,0,0,0,0,0,.05.05,0,0,1,0,0l0,0s0,0-.05,0h0a.13.13,0,0,1-.06,0h0v0l0,0s0,0-.05,0v.07s0,0,0,0,0,0,0,0,0,0,0,0v0a.06.06,0,0,1,0,.06l0,0,0,0h0s0,0,0,0h0s0,0,0,0h.05a.46.46,0,0,0,.07.07.11.11,0,0,1,0,.05s0,0,0,0l0,0s0,0,0,0,0,0,0,0l0,0,0,0,0,0-.07,0s0,0,0,0h0l0,0h0s0,0,0,.06h0s0,0,0,.07,0,0,0,.06,0,.06,0,.09,0,0,0,.08-.07,0-.1,0l0,0s0,0,0,0,0,0,0,0h0s0,0,0,0v0a.06.06,0,0,0,0,0s0,0,0,0,0,0,0-.06h0l-.06,0A.2.2,0,0,0,7.69,5a.29.29,0,0,1,0-.09l0,0h0s0,0-.05,0a.13.13,0,0,0,0-.06l0,0h0s0,0-.05,0a.15.15,0,0,1,0-.07v0h0s0,0,0,0h0l0,0s0,0,0,0,0,0,0,0h0l0,0h0l0,0h0a.06.06,0,0,0,0,0l0,0a0,0,0,0,0,0,0v0a.1.1,0,0,0-.05,0,0,0,0,0,1,0,0s0,0,0,0l0,0,0-.05,0,0,0,0-.05,0s0,0,0,0a0,0,0,0,1,0,0l.06,0v0s0,0,0,0,0,0,0,0l0,0,0,0s0,0,0,0l0,0,0,0s0,0,0,0v0s0,0,0,0l0,0H7.15s0,0,0,0,0-.07,0-.1,0,0,0,0,0,0,0,0h0v0s.08,0,.12,0l0,0v0h0s0,0,0,0,0,0,0,0h0s0,0-.06,0,0,0-.06,0,0,0-.07,0,0,0,0,0h0s0,0,0,0a.06.06,0,0,1,.07,0h.06l-.12,0s0,0,0,0l0,0s0,0,0,0v0l0,0s0,0,0,0h0v0l-.07,0s0,0,.09,0l0,0s-.07,0-.07,0a.11.11,0,0,1,.11,0,.05.05,0,0,0,0,0h0l0,0s0,0,0,0h0v0h.07l0,0,0,0,0,.06,0,0,0,0s0,0,0,0,.05,0,.05,0l0,0,0,0h0s0,0,0,.06l-.06,0s0,0,0,0l0-.07a0,0,0,0,1,0,0s0,0,0,0,0,0,0,0l0,0h0l.06-.06s0,0,.06,0,0,0,0,0a0,0,0,0,1,0,0l0,0h0s0,0,0,0l0,0s0,0,.08,0,0,0,0,0l0-.06s0,0,0,0h0s0,0,.08,0h0s0,0,0,0h0s0,0,0,0,0,0,0,0l0,0V3.35h0v0h.07s0,0-.06,0H8a.14.14,0,0,0,0,.06H8v0c0-.05,0-.06.06,0H8l0,0s-.07,0-.11,0,0,0,0,0a.11.11,0,0,0,.05,0l0,0,.05,0v0h0v0h0l0,0,0,0s0,0,0,.06,0,0,0,0,0,0,0,0,0,0,0,0v0h0V3l0,0h0v.08l0,0,0,0s.05,0,.06,0l.05,0a.09.09,0,0,1,0,0L8.32,3h0l0,0,.09,0s0,0,0,0a.06.06,0,0,1,0-.06,0,0,0,0,1,0,0l0,0,0,0h0v0l0,0h0s0,0,0,0,0,0,0,.05,0,0,0,0,0,0,0-.06l.05-.09s0,.05,0,.06,0,0,0,0h0s0,0,0-.06h0s0,0,0,0v0s.06,0,.08,0,0,0,0,0l0,0s0,0,0,0h0v0h0v0l0,0s0,0,0,0a0,0,0,0,0,.05,0H9v0a.13.13,0,0,1,.1,0l-.05,0L9,3H9S9,3,9,3h0V3h0s0,0,0,0l0,0a0,0,0,0,0,0-.07c.05,0,.07,0,.11,0s0,0-.07,0,0,0,0,0h0a.06.06,0,0,0,.07,0s0,0,0,0,0,0,0,0l0,0s0,0,.09,0h0a.44.44,0,0,1,.18.09l.08.06s0,0,0,0h0l0,0v0s0,.09.11.09,0,.07.06.06a.1.1,0,0,1,0,.12v0h0s0,.06-.07.05a.5.5,0,0,1-.17,0l0,0,0,0,0,0s0,0-.06,0h0s-.06,0-.1,0,0,0,0,0l-.06,0s0,0,0,0h0a.08.08,0,0,0,.07.08l0,0h.08l0,0s0,0,.07,0h0l0,0s0,0,0,.07v0a.05.05,0,0,0,0,0h0l.07.09s0,0,0,0l0,0h0s0,0,0,.05l.1,0,.05,0a.11.11,0,0,0,0-.08h0l-.08,0a0,0,0,0,1,0,0s0,0,0,0v0h0l0,0,.05,0s0,0,0,0h0s0,0,.06,0l0,0h.07s0,0,0,0L10,3.78s0,0,0-.07l0,0s0,0,0,0l0,0,0-.05.1,0,0,0a0,0,0,0,1,0,0,.41.41,0,0,0,0-.11,0,0,0,0,0,0,0s0,0,0,0V3.35s0-.07-.05-.09,0,0-.07-.06l.06,0h.13s0,0,0,0h0s0,0,0,.06l0,0s0,0-.05,0,0,0,0,0l.1.09a.06.06,0,0,1,.06,0,0,0,0,0,0,0,0v0s0,0,0,0h.07v0c.06,0,.08-.06.1-.09l.08,0s0,0,0,0h0l0,0,0,0s0,0,0,0v0a.08.08,0,0,1,.08,0s0,0-.05,0l0,0s0,0,0,0l0,0h0s.05,0,.07,0h0s0,0,0,0h.14l0,0,.07,0s0,0,0,0,0,0,0,0,0,0,.06,0l0-.05s0,0,.07,0,0,0,0,0,0,0-.06-.07,0,0,0,0l.06,0a.11.11,0,0,0,.06,0,.2.2,0,0,1,.11,0l0,0s0,0,0,0h0l.15.08a0,0,0,0,0,0,0s.08,0,.1.1h0s0,0,0,0v0s0,0,0,0l-.08-.07s0,0,0,0l-.09,0c0-.05,0-.06,0-.07s0,0,0-.07l0,0h0a0,0,0,0,1,0-.05s0,0,0,0,0,0,0,0V2.76h0s0,0,0-.06l0-.07s0,0,0-.05h0a.19.19,0,0,1,.12,0h0s0,0,0,0a.39.39,0,0,1,.06.15l.05.06s0,0,0,0,0,0,0,0,0,0,.05.07a.6.6,0,0,1,.06.11.41.41,0,0,1,0,.09.34.34,0,0,0,.08.09l0,0s0,0,0,0a.11.11,0,0,0,0,.07s0,0,0,0a0,0,0,0,0,0,0s0,.08,0,.11h0s0,0,0,0l0,0v0a.35.35,0,0,0-.14,0h0a.16.16,0,0,0,.16.07s0,0,.05,0,0,0,0,0,0,0,0-.05a.07.07,0,0,0,0-.09,0,0,0,0,1,0-.05s0-.06,0-.09l0,0a.07.07,0,0,1,0-.06s0,0,0,0,0,0,.06,0a.24.24,0,0,0,.06.08,0,0,0,0,1,0,0s0,0,0,.06v0l.05,0h0s0,0,0,0,0,0,0-.07,0,0,0,0l-.05-.06a.09.09,0,0,0-.08,0,.09.09,0,0,0-.09,0v0h0s0,0,0,0l0,0A.45.45,0,0,1,12,3a.17.17,0,0,0,0,0l-.1-.08a.09.09,0,0,1,0-.06s0,0,0-.05h0a.09.09,0,0,0,0-.07.22.22,0,0,1-.05-.08h0a.42.42,0,0,1,.08.12l0,0,0,0,0,0,.07,0a0,0,0,0,1,.06,0h0a.17.17,0,0,0-.1-.06s-.06,0-.08,0a.21.21,0,0,0,0-.06s0,0,0,0l0,0s0,0,.05,0,0,0-.07-.06,0,0,.07,0l0,0h0a.13.13,0,0,1,.07.06.11.11,0,0,0,.08,0h0a0,0,0,0,1,0,.06h0l0,0s0,0,0,.07h0V3a.2.2,0,0,1,0,.08s0,0,0,0v0s0,0,0,0A1,1,0,0,0,12.39,3a.08.08,0,0,1,0,0,.13.13,0,0,0-.09-.09s0,0-.06-.06l0,0a.14.14,0,0,1-.11-.09l0,0a.44.44,0,0,1-.08-.1h.16s0,0,0,0h0s0,0,0,.06l0,0a0,0,0,0,0,0,0l-.06,0s0,0-.06,0v0a.12.12,0,0,0,0-.05s0,0,0,0l0,0s0,0,0-.07h0v0s0,0,0,0a.08.08,0,0,0,.07,0s0,0,0,0h0l.07,0s0,0,0,0h0a.06.06,0,0,0,0,0h0l0,0a.38.38,0,0,1-.09-.12l.11.08a.12.12,0,0,0,.05.05.46.46,0,0,1,.12.12h0v0l.05,0,.28.28.09.13a.26.26,0,0,1,.05.09s0,0,0,0v0h0l.17.19a7.21,7.21,0,0,1,.69,1,7.07,7.07,0,0,1,.48,1.09,8.12,8.12,0,0,1,.25,1,5.62,5.62,0,0,1,.09.57c0,.12,0,.25,0,.38s0,0,0,0v.67s0,0,0,0a2.56,2.56,0,0,1,0,.39l-.06.48a6.66,6.66,0,0,1-.19.77c0,.09-.06.18-.09.27h0c0-.06,0-.11,0-.17l0-.16s0,.08-.07.11v0a.52.52,0,0,0,0-.11s0-.08,0-.11a.07.07,0,0,0,0-.05.2.2,0,0,1,0-.1V9h0s0,.06,0,.09,0,.07-.08,0a.1.1,0,0,0,0,.09.34.34,0,0,1-.06.12h0a.89.89,0,0,1-.08.17.24.24,0,0,1-.06.08v0c0,.06-.07.07-.08.12h0s0,.05,0,.08v0s0,0,0,.08a.15.15,0,0,1,0,.09.74.74,0,0,0,0,.14v0l0,0,0,0s0,.07-.05.1a.16.16,0,0,0,0,.07l0,0s0,0,0-.07v-.14a.19.19,0,0,0,0-.07s0,0,0,0V10a7463281273945.65,7463281273945.65,0,0,1,0-.1.3.3,0,0,1,0-.13s0-.08,0-.12a.41.41,0,0,0,0-.11s0,0,0,0,0-.06,0-.09,0,0,0-.07a0,0,0,0,0,0,0,.07.07,0,0,1,0-.06h0s0,0,0,.07a0,0,0,0,1,0,0s0,0-.06.08,0,0,0,0a.54.54,0,0,1-.09-.12s0,0,0,0,.07,0,.09-.06h0s0,0,0,0a.06.06,0,0,1,0-.06s0,0,0,0h0s0,0,0,0,0,0,0-.06v0s0,0,0,0a.21.21,0,0,0-.11,0h0s-.06,0-.09,0h0l-.09,0a.06.06,0,0,1-.07,0h0s-.06,0-.09,0h-.15s0-.07,0-.11a0,0,0,0,0-.06,0L12.2,9l0,0,0,0L12,9l0,0v0l-.08,0a.05.05,0,0,1-.06,0s0,0,0-.05,0,0,0,0,0,0,0,0v0a.08.08,0,0,1,0,0s0,0,0,0h0l-.06,0v0s0,0-.06,0v0s0,0,0,0,0,0,0,0h0a.58.58,0,0,1,.08.18h0s0,.06,0,.07l0,.05s0,0,0,.06l.07.11s0-.05,0-.08h0s0,0,0-.05,0,0,0,.06,0,0,0,0a.06.06,0,0,1,0,.06,0,0,0,0,0,0,.05l0,0h0a.06.06,0,0,1,.07,0s0,0,.06,0,.07,0,.07-.07v0l.07-.09a.18.18,0,0,0,0-.07V9a.25.25,0,0,1,0,.12.21.21,0,0,0,0,.12.07.07,0,0,0,.06,0h.08a.27.27,0,0,0,.09.12,1,1,0,0,1,0,.1l-.06.1h0l0,.09h0V9.8l-.05,0a.06.06,0,0,0,0,.06l0,0h0s0,0,0,.05,0,0,0,.06a.06.06,0,0,0-.07,0s-.05,0-.08,0a.11.11,0,0,0-.08.09l0,0a.6.6,0,0,1-.11.06s-.07,0-.1,0,0,0-.06,0a.09.09,0,0,1-.09,0,.22.22,0,0,1-.21.08h0c0,.06-.08.07-.13.09h-.06s0-.06,0-.09h0a.17.17,0,0,1,0-.07v0a.08.08,0,0,1,0-.09v0a.14.14,0,0,0,0-.06l0-.06S11,10,11,10h0s0,0,0,0a.2.2,0,0,0,0-.09h0l0,0h0s-.06-.07-.06-.12,0-.06,0-.08a.07.07,0,0,0,0-.06l0,0s0-.1-.08-.12h0v0s0,0,0,0,0-.08-.05-.1,0,0,0,0a.56.56,0,0,1,0-.08L10.38,9s0,0-.07,0h0a.16.16,0,0,0,0-.1s0,.06,0,.09a.09.09,0,0,1,0,.07,1.12,1.12,0,0,1-.19-.24s0,0,0,0l0,.08a.2.2,0,0,0,.08.08h0a.13.13,0,0,0,0,.06l0,0a.19.19,0,0,0,0,.08.54.54,0,0,0,.07.13.78.78,0,0,0,.1.15.07.07,0,0,0,0,.07l0,.05s.05,0,.06,0a.11.11,0,0,1,.07.09.06.06,0,0,0,0,0v.06l0,.1v0a.1.1,0,0,0,0,.09s0,0,.05,0l0,0,0,0a.48.48,0,0,1,0,.18.05.05,0,0,0,0,0s0,0,0,0v0l0,0s0,0,0,0h0l0,0,.05,0a.08.08,0,0,0,0,0s0,0,0,0l0,.05s0,0,0,0,0,0,0,.06,0,0,0,0l.06.07h.05l.08,0h0a.14.14,0,0,0,.11,0h0a0,0,0,0,1,0,0h0l.06,0a.07.07,0,0,0,.06,0s0,0,0,0a.11.11,0,0,0,.09,0h0s0,0,0,0,0,0,0,0l0,.1a.37.37,0,0,1-.1.17h0s0,0,0,.06a.18.18,0,0,0-.05.07.33.33,0,0,1-.06.1,1,1,0,0,1-.15.19,1.14,1.14,0,0,1-.17.15.58.58,0,0,0-.15.11l-.06.07,0,0,0,0a1.29,1.29,0,0,1-.16.17.1.1,0,0,1,0,0s-.05,0-.05.05h0a.1.1,0,0,0,0,.05.15.15,0,0,1-.05.06.29.29,0,0,0-.07.12s0,0,0,0l0,0s0,0,0,.08h0s0,.08,0,.12l.07,0v0s0,0,0,.07v0a.5.5,0,0,1,0,.13s0,0,0,0l0,.05a.24.24,0,0,1-.08.09l-.16.08a.41.41,0,0,0-.11.07L10,13.2h0a.09.09,0,0,1-.08,0v0l0,0s0,0,0,.08,0,0,0,0l0,0s0,0,0,0l-.09,0a.52.52,0,0,0-.15.07h0l-.06.09h0l-.09.06-.06,0-.13.09-.22.11-.1,0a.11.11,0,0,0-.08,0H8.81l-.16,0h0l-.1,0s-.06,0-.08,0H8.39s0,0-.08,0l0,0,0,0h0s0,0,0,0a.23.23,0,0,1-.07-.1l-.05,0,0,0s0,0,0,0l0,0a.25.25,0,0,0,0-.07,0,0,0,0,0,0,0,.1.1,0,0,1,0-.09s0,0,0-.06a.61.61,0,0,0-.07-.1l0,0a.18.18,0,0,0-.08-.09h0c0-.05,0-.1,0-.15h0a.25.25,0,0,0,0-.09A.18.18,0,0,1,8,13H8s0,0,0-.05a.09.09,0,0,0,.05-.09.14.14,0,0,0,0-.06A.54.54,0,0,1,8,12.67l0-.05a.11.11,0,0,1,0-.07.08.08,0,0,0,0-.05s0,0,0-.05,0,0,0,0,0,0,0,0a.14.14,0,0,0-.07-.1l0,0h0l-.1-.07v0s0-.05-.06-.08h0l0,0c-.05,0-.05,0-.07-.07h0v-.08h0a.07.07,0,0,1,0-.06l0,0,0,0,0-.06h0s0,0,0-.05a0,0,0,0,0,0,0,.07.07,0,0,1,0-.06v0s0,0,0,0l0-.05H7.44l-.12,0a.1.1,0,0,1-.09-.06s0,0,0-.05a.18.18,0,0,0-.09-.08.16.16,0,0,0-.12,0H6.84l-.07,0s-.07,0-.09,0a.1.1,0,0,1-.07,0l-.09,0h0l-.1,0,0,0a0,0,0,0,1-.06,0h0s-.06,0-.09,0h0a.27.27,0,0,0-.12,0l-.07,0h0l-.12,0-.07,0,0,0,0,0a.34.34,0,0,1-.12-.09h0s0,0-.08,0h0l0,0s0-.07-.08-.11,0,0,0-.06v0l-.06-.06-.07,0,0,0a.05.05,0,0,0-.06-.06h0l0,0h0l-.05,0s0,0,0,0H5s0,0,0,0H5a0,0,0,0,0,0,0s0,0,0,0,0,0,0,0H5s0,0,0-.06l-.06-.06.06-.08,0,0a.32.32,0,0,1,0-.14A.23.23,0,0,0,5,10s0,0,0-.05V9.85s0,0,0,0h0V9.68a.05.05,0,0,1,0,0l0,0s0,0,0,0H5s0-.06,0-.1a.07.07,0,0,1,0-.05s.06,0,.06-.08l0,0a.14.14,0,0,0,0-.06s0,0,0,0a.13.13,0,0,1,.07-.06h0a.24.24,0,0,1,0-.09A.14.14,0,0,1,5.38,9a.08.08,0,0,0,.07,0l.06,0,0,0a.2.2,0,0,1,.06-.09.05.05,0,0,0,0-.07v0a.16.16,0,0,0,0-.07,0,0,0,0,1,0-.06l0,0s0,0,0-.09,0,0,0,0l.1-.07.13-.08A.12.12,0,0,0,6,8.22H6A.28.28,0,0,0,6,8.1h0s0,.05.06.07h.12s0,0,.07,0h0s.08,0,.12,0,0,0,.06,0l0,0s.06,0,.09,0h0s0,0,.06,0l.06,0s0,0,0,0h0A.08.08,0,0,1,6.9,8h0s0,0,0,0H7s0,0,.08,0h0s0,0,0,0h0l.08,0V8h0s0,0,.08,0h0a.12.12,0,0,0,.1,0h0a.12.12,0,0,1,.1,0h0a.36.36,0,0,1,0,.09l.07-.06s0,0,0,0,0,0,0,.07,0,0,0,.05h0s0,0,0,0a.19.19,0,0,1,0,.08h0l-.07.06s0,0,0,.07l0,0,0,0,0,0s0,0,.06,0h0a.11.11,0,0,0,.08,0h.11a.08.08,0,0,1,.07,0h.06a.06.06,0,0,1,.06,0v0a.19.19,0,0,0,0,.07.08.08,0,0,0,.09,0h.08l.07,0a.16.16,0,0,1,.08.06.11.11,0,0,0,.08,0h0a.15.15,0,0,0,.09-.1,0,0,0,0,0,0,0s0,0,0,0a.1.1,0,0,1,0-.09.12.12,0,0,1,.1-.06l.06,0H9a.12.12,0,0,1,.07.07h.13s0,0,.07.06h.19s0,0,0,0h0l0,0h0a.08.08,0,0,1,.08,0s0,0,.05,0,.05,0,.06,0h0s0,0,.07,0h0s.06,0,.1,0v0l0,0v0h.06a.09.09,0,0,1,.07,0s.06,0,.08,0l0-.07a.31.31,0,0,0,0-.1s0,0,0,0,0-.05,0-.07a.08.08,0,0,0,0-.07s0,0,0,0h0s0-.06,0-.09a.08.08,0,0,0,0,0,0,0,0,0,1,0,0s0,0,0-.05.05,0,0-.07l0,0s0,0,0,0l-.05,0A.16.16,0,0,0,10.2,8h0l-.11,0A.06.06,0,0,1,10,8,.1.1,0,0,0,9.91,8H9.85a.17.17,0,0,0,0,.07c-.06,0-.11,0-.16,0V8h0s0,0-.06,0H9.5s.06,0,.07,0-.06,0-.09,0l0,0,0,0s0,0,0-.06,0,0,0,0h0s0,0,0-.06l0,0s0,0,0,0l0,0h0v0l0,0,0,0H9.36V7.54h0s0,0,.07,0h.05s0,0,.07,0h.08s0,0,0,0h.06s-.06,0-.07-.06a.07.07,0,0,1,.06,0h.16s0,0,0,0a.12.12,0,0,1,.1-.08h0a.13.13,0,0,1,.1,0h.11l0,0s0,0,.06,0,0,0,0,0a.05.05,0,0,0,0,0h0s0,0,0,0a.5.5,0,0,0,.13,0h0a.12.12,0,0,1,.1,0,.14.14,0,0,0,.14,0,.1.1,0,0,0,0-.09.43.43,0,0,1,0,0s0-.07,0-.08l0,0,0,0a.13.13,0,0,1-.08,0S10.62,7,10.6,7a.27.27,0,0,0-.08-.07.11.11,0,0,0-.08,0s0,0,0,0a0,0,0,0,0,0,0h0s0,0,0-.05h0s0,0,0,0,0,0,0,0a.05.05,0,0,1,0,0l0,0s-.06,0-.06,0h.06l0,0s.07,0,.08-.07h-.16a.26.26,0,0,1-.2.08s0,0,0,0,0,0,0,0l-.07,0h0l-.05,0h0l0,0s0,0,.05,0h0a0,0,0,0,0,0,0l0,0h0l0,0s0,0,0,0,0,0,.06,0,0,.06-.06.06h0s0,0,0,0a0,0,0,0,1-.05,0h0l-.05,0s0,0-.05,0h0v0a.05.05,0,0,0,0-.07h0s.05,0,.08-.07l0,0h0s0,0-.07,0H9.86s0,0,0,0,0,0,0,0l0,0,0,0-.06,0a0,0,0,0,1,0,0l-.06.08h0s0,.07,0,.11a.13.13,0,0,1-.06,0l0,.06h0s0,.08,0,.12,0,0,0,0a0,0,0,0,0,0,0,.09.09,0,0,1,0,.06h0a.21.21,0,0,1,.06.1.05.05,0,0,0,0,.05l0,0s0,0,0,0Zm2.07-.51a.07.07,0,0,1,0-.06s0,0,0,0h.11s0,0,0,0,0,0,0-.07,0,0,0,0v0a.07.07,0,0,1,0-.05h0a.06.06,0,0,0-.09,0l0,0a.06.06,0,0,0-.06,0,.15.15,0,0,0-.06,0,.11.11,0,0,1-.08,0v.06s0,0,0,0,0,0,0,0l0,0v0l-.07,0s0,.08,0,.13,0,0,0,.05l.05,0a.06.06,0,0,0,0,0l0,0,0,0,0,0,0,.07s.06.08.09.11l0,.06v0l.06.07s0,0,.06,0h0a.06.06,0,0,0-.05.05V7.6a0,0,0,0,1,0,0h0v0s0,0,0,0v0a.07.07,0,0,0,0,0v0c0,.07,0,.07.07.08a.07.07,0,0,1,.06,0,.16.16,0,0,0,.17.06l.11,0h0s0,0,0,0V7.82a.33.33,0,0,1,0-.17s0,0,0-.06,0,0-.05,0v0h0s0,0,0,0a0,0,0,0,1,0,0s0,0,0,0l0,0s0-.06,0-.1a.12.12,0,0,0,0-.1.15.15,0,0,1,0-.11v0l-.07,0a.07.07,0,0,0-.06,0s0-.06,0-.09,0-.06-.07-.06,0,0,0,0h.1ZM11.45,8.6a.14.14,0,0,0,.1,0S11.49,8.59,11.45,8.6ZM12.6,3.25h0l-.06-.05h0Z"/><path class="cls-2" d="M.53,7.37a.41.41,0,0,0,0-.11c0-.1,0-.2,0-.31a5,5,0,0,1,.06-.54c0-.17.06-.34.1-.51s.1-.4.16-.6a7.05,7.05,0,0,1,.3-.76c.07-.15.14-.3.22-.44l0-.07a1.74,1.74,0,0,1,.11-.18l.11-.19s0,0,0,0l0,.05s0,0,0,.06,0,.05,0,.06,0,0,0,0l0,0,0,0L1.5,4v0s0,0,0,0,0-.06.05-.07,0,0,0,0a.61.61,0,0,0,.07-.1l.06-.1s0,0,0-.06h0s0,0,0,0l0,0,0,0s0,0-.06.06,0,.08,0,.13a.1.1,0,0,1,0,.08s0,0,0,0l-.09.11h0v0h0a0,0,0,0,0,0,0s0,.07-.06.11l-.12.23s0,0,0,0,0,0,0,0l0,0s0,0,0,.06l0,.06a.3.3,0,0,1,0,.08C1,5,1,5.11.9,5.26a.22.22,0,0,0,0,.08.57.57,0,0,0,0,.14s0,0,0,0v0a.06.06,0,0,0,0,.06.06.06,0,0,1,0,0H1a.43.43,0,0,1,0,0,1,1,0,0,0,0,.17A.25.25,0,0,0,.88,6a0,0,0,0,1,0,0,.07.07,0,0,1,0,.06s0,0,0,0l0,0s0,0,0,0h0A.54.54,0,0,0,1,6a.08.08,0,0,1,0-.07.36.36,0,0,1,0-.1.25.25,0,0,1,0-.08s0,0,0,0a.57.57,0,0,0,.11-.16s0,0,0,0a.14.14,0,0,1,0-.09l0-.15v0a.06.06,0,0,1,0-.07.43.43,0,0,0,0-.07v0s0,0,0,0a.11.11,0,0,0,0-.06s0-.05,0-.07a.26.26,0,0,1,.05-.12v0a.17.17,0,0,1,.07-.13h0s0,0,.05,0l.05,0a.14.14,0,0,1,0,.06s0,0,0,0a.06.06,0,0,1,0,0s0,0,0,0h0v0h0l0,0s0,0,0,.08a.25.25,0,0,1,0,.07s0,0-.05,0l.06,0s0,0,0,0,0,0,0,0a.07.07,0,0,1,0,.06s0,0,0,0,0,0,0,0h0s0,0,0,0,0,0,0,.06.06,0,.07-.08l0,0a0,0,0,0,0,0,0s0,0,0,0,0,0,0,0v0a.47.47,0,0,0,.07-.12h0a0,0,0,0,1,0,0,.29.29,0,0,1,0,.09s0,0,0,0,0,0,0,0V5s0,0,0,.06,0,0,0,0h0l.05,0a.13.13,0,0,1,0,.06h0v0h0v0l0,0s0,0,0,0l0,0s0,.06-.07.07a.07.07,0,0,1,0,0s0,0,0,0l0,0,0,.06s0,0,0,0l0,0,0,0h0l0,0v0h0l0,0-.11.06v0l0,0s-.05,0-.06.06,0,0,0,0a0,0,0,0,1,0,0s.05,0,.06-.06a.2.2,0,0,1,.07-.06h0s0,0,0,.08,0,0,0,0,0,0,0,.06,0,.06,0,.08,0,0,0,0,0,0,0,0l0,.06L1.87,6H1.81a0,0,0,0,0,0,0l0,.06h0s0,0-.07.06a.05.05,0,0,0-.07,0s0,0,0,0H1.51s-.06,0-.09,0h0a.1.1,0,0,0,0,0,.09.09,0,0,0,0,.06s0,0,0,0a.16.16,0,0,0-.07.07s-.05.09-.08.14h0s0,0,0,0a.33.33,0,0,1,.19-.16,0,0,0,0,1,.06,0,.08.08,0,0,1,0,0s0,0,0,0l0,0h0a.08.08,0,0,1,0,0l0,0s0,0,0,0,0,.09,0,.13l0,0v0l.07,0,0,0,0,0s0,0,0,0l-.14.08h0L1.29,7h0s0-.06,0-.09,0-.06.05-.08a.06.06,0,0,0,0,0l0,0,0,0H1.3a.06.06,0,0,1-.07,0h0s0,.06-.06.07l0,0,0,0a.17.17,0,0,0-.06.12s0,0,0,.07,0,0,0,0v0h0s0,0,0,0H1l0,0s0,0,0,0a.09.09,0,0,0-.06.09.27.27,0,0,1,0,.15l0,0a.35.35,0,0,1,0,.2s0-.07,0-.1v.07s0,0,0,0h0s0,.06,0,.09v0a0,0,0,0,1,0,.06h0V8s0,0,0,0l0,0a.06.06,0,0,0,0,0,.14.14,0,0,1,0,.06.17.17,0,0,0,0,.1l0,.24c0,.1,0,.19,0,.28v0a.25.25,0,0,1,0-.07,1.42,1.42,0,0,1,0-.2,1.13,1.13,0,0,1,0-.18h0s0-.07-.06-.08l0-.42V7.64s0,0,0,0a1.7,1.7,0,0,0,0-.22Zm.8-3s0,0,0,0A0,0,0,0,0,1.33,4.34ZM1.11,6.61h0l0,0h0Zm-.29.92h0v0h0v0Z"/><path class="cls-2" d="M5.49,1.28l.14-.05a.27.27,0,0,0,.14-.07h0v0l0,0s.05,0,.08,0l.05,0H6a.33.33,0,0,1,.14,0l.06,0,0,0h0a.13.13,0,0,1-.1,0H6v0l-.06,0H5.8l-.08,0h.12s0,0,0,0h0a.16.16,0,0,1-.12.05h0a0,0,0,0,0-.07,0l0,0v0h0s0,0,.08,0,0,0,0,0l-.08.06a.32.32,0,0,0-.11.12.14.14,0,0,0,0,.07s0,0,0,0,0,.05,0,.06l0,0s0,0,0,0,0,0,0,0,0,0,0,0l0,0s0,0,0,0l0,0s0,0,0,0v0h0v0l0,0,0,0a.47.47,0,0,1,0,.1s0,0-.07,0a0,0,0,0,0-.07,0s0,0,0,0h0s0,0,0,.07h.1s0,0-.06,0,.06,0,.07,0h0a.1.1,0,0,1,0,.1l0,0s0,0,0,0,0,0,0,0l0,0a.06.06,0,0,1,0,0l0,0h0s0,0,0,.05l0,0,0,0a.06.06,0,0,0-.06,0h0s0,0,0,0,0,0,0,0l0,0,0,0,0,0h0l0,.08H5.17l0,0h0s0,0-.06,0a0,0,0,0,1,0,0H5s0,0,0,0l0,0v0a.2.2,0,0,0-.09.06l-.08-.05s0,0,0,0l0,0h.08s0,0,0,0l-.07,0h0s0,0,0,0l0,0,0,0s0,0,0,0v0h0l0,0h0l0,0,.06,0,0,0H5s0,0,0,0h0l0,0v0l.05,0h0s0,0,0,0,0,0,0,0,0,0,0,0S5,3,5,3H5S5,3,5,3V3A.08.08,0,0,0,5,3s0,0,0,0,0,0,0-.07,0,0,0,0a.07.07,0,0,1,0-.05s0,0-.06,0H4.72l0-.07v0l0,0,0,0h.12s0,0,0,0l-.06,0L4.68,3s0,0,0,0V3h0s0,0,0,0l0,0s0,0,.06,0H4.7l-.07,0s-.06,0-.08,0h.08s0,0,.07,0h0s.09,0,.13,0h0l.07,0s0,0,0,0,0,0,0,0h0s0,0,0,0h0s0,0,0,0h0l0,0h0s0,0,0,0,0,0,0,0h0a.07.07,0,0,1,0,0,.18.18,0,0,0-.09,0h0a.35.35,0,0,0-.15.07h0l0,0s0,0,0,0-.07,0-.1,0a0,0,0,0,1,0,0,.06.06,0,0,1,0,0s0,0,0,0a.19.19,0,0,0,0,.08l0,0h0a.05.05,0,0,1,0,0,.31.31,0,0,0-.07.09s0,0,0,0A.27.27,0,0,0,4,3.69s0,0,0,0,0,0-.07,0-.05,0-.07.07v0s0,0,0,0v0h0v0l0,0s0,0,0-.05l0,0s0,.06,0,.09h0v0s0,0,0,0H3.51a0,0,0,0,1,0,.05l0,0s0,0,0,0h0a0,0,0,0,0,0,0v.06H3.36s0,0,.05,0l0,.07,0,0s0,0,0,0l0,0s0,0-.07,0,0,0,0,.06h0l0,0s0,0,0,0v0h0s0,0-.06,0a0,0,0,0,1,0,0h0l0,0s0,0,0,0h0a.08.08,0,0,1-.05.11v0h0v.07h0s0,0,0,0,0,0,0,0H3l.05.05,0,0s0,0,0,0l0,0a.09.09,0,0,1,0,0h0v0s0,0,0,0l0,0h0l0,0h0s0,0,0,0,0,0,0,0l-.07,0h0s0,0,0,0v0l0,0,0,0h0s0,0,0,0,0,0-.06,0l0-.06h0s0,0,0,0l0,0v0a.06.06,0,0,0,0,0l0,0s0,0,0-.07h0l0,0h0a0,0,0,0,1,0-.06h0s0,0,0,0,0,0,0,0,0,0,0,0l0,0s0,0,0,0,0,0,0,0h0l0,0h0s0,0,0,0,0,0,0,0l-.05,0s0,0,0,0l0-.13h0s0,0,0,0,0,0,0,0l.07,0h0L2.77,4h0s0,0,0,0l0,0s0,0,0-.05h0v0h0s0,0,0,0h0l0,0H2.78s.06,0,.09-.06,0,0-.09,0,0,0,.05-.06,0,0,0,0h0s.06,0,.08,0H3l0,0,0,0s0,0,0,0v0s0,0,0,0l0,0s0,0,0,0,0,0,0,0a.05.05,0,0,1,0,0v0h0l0-.06h0v0s0,0,0,0H3l0,0a0,0,0,0,1,0,0,0,0,0,0,0,0,0H3v0H2.91s0,0,.06,0H3s0,0,0,0,0,0,0-.07,0,0,.05,0h0l0,0h0l.06,0h0l0-.05h-.1s0,0-.06,0v0a.06.06,0,0,1,.07,0h.06c0,.06,0,.06.05,0h0l0,0,0,0h0l0,0s0,0,0,0l0,0h0l.05,0A.05.05,0,0,0,3.1,3h0s0,0,0,0,0,0,0,0H3s0,0,.06-.07,0,0,0,0,0,0,.05,0h0s0,0,0,0,0,0,0,0l0,0h0l0,0a0,0,0,0,1,0,0,.11.11,0,0,0,0-.08l0,0,.08-.07a0,0,0,0,1,0-.06l0,0,.06-.08,0,0h0l0,0h0l-.06,0s0,0,0,0,0,0,0,0l0,0,0,.05H3s0,0,0-.05a.1.1,0,0,1,0,0H3A.1.1,0,0,1,3,2.28s0,0,.06,0,0,0,0-.06a.44.44,0,0,1,.11-.09L3.31,2,3.4,2l.05,0h0l.11-.1,0,0s0,0-.07,0l.07-.05.11-.08,0,0,.08,0h0S4,1.54,4,1.5l.09-.06h0l0,0h0s0,0,0,0,0,0,0,0a.14.14,0,0,1,.08-.05l.09,0,0,0s0,0,0,0h0l-.07.07h0l0,0,0,0,.05,0s0,0,.06-.05a.12.12,0,0,1,.06-.06s0,0,0,0,0,0,0,0a.07.07,0,0,0,0,.05h0s0,0,0,0h0s0,0,0-.05v0s0-.06.07-.05,0,0,0,0a0,0,0,0,0,0,0s.05,0,.06,0l.07,0s0,0,.08,0H5s0,0,0,0,0,0,0,0l0,0s0-.05.08,0h0s.11,0,.17,0h.13a.2.2,0,0,1,.11,0L5.57,1h0l.11,0s0,0,0,0L5.62,1h.06a.19.19,0,0,1,.13,0h.05l0,0a.73.73,0,0,1-.2.05l-.12,0h-.1a.28.28,0,0,0-.12,0l-.12,0h0l0,0a.93.93,0,0,1,.43-.11s0,0,0,0l-.06,0s0,0,0,0l.09,0h.07a.07.07,0,0,0,0,0s0,0,0,0h.07a.08.08,0,0,1,0,0l-.06.05,0,0-.09,0s0,0,0,0l0,0,0,0a.05.05,0,0,0,0,0s0,0,0,0ZM5.27,1a0,0,0,0,0,.06,0h0l.09,0h0a.1.1,0,0,1-.09,0h0s0,0,0,0ZM3.11,2.23h.06l0,0s0,0-.07,0Zm1.75-1.1s0,0,0,0a0,0,0,0,1,0,0h0l0-.06Zm.43,1.05s0-.05,0-.05v0l0,0ZM5.18,1.05s0,0,.05,0Zm0,1.17v0h0l0,0Zm.14-.85,0,0h0s0,0,0,0ZM2.94,4.62h0l0,0H3a0,0,0,0,1,0,0Zm1.81-2h0l0,0s0,0,0,0Zm-2,1.28s0,0,0,0Zm.06-.07h0S2.87,3.78,2.85,3.8Zm.3-.69s0,0,0,0h0Zm1.39,0s0,0,0,0Zm.39-.6h0l0,0h0ZM2.82,4h0Zm0-.1h0Zm.39-.84Zm1.66-.39h0Zm.25-.21h0Z"/><path class="cls-2" d="M1.1,10.1a.08.08,0,0,0,0-.07.13.13,0,0,1,0-.06h0s0,0,0,0,0,0,0,.07,0,0,0,0h.07s0,0,0,0v0s0,0,0,0,0,0,.06,0l0,0a.07.07,0,0,1,.12,0h0a.1.1,0,0,0,.05.06l0,0a.07.07,0,0,1,0,.08h0s.06,0,.09.07l0,0a.11.11,0,0,1,.05.09s0,0,.05,0l0,.05.05,0H2a.14.14,0,0,1,.08,0h0a.06.06,0,0,1,.05,0s0,0,.07.06l.06.06a.08.08,0,0,1,0,.05.21.21,0,0,0,.06.1s0,0,0,.06h0s0,.05,0,.08l0,0h0a0,0,0,0,1,0,0v0h0v0l0,0v0l.13,0a.15.15,0,0,1,0,.07s0,0,0,0h0v0h0s0,0,0,0l0,0s0,0,0,0l.15.09a.09.09,0,0,0,0,0l0,0,0,.07h.07l.08,0,.06,0,.05,0a.09.09,0,0,1,.07,0l.06,0,0,0,.06.07,0,0,.08.06h0l.06,0,0,0a.2.2,0,0,1,0,.08l0,0s0,0,0,0v0a.1.1,0,0,1,0,.1v0a.1.1,0,0,1-.07,0v.08s0,0,0,0v0h0a.08.08,0,0,0,0,.07c0,.06,0,.11.06.17s0,0,0,.06,0,.06,0,.09l0,.08,0,0H3.52l-.06,0s0,0,0,0-.06,0-.09,0h0s0,0,0,0l0,0a0,0,0,0,1,0,.05s0,0,0,0,0,0,0,0,0,0,0,0l-.41-.35-.36-.35a6.66,6.66,0,0,1-.68-.83,7.56,7.56,0,0,1-.44-.71l-.12-.23a.65.65,0,0,1,0-.13s0,0,0,0l-.06-.16,0-.06-.06-.14v0L1,10H1v0s0,0,0,0l0,0,0,.07Zm.11,0s0,.05,0,.07S1.22,10.13,1.21,10.11Z"/><path class="cls-2" d="M6.34,4.88a.11.11,0,0,1,0,.09A.09.09,0,0,0,6.23,5h0a.21.21,0,0,1,.11,0h0s0,0,0,0l0,0c0,.06,0,.08-.08.12l0,0-.1,0a.11.11,0,0,0,.1,0l0,0a0,0,0,0,1,0,0l0,0s0,0,0,0,0,0,0,0h0l.06,0h0a.24.24,0,0,0,0,.08v0s0,0,0,0,0,.05,0,.09h.06c.07,0,.07,0,.1.06l0,.06v0s0,0-.06,0a0,0,0,0,0,0,0h.06a.06.06,0,0,1,0,0L6.63,6H6.48a.06.06,0,0,1-.07,0l0,0h0s-.06,0-.09,0h0s0,0,0,0a.06.06,0,0,0-.09,0H6.06s0,0,0,0h0A.87.87,0,0,1,6.19,6s0,0,0,0h0s0,0,.08,0h0s0,0,0,0,0,0-.06,0,0,0,0,0h0v0h0s.06,0,.08,0a.07.07,0,0,0,0-.09l0,0h0l0-.07h.1l0,0v0s0,0,0,0,0,0,0,0,0,0,0-.06l0,0h0s0,0,0,0H6.14a0,0,0,0,1,0,0,.1.1,0,0,0,0-.09s0,0,0,0,0,0,0,0,0,0,0,0v0s0,0,0,0,0,0,0-.07,0,0,0,0h0s0,0,0,0h0l0,0s0,0,0,0l0,0V5s0,0,0,0,0,0,0-.06a.13.13,0,0,0,0-.06s.09,0,.13,0Z"/><path class="cls-2" d="M4.81,3.74l0,0h0l-.06,0h.07s0,.06,0,.06v0a0,0,0,0,1,0,0s0,0,0,0,0,0,0,0,0,0,0,0l0,0,0,0a0,0,0,0,0,0,0,.2.2,0,0,0,0-.07l0,0s0,.06,0,.07,0,0,0,0l0,0s0,0,0,0,0,0,0,.06,0,0,0,0a0,0,0,0,1,0,0h0l0,0,0,0h.06s0,0,0,0l0,.06s0,0,0,0,0,0,0,0l0,.05h0s0,0,0,0,0,0,0,0h0s0,0,0,0l0,0s0,0,0,0,0,0,0,0l0,0h0s0,0,0,0l0,0h0l0,0s-.07,0-.1.08h0l0,0h0s0,0,0,0a.08.08,0,0,1,0,0h0s-.07,0-.11,0h0s0,0,0,0a.08.08,0,0,0-.09,0h0s0,0,0,0h0a.13.13,0,0,1,0-.06s0,0,0,0h0l0,0h0l0,0s-.06,0,0,0H4.68s0,0,0,0,0,0,0,0h.09l.07,0a0,0,0,0,0,0,0H4.77l.08,0h0v0h0a0,0,0,0,1,0,0h0s0,0-.06,0,0,0,0,0v0s0,0,0,0v0l0,0h0v0s0,0,0,0l0,0h0v0s0,0,0,0Z"/><path class="cls-2" d="M6,5.59a.09.09,0,0,1,0,.07v.09a1,1,0,0,0,0,.1H5.92l-.08,0L5.74,6H5.66v0s0,0-.06,0l0,0h0s0,0,0,0l0,0,0,0h0s0,0,0,0l0,0-.05,0,0,0s0,0,0,0,0,0,0,0l0,0s0,0,0,0,0,0,.08,0h0l0,0-.06,0h0l0,0h0s0,0,0,0,0,0,.07,0l0,0H6l0,.09s0,0,0,0,0,0,0,0l0,0Zm-.29.19h0Z"/><path class="cls-2" d="M12.27,3.29a.09.09,0,0,1,.08,0l.05.06s0,0,0,0,0,0,0,.07,0,0,0,0h0l-.05,0a0,0,0,0,1,0,0v0s0,0,0-.06a0,0,0,0,0,0,0,.5.5,0,0,1-.07-.08Z"/><path class="cls-2" d="M11.45,8.6s.06,0,.1,0A.14.14,0,0,1,11.45,8.6Z"/><path class="cls-2" d="M12.6,3.25l-.07,0h0l.06.05Z"/><path class="cls-2" d="M8.2,4.53s0,0,0,0h0v0l0,0Z"/><path class="cls-2" d="M8.17,4.58h0S8.16,4.58,8.17,4.58Z"/><path class="cls-2" d="M11,12.82l0,0a.05.05,0,0,1,.06-.06s0,0,0,0l0,0v0h0s0,0,0,0h0s.05,0,.06-.07,0,0,0,0h0l0,0a.24.24,0,0,0,0,.08v0a.24.24,0,0,0,0,.08s0,0,0,.06l0,0h0a.14.14,0,0,1-.05.1s0,.07-.05.1-.09.1-.13.16l-.14.17s0,.06-.08.07h0l-.13.06a.08.08,0,0,1-.08,0v0a.43.43,0,0,0,0,0,.08.08,0,0,1,0-.08l0,0a.52.52,0,0,0,.1-.11,0,0,0,0,0,0,0v0a.07.07,0,0,1,0-.08s0,0,0,0h0l0,0,.07,0,0,0Z"/><path class="cls-2" d="M14.29,9.79v0h0v0Z"/><path class="cls-2" d="M1.35,6.8h0l0,0Z"/><path class="cls-2" d="M1.33,4.34a0,0,0,0,1,0,0S1.32,4.35,1.33,4.34Z"/><path class="cls-2" d="M1.53,5.09s0,0,0,0,0,0,0,0Z"/><path class="cls-2" d="M1.11,6.61v0h0l0,0Z"/><path class="cls-2" d="M.82,7.53v0h0v0Z"/><path class="cls-2" d="M2.82,3.67h0l0,0a0,0,0,0,1,0,0s0,0,0,0l0,0s0,0,0,0H3l0,0,0,0H3s0,0-.07,0h0l0,0Z"/><path class="cls-2" d="M5.27,1s0,0,0,0h0a.14.14,0,0,0,.09,0l0,0h0l-.1,0a0,0,0,0,0,0,0,.06.06,0,0,1-.06,0Z"/><path class="cls-2" d="M3.11,2.23v0s0,0,.07,0l0,0Z"/><path class="cls-2" d="M4.86,1.13h0l0,.06h0a0,0,0,0,0,0,0S4.87,1.14,4.86,1.13Z"/><path class="cls-2" d="M4.87,2.56h0l0,0,0,0,.08,0Z"/><path class="cls-2" d="M5.29,2.18l0,0v0s0,0,0,.05Z"/><path class="cls-2" d="M2.77,4l0,0h0L2.77,4Z"/><path class="cls-2" d="M5.18,1.05l.05,0S5.2,1.06,5.18,1.05Z"/><path class="cls-2" d="M3,3.55v0H3a0,0,0,0,1,0,0Z"/><path class="cls-2" d="M4.07,1.46s0,0,0,0h0s0,0,0,0Z"/><path class="cls-2" d="M5.22,2.22l0,0h0v0Z"/><path class="cls-2" d="M5.36,1.37s0,0,0,0h0l0,0Z"/><path class="cls-2" d="M5.45,1.3s0,0,0,0l0,0Z"/><path class="cls-2" d="M2.94,4.62l0,0H3l0,0Z"/><path class="cls-2" d="M4.75,2.59s0,0,0,0l0,0Z"/><path class="cls-2" d="M2.79,3.87l0,0S2.76,3.87,2.79,3.87Z"/><path class="cls-2" d="M2.75,4.18s0,0,0,0Z"/><path class="cls-2" d="M2.85,3.8s0,0,0,0Z"/><path class="cls-2" d="M3.15,3.11h0s0,0,0,0Z"/><path class="cls-2" d="M4.54,3.06h0S4.52,3.05,4.54,3.06Z"/><path class="cls-2" d="M4.93,2.46h0v0Z"/><path class="cls-2" d="M5.49,1.28s0,0,0,0h0l0,0Z"/><path class="cls-2" d="M2.77,4s0,0,0,0l0,0Z"/><path class="cls-2" d="M3,3.63v0s0,0,0,0Z"/><path class="cls-2" d="M2.82,4h0Z"/><path class="cls-2" d="M2.77,3.92h0Z"/><path class="cls-2" d="M3.16,3.08h0Z"/><path class="cls-2" d="M4.82,2.69h0Z"/><path class="cls-2" d="M5.07,2.48h0Z"/><path class="cls-2" d="M1.21,10.11s0,0,0,.07S1.2,10.14,1.21,10.11Z"/><path class="cls-2" d="M4.81,3.74s0,0,0,0v0Z"/><path class="cls-2" d="M5.72,5.78h0Z"/></svg>