<svg id="Layer_1" data-name="Layer 1" xmlns="http://www.w3.org/2000/svg" viewBox="0 0 16.67 16.18"><defs><style>.cls-1{fill:#007853;}</style></defs><path class="cls-1" d="M14.85,10.24a1.81,1.81,0,0,1-.53,1.29.45.45,0,0,1-.29.12.43.43,0,0,1-.38-.25.43.43,0,0,1,.09-.45,1,1,0,0,0,0-1.41A.41.41,0,0,1,14.32,9a1.81,1.81,0,0,1,.53,1.28Z"/><path class="cls-1" d="M7,6.64,5.53,5.22l0,0Z"/><path class="cls-1" d="M15.21,6.67,15,6.41,12.42,3.86a1.5,1.5,0,0,0-1.77-.25L8.73,1.68h0a1.61,1.61,0,0,0-2.26,0,1.55,1.55,0,0,0-.41.71A1.6,1.6,0,0,0,3.9,4.74l.09.1H4a1.61,1.61,0,0,0-.7,2.68l.28.27a1.55,1.55,0,0,0-.7.41,1.61,1.61,0,0,0,0,2.26l4,4A5.71,5.71,0,0,0,11,16.18h0a5.66,5.66,0,0,0,4-1.65,5.75,5.75,0,0,0,.19-7.86Zm-.78,7.27a4.91,4.91,0,0,1-6.95,0l-4-4a.77.77,0,0,1-.22-.55.82.82,0,0,1,.22-.56.82.82,0,0,1,1.11,0l2.82,2.82a.41.41,0,0,0,.56,0A.43.43,0,0,0,8,11L5.13,8.19,3.87,6.93h0a.78.78,0,0,1,0-1.11A.82.82,0,0,1,5,5.82L8.44,9.28A.4.4,0,1,0,9,8.71L4.47,4.16a.78.78,0,0,1,0-1.1.82.82,0,0,1,1.11,0L9.53,7a.42.42,0,0,0,.57,0,.41.41,0,0,0,0-.58l-2-2-1-1A.8.8,0,0,1,7,2.26a.82.82,0,0,1,1.11,0l1.93,1.93A1.47,1.47,0,0,0,10.33,6L11.38,7a2.3,2.3,0,0,0,0,2.88l0,0a.4.4,0,0,0,.55,0,.42.42,0,0,0,.14-.27.4.4,0,0,0-.09-.3,1.49,1.49,0,0,1,.09-2l0,0a.43.43,0,0,0,.16-.3.39.39,0,0,0-.12-.32L10.9,5.37a.67.67,0,0,1,.93-.94L14.38,7l.2.22h0a4.91,4.91,0,0,1-.15,6.73Z"/><path class="cls-1" d="M14.85,10.24a1.81,1.81,0,0,1-.53,1.29.45.45,0,0,1-.29.12.43.43,0,0,1-.38-.25.43.43,0,0,1,.09-.45,1,1,0,0,0,0-1.41A.41.41,0,0,1,14.32,9a1.81,1.81,0,0,1,.53,1.28Z"/><path class="cls-1" d="M13.19,3.62a.41.41,0,0,1-.41-.41,1,1,0,0,0-1-1,.41.41,0,0,1-.41-.41.41.41,0,0,1,.41-.41A1.82,1.82,0,0,1,13.6,3.21a.43.43,0,0,1-.12.29.4.4,0,0,1-.29.12Z"/><path class="cls-1" d="M14.58,3.54a.41.41,0,0,1-.4-.41A2.31,2.31,0,0,0,11.86.82a.42.42,0,0,1-.41-.41A.41.41,0,0,1,11.86,0,3.13,3.13,0,0,1,15,3.14a.4.4,0,0,1-.12.28.42.42,0,0,1-.3.12Z"/><path class="cls-1" d="M3.22,13.58a1.81,1.81,0,0,1-1.81-1.81.41.41,0,0,1,.41-.41.41.41,0,0,1,.41.41,1,1,0,0,0,1,1,.41.41,0,1,1,0,.81Z"/><path class="cls-1" d="M3.14,15A3.14,3.14,0,0,1,0,11.85a.41.41,0,0,1,.41-.41.41.41,0,0,1,.41.41,2.32,2.32,0,0,0,2.32,2.32.41.41,0,1,1,0,.81Z"/></svg>