<?xml version="1.0" encoding="utf-8"?>
<!-- Generator: Adobe Illustrator 24.1.3, SVG Export Plug-In . SVG Version: 6.00 Build 0)  -->
<svg version="1.1" id="Layer_1" xmlns="http://www.w3.org/2000/svg" xmlns:xlink="http://www.w3.org/1999/xlink" x="0px" y="0px"
	 viewBox="0 0 97 96.9" style="enable-background:new 0 0 97 96.9;" xml:space="preserve">
<style type="text/css">
	.st0{fill:#FFFFFF;}
</style>
<g>
	<path class="st0" d="M48.4,26.5c-12.1,0-21.9,9.8-21.9,21.9s9.8,21.9,21.9,21.9s21.9-9.8,21.9-21.9S60.5,26.5,48.4,26.5z
		 M48.4,67.2c-10.3,0-18.8-8.4-18.8-18.8s8.5-18.8,18.8-18.8s18.8,8.5,18.8,18.8S58.7,67.2,48.4,67.2z"/>
	<path class="st0" d="M48.4,35.9c-6.9,0-12.5,5.6-12.5,12.5s5.6,12.5,12.5,12.5s12.5-5.6,12.5-12.5S55.3,35.9,48.4,35.9z M48.4,57.8
		c-5.2,0-9.4-4.2-9.4-9.4c0-5.2,4.2-9.4,9.4-9.4s9.4,4.2,9.4,9.4C57.8,53.6,53.6,57.8,48.4,57.8z"/>
	<path class="st0" d="M89,81.2c-1.6,0-3.1,0.5-4.3,1.3l-12-12l3.1-3.1l-3-5.1c1.2-2.1,2.1-4.3,2.7-6.6l5.7-1.5v-4.3h6.5
		c0.6,1.8,2.4,3.1,4.4,3.1c2.6,0,4.7-2.1,4.7-4.7c0-2.6-2.1-4.7-4.7-4.7c-2,0-3.8,1.3-4.4,3.1h-6.5v-3.3l4.2-4.2
		c0.6,0.3,1.3,0.5,2,0.5c2.6,0,4.7-2.1,4.7-4.7c0-2.6-2.1-4.6-4.6-4.6s-4.7,2.1-4.7,4.7c0,0.7,0.2,1.4,0.5,2l-4.7,4.7l-3-0.8
		c-0.6-2.3-1.5-4.5-2.7-6.6l3-5.1l-3.1-3.1L77,22c1.2,0.8,2.7,1.3,4.3,1.3c4.3,0,7.8-3.5,7.8-7.8s-3.5-7.8-7.8-7.8s-7.9,3.6-7.9,7.9
		c0,1.6,0.5,3.1,1.3,4.3l-4.2,4.2L67.4,21l-5.1,3c-2.1-1.2-4.3-2.1-6.6-2.7l-1.5-5.7h-4.3V9.1C51.7,8.5,53,6.7,53,4.7
		C53,2.1,50.9,0,48.3,0s-4.7,2.1-4.7,4.7c0,2,1.3,3.8,3.1,4.4v6.5h-4.3l-0.9,3.5l-6.1-6.2c0.3-0.6,0.5-1.3,0.5-2
		c0-2.6-2.1-4.7-4.7-4.7s-4.7,2.1-4.7,4.7s2.1,4.7,4.7,4.7c0.7,0,1.4-0.2,2-0.5l6.5,6.5c-1.9,0.6-3.6,1.4-5.3,2.4l-5.1-3l-3.1,3.1
		l-12-12c0.8-1.2,1.3-2.7,1.3-4.3C15.5,3.5,12,0,7.7,0S0,3.5,0,7.8s3.5,7.8,7.8,7.8c1.6,0,3.1-0.5,4.3-1.3l12,12L21,29.4l3,5.1
		c-1,1.7-1.8,3.5-2.4,5.3l-5-5c0.3-0.6,0.5-1.3,0.5-2c0-2.6-2.1-4.7-4.7-4.7s-4.7,2.1-4.7,4.7c0,2.6,2.1,4.7,4.7,4.7
		c0.7,0,1.4-0.2,2-0.5l4.6,4.6l-3.5,0.9v4.3h-3.4c-0.6-1.8-2.4-3.1-4.4-3.1c-2.6,0-4.7,2.1-4.7,4.7c0,2.6,2.1,4.7,4.7,4.7
		c2,0,3.8-1.3,4.4-3.1h3.4v4.3l5.7,1.5c0.6,2.3,1.5,4.5,2.7,6.6l-3,5.1l3.1,3.1l-4.2,4.2c-1.2-0.8-2.7-1.3-4.3-1.3
		c-4.3,0-7.8,3.5-7.8,7.8s3.5,7.8,7.8,7.8s7.8-3.5,7.8-7.8c0-1.6-0.5-3.1-1.3-4.3l4.2-4.2l3.1,3.1l5.1-3c2.1,1.2,4.3,2.1,6.6,2.7
		l1.5,5.7h4.3v3.4c-1.8,0.6-3.1,2.4-3.1,4.4c0,2.6,2.1,4.7,4.7,4.7s4.7-2.1,4.7-4.7c0-2-1.3-3.8-3.1-4.4v-3.4h4.3l1.5-5.7
		c0.1,0,0.2-0.1,0.3-0.1l8.5,8.5c-0.3,0.6-0.5,1.3-0.5,2c0,2.6,2.1,4.7,4.7,4.7s4.7-2.1,4.7-4.7s-2.1-4.7-4.7-4.7
		c-0.7,0-1.4,0.2-2,0.5l-7.4-7.4c1-0.4,2.1-0.9,3.1-1.5l5.1,3l3.1-3.1l12,12c-0.8,1.2-1.3,2.7-1.3,4.3c0,4.3,3.5,7.8,7.8,7.8
		s7.8-3.5,7.8-7.8S93.3,81.2,89,81.2L89,81.2z M92.2,46.8c0.9,0,1.6,0.7,1.6,1.6c0,0.9-0.7,1.6-1.6,1.6s-1.6-0.7-1.6-1.6
		C90.6,47.5,91.3,46.8,92.2,46.8z M81.2,10.9c2.6,0,4.7,2.1,4.7,4.7s-2.1,4.7-4.7,4.7s-4.7-2.1-4.7-4.7S78.6,10.9,81.2,10.9z
		 M48.4,3.1c0.9,0,1.6,0.7,1.6,1.6s-0.7,1.5-1.6,1.5s-1.6-0.7-1.6-1.6S47.5,3.1,48.4,3.1z M3.1,7.8c0-2.6,2.1-4.7,4.7-4.7
		s4.7,2.1,4.7,4.7s-2.1,4.7-4.7,4.7S3.1,10.4,3.1,7.8z M7.8,50c-0.9,0-1.6-0.7-1.6-1.6c0-0.9,0.7-1.6,1.6-1.6s1.6,0.7,1.6,1.6
		C9.4,49.3,8.6,50,7.8,50z M15.6,85.9c-2.6,0-4.7-2.1-4.7-4.7s2.1-4.7,4.7-4.7s4.7,2.1,4.7,4.7S18.2,85.9,15.6,85.9z M48.4,90.6
		c-0.9,0-1.6-0.7-1.6-1.6s0.7-1.6,1.6-1.6S50,88.1,50,89S49.3,90.6,48.4,90.6z M68.7,84.3c0.9,0,1.6,0.7,1.6,1.6s-0.7,1.6-1.6,1.6
		s-1.6-0.7-1.6-1.6S67.8,84.3,68.7,84.3z M87.5,33.6c0.9,0,1.6,0.7,1.6,1.6c0,0.9-0.7,1.6-1.6,1.6s-1.6-0.7-1.6-1.6
		C85.9,34.3,86.6,33.6,87.5,33.6z M31.2,12.5c-0.9,0-1.6-0.7-1.6-1.6s0.7-1.6,1.6-1.6c0.9,0,1.6,0.7,1.6,1.6S32.1,12.5,31.2,12.5z
		 M12.5,34.3c-0.9,0-1.6-0.7-1.6-1.6c0-0.9,0.7-1.6,1.6-1.6s1.6,0.7,1.6,1.6C14.1,33.6,13.3,34.3,12.5,34.3z M66.9,71.8l-4.6-2.7
		l-0.8,0.5c-2.3,1.4-4.8,2.5-7.4,3.1l-0.9,0.2l-1.3,5.2h-7l-1.3-5.2l-0.9-0.2c-2.6-0.6-5.1-1.7-7.4-3.1l-0.8-0.5l-4.6,2.7L25,66.9
		l2.7-4.6l-0.5-0.8c-1.4-2.3-2.5-4.8-3.1-7.4l-0.2-0.9l-5.2-1.3v-7l5.2-1.3l0.2-0.9c0.6-2.6,1.6-5.1,3.1-7.4l0.5-0.8L25,29.9
		l4.9-4.9l4.6,2.7l0.8-0.5c2.3-1.4,4.8-2.5,7.4-3.1l0.9-0.2l1.3-5.2h7l1.3,5.2l0.9,0.2c2.6,0.6,5.1,1.7,7.4,3.1l0.8,0.5l4.6-2.7
		l4.9,4.9l-2.7,4.6l0.5,0.8c1.4,2.3,2.5,4.8,3.1,7.4l0.2,0.9l5.1,1.3v7l-5.2,1.3l-0.2,0.9c-0.6,2.6-1.6,5.1-3.1,7.4L69,62.3l2.7,4.6
		L66.9,71.8z M89,93.7c-2.6,0-4.7-2.1-4.7-4.7s2.1-4.7,4.7-4.7s4.7,2.1,4.7,4.7S91.6,93.7,89,93.7z"/>
</g>
</svg>
