<?xml version="1.0" encoding="UTF-8"?><svg id="a" xmlns="http://www.w3.org/2000/svg" viewBox="0 0 207.59 150.15"><defs><style>.b{fill:#e3f4e9;}.c{fill:#90d5ac;}.d{fill:#bedcd0;}.e{fill:#bde5cc;}</style></defs><g><path class="b" d="M108.77,6.99c-.46,0-.88,.07-1.27,.22-1.22,.44-2.25,1.67-3.07,3.56-.05,.08-.05,.17-.09,.25-.03,.06-.07,.11-.11,.17-2.8,7.18-2.53,23.19,3.15,44.6,1.54-.32,3.11-.53,4.69-.53,12.23,0,22.18,9.92,22.18,22.1,0,8.09-4.46,15.42-11.37,19.28,3.8,7.49,7.84,14.19,11.96,19.63,4.95,6.54,9.07,10.08,12.17,11.65,1.49,.45,2.55,.79,3.16,1,.55,.03,1.06,0,1.47-.14h0c6.88-2.51,8.08-29.13-5.58-66.78C133.16,26.47,116.41,6.99,108.77,6.99Z"/><path class="b" d="M106.5,76.38c-6.59-18.12-10.87-37.17-11.03-51.74C67.77,62.92,29.75,76.61,19.9,79.61c-.52,6.41-.25,27.08,18.66,50.24h0c39.91-11.99,74.24-9.1,94.1-5.33-1.13-1.31-2.25-2.51-3.41-4.04-8.34-11.02-16.41-26.69-22.75-44.11Z"/><path class="e" d="M127.23,77.37c0-8.33-6.8-15.09-15.18-15.09-.93,0-1.86,.1-2.77,.26,1.12,3.69,2.36,7.49,3.8,11.44,2.06,5.67,4.35,11.02,6.73,16.18,4.48-2.7,7.44-7.44,7.42-12.79Z"/><path class="d" d="M10.12,114.01h0c.3,.75,7.26,17.31,20.62,17.34-15.16-19.88-17.9-37.69-18.01-47.41-4.39,4.52-8.94,13.57-2.61,30.08Z"/></g><path class="c" d="M105.08,.63h0c-3.08,1.13-5.32,3.6-6.88,7.01C68.74,59.47,16.38,73.34,15.86,73.48c-.05,.02-.09,.07-.14,.08-.11,.02-.2,.02-.3,.05-.25,.1-24.35,10.22-11.8,42.95,3.36,8.3,12.86,21.82,27.17,21.82,1.38,0,2.81-.17,4.28-.43l.83,2.13c2.38,6.14,8.3,10.06,14.69,10.06,.95,0,1.92-.09,2.88-.27l24.12-4.48c4.52-.84,8.43-3.59,10.75-7.56,1.68-2.88,2.35-6.19,2.05-9.43,26.88-.83,46.98,4.03,54.62,6.24,.76,.33,1.48,.47,2.21,.66,.69,.22,1.18,.38,1.22,.4,.52,.2,1.05,.23,1.57,.16,.14,0,.29,.09,.43,.09,1.24,0,2.43-.21,3.58-.62,15.14-5.51,10.74-42.27-1.41-75.74C140.45,26.14,120.25-4.84,105.08,.63ZM10.12,114.01h0c-6.33-16.51-1.78-25.56,2.61-30.08,.11,9.72,2.85,27.53,18.01,47.41-13.36-.03-20.32-16.59-20.62-17.34Zm72.18,20.32h0c-1.29,2.21-3.46,3.75-5.98,4.2l-24.13,4.48c-4.12,.78-8.26-1.52-9.78-5.44l-.54-1.38c14.69-4.3,28.64-6.52,41.35-7.38,.24,1.9,.06,3.83-.92,5.51Zm-43.74-4.47h0c-18.91-23.17-19.18-43.84-18.66-50.25,9.84-3,47.86-16.69,75.57-54.97,.16,14.56,4.44,33.61,11.03,51.74,6.33,17.43,14.41,33.09,22.75,44.11,1.16,1.53,2.29,2.72,3.41,4.04-19.86-3.78-54.19-6.67-94.1,5.33ZM109.28,62.54c.91-.16,1.83-.26,2.77-.26,8.38,0,15.18,6.76,15.18,15.09,.02,5.35-2.94,10.09-7.42,12.79-2.38-5.16-4.67-10.51-6.73-16.18-1.44-3.95-2.68-7.75-3.8-11.44Zm42.36,66.24h0c-.41,.15-.92,.17-1.47,.14-.62-.21-1.67-.54-3.16-1-3.1-1.57-7.23-5.11-12.17-11.65-4.12-5.44-8.16-12.14-11.96-19.63,6.91-3.86,11.37-11.18,11.37-19.28,0-12.18-9.95-22.1-22.18-22.1-1.58,0-3.15,.2-4.69,.53-5.68-21.41-5.94-37.41-3.15-44.6,.03-.06,.07-.11,.11-.17,.04-.08,.04-.17,.09-.25,.81-1.89,1.84-3.12,3.07-3.56,.39-.15,.81-.22,1.27-.22,7.64,0,24.39,19.49,37.29,55.01,13.66,37.65,12.46,64.27,5.58,66.78Z"/><path class="c" d="M160.99,47.82c.92,0,1.83-.36,2.51-1.07l21.83-22.67c1.34-1.39,1.3-3.61-.1-4.95-1.39-1.34-3.61-1.31-4.95,.1l-21.83,22.67c-1.34,1.39-1.3,3.61,.1,4.95,.68,.65,1.55,.97,2.43,.97Z"/><path class="c" d="M204.31,73.5h0l-31.4-1.95c-1.97,0-3.59,1.35-3.71,3.28-.12,1.92,1.35,3.59,3.28,3.71l31.4,1.95c.08,0,.15,0,.23,0,1.83,0,3.37-1.44,3.49-3.28,.11-1.93-1.35-3.59-3.28-3.71Z"/><path class="c" d="M171.1,61.98h0l24.67-9.46c1.81-.68,2.71-2.71,2.02-4.52-.69-1.8-2.72-2.71-4.52-2l-24.67,9.46c-1.81,.69-2.71,2.71-2.02,4.52,.54,1.39,1.86,2.25,3.27,2.25,.41,0,.84-.09,1.25-.24Z"/></svg>