<svg id="Layer_1" data-name="Layer 1" xmlns="http://www.w3.org/2000/svg" viewBox="0 0 272.87 330.71"><defs><style>.cls-1{fill:#fff;}</style></defs><path class="cls-1" d="M119.31,92l-.82,1.74a23.39,23.39,0,0,1-4.81,1.6,24.91,24.91,0,0,1-5.12.5,24.17,24.17,0,0,1-6-.73A16.53,16.53,0,0,1,97.63,93a13.89,13.89,0,0,1-3.41-3,12.48,12.48,0,0,1-2-3.65A13.06,13.06,0,0,1,91.51,82a12.33,12.33,0,0,1,4.67-9.88c3.11-2.62,7.37-3.92,12.75-3.92a29.79,29.79,0,0,1,3.54.19,38.9,38.9,0,0,1,4,.75c1.56.37,2.52.58,2.87.65a11.2,11.2,0,0,0-.7,2,26.86,26.86,0,0,0-.46,3.69h-1.32l0-2.21a3.37,3.37,0,0,0-2.28-2.73,16.06,16.06,0,0,0-6.06-.89,17.85,17.85,0,0,0-5.06.68,10.11,10.11,0,0,0-3.66,2,10.62,10.62,0,0,0-2.59,3.54,12.56,12.56,0,0,0-1,5.37A11.59,11.59,0,0,0,100,90.35q3.88,3.45,10.27,3.45a19.24,19.24,0,0,0,5.33-.71A13.22,13.22,0,0,0,119,91.57Z" transform="translate(-91.39 -57.59)"/><path class="cls-1" d="M116.92,95.25V94a12.21,12.21,0,0,0,2.07-.12,1.93,1.93,0,0,0,.75-.39,5.42,5.42,0,0,0,1-1.51q.39-.69,2.74-5.25l5.25-10.54c.58-1.15,1.8-3.73,3.68-7.73h1.35l9,18.74q2.19,4.56,2.91,5.72a2,2,0,0,0,.87.86,6.73,6.73,0,0,0,2.13.22v1.27c-2.18-.12-3.71-.18-4.58-.18l-6.77.18V94a23.18,23.18,0,0,0,2.86-.13,1.32,1.32,0,0,0,.68-.27.59.59,0,0,0,.18-.44,2.69,2.69,0,0,0-.3-1.06l-2.58-5.72H126l-2.28,4.8a5.16,5.16,0,0,0-.62,1.89.6.6,0,0,0,.17.43,1.43,1.43,0,0,0,.72.34,17.6,17.6,0,0,0,2.73.16v1.27c-2.37-.11-4.14-.16-5.32-.16C120,95.09,118.53,95.14,116.92,95.25Zm9.78-10.48h10.58l-5.22-11.25Z" transform="translate(-91.39 -57.59)"/><path class="cls-1" d="M146.55,95.25V94.06a9.46,9.46,0,0,0,2.91-.3.71.71,0,0,0,.42-.35,6,6,0,0,0,.3-2c.07-1.64.1-3.06.1-4.25V72a2.32,2.32,0,0,0-.08-.8,2.68,2.68,0,0,0-.76-.8,1.8,1.8,0,0,0-.87-.38,17.17,17.17,0,0,0-2.19-.1v-1.2c2.42,0,3.94.07,4.56.07,1.06,0,2.11,0,3.15-.07,1.18,1.38,2,2.4,2.59,3.06L161,76.53l6.26,6.78q3,3.24,4.83,5.11c.77.82,1.42,1.46,1.95,1.94V76.75c0-1.22,0-2.65-.15-4.28a6.13,6.13,0,0,0-.27-1.92.93.93,0,0,0-.44-.36,10.38,10.38,0,0,0-2.88-.27v-1.2c1.65,0,3.33.07,5,.07s3,0,4.35-.07v1.2a10,10,0,0,0-2.9.28.73.73,0,0,0-.42.37,5.63,5.63,0,0,0-.29,2c-.07,1.64-.11,3-.11,4.23v9q0,2.72.11,10.17l-2.17-.56-.5-.1a.61.61,0,0,1-.23-.11,6.88,6.88,0,0,1-.8-.75c-1.16-1.19-2-2.08-2.56-2.69l-2.71-3.08-14.89-16V87.11c0,1.23.05,2.69.15,4.36a6.73,6.73,0,0,0,.27,1.93.84.84,0,0,0,.44.37,9.86,9.86,0,0,0,2.88.29v1.19c-1.23-.08-2.59-.13-4.07-.13C150.21,95.12,148.45,95.17,146.55,95.25Z" transform="translate(-91.39 -57.59)"/><path class="cls-1" d="M173.2,95.25V94a12,12,0,0,0,2.07-.12,2,2,0,0,0,.76-.39A5.92,5.92,0,0,0,177,92q.38-.69,2.73-5.25L185,76.17c.57-1.15,1.8-3.73,3.67-7.73H190l9,18.74q2.17,4.56,2.9,5.72a2,2,0,0,0,.87.86,6.82,6.82,0,0,0,2.13.22v1.27c-2.18-.12-3.71-.18-4.58-.18l-6.77.18V94a23.18,23.18,0,0,0,2.86-.13,1.28,1.28,0,0,0,.68-.27.59.59,0,0,0,.18-.44,2.83,2.83,0,0,0-.29-1.06l-2.58-5.72H182.26L180,91.16a5.09,5.09,0,0,0-.61,1.89.56.56,0,0,0,.17.43,1.35,1.35,0,0,0,.71.34A17.6,17.6,0,0,0,183,94v1.27c-2.37-.11-4.14-.16-5.32-.16C176.3,95.09,174.81,95.14,173.2,95.25ZM183,84.77h10.58l-5.22-11.25Z" transform="translate(-91.39 -57.59)"/><path class="cls-1" d="M203.54,95.25v-.89c.81-.41,1.48-.79,2-1.12.08-.85.15-2,.21-3.53q.15-3.84.15-5.34V76.76c0-1.22,0-2.65-.11-4.29a5.92,5.92,0,0,0-.29-1.92.91.91,0,0,0-.45-.36,10.47,10.47,0,0,0-2.89-.27v-1.2c2,.06,3.85.09,5.42.09q1.8,0,4.92-.06c2.08,0,3.69-.07,4.84-.07a24.12,24.12,0,0,1,8.27,1.17,12.06,12.06,0,0,1,5.31,3.91,10.42,10.42,0,0,1,2.19,6.7,13.9,13.9,0,0,1-1,5.33,14.3,14.3,0,0,1-2.79,4.34,15.11,15.11,0,0,1-3.78,2.94,17.81,17.81,0,0,1-4.23,1.63,26.11,26.11,0,0,1-6.07.55c-.85,0-2,0-3.46-.06-1.9,0-3.15-.07-3.74-.07C207.18,95.12,205.68,95.17,203.54,95.25Zm6.49-2a32.92,32.92,0,0,0,4.87.35,23.17,23.17,0,0,0,4.67-.41A13.07,13.07,0,0,0,223,92a10.18,10.18,0,0,0,2.78-2.2,9.69,9.69,0,0,0,2.07-3.72,15.48,15.48,0,0,0,.72-4.7,12.06,12.06,0,0,0-1.39-6A9.11,9.11,0,0,0,223,71.6a18.36,18.36,0,0,0-7.73-1.33,41,41,0,0,0-5.25.35c0,.62-.08,1.7-.1,3.25l-.09,2.71V84l.06,5.79C209.92,90.7,210,91.83,210,93.22Z" transform="translate(-91.39 -57.59)"/><path class="cls-1" d="M227,95.25V94a12.27,12.27,0,0,0,2.08-.12,1.93,1.93,0,0,0,.75-.39,5.66,5.66,0,0,0,1-1.51q.38-.69,2.73-5.25l5.26-10.54c.58-1.15,1.8-3.73,3.68-7.73h1.34l9,18.74q2.19,4.56,2.9,5.72a2,2,0,0,0,.88.86,6.73,6.73,0,0,0,2.13.22v1.27c-2.19-.12-3.72-.18-4.58-.18l-6.77.18V94a22.82,22.82,0,0,0,2.85-.13,1.33,1.33,0,0,0,.69-.27.59.59,0,0,0,.18-.44,2.69,2.69,0,0,0-.3-1.06l-2.58-5.72H236.08l-2.28,4.8a5.3,5.3,0,0,0-.61,1.89.6.6,0,0,0,.17.43,1.39,1.39,0,0,0,.72.34,17.41,17.41,0,0,0,2.73.16v1.27c-2.37-.11-4.14-.16-5.32-.16C230.13,95.09,228.64,95.14,227,95.25Zm9.79-10.48h10.58l-5.23-11.25Z" transform="translate(-91.39 -57.59)"/><path class="cls-1" d="M258.76,94.33a37.35,37.35,0,0,0,.4-5.8h1.41a11.93,11.93,0,0,0,.35,3.22,3,3,0,0,0,1.16,1.06,10.85,10.85,0,0,0,2.48,1,11.19,11.19,0,0,0,3,.44,8.67,8.67,0,0,0,3.91-.88,5.69,5.69,0,0,0,3.43-5.3,5.09,5.09,0,0,0-.41-2.13,3.37,3.37,0,0,0-1.25-1.45,5.51,5.51,0,0,0-2.08-.78l-3.1-.38c-1.56-.18-2.88-.37-4-.58a9.54,9.54,0,0,1-3.22-1.4,6.09,6.09,0,0,1-1.67-2.11,6.41,6.41,0,0,1-.64-2.82,7.34,7.34,0,0,1,1.3-4.15,8.33,8.33,0,0,1,3.82-3,13.79,13.79,0,0,1,5.49-1.08,20,20,0,0,1,3.89.42A18.68,18.68,0,0,1,277,69.81a16.73,16.73,0,0,0-.42,2.19c-.09.68-.15,1.68-.19,3H275a17.58,17.58,0,0,0-.19-3.14,5,5,0,0,0-1.43-1.22,10,10,0,0,0-4.52-1.08A7,7,0,0,0,264,71.21a5.5,5.5,0,0,0-1.82,4.27,4,4,0,0,0,.66,2.46,4.48,4.48,0,0,0,2.33,1.39,23.67,23.67,0,0,0,3.78.67c1.75.21,3.32.43,4.72.67a8.53,8.53,0,0,1,2.92,1.24,5.48,5.48,0,0,1,1.55,1.89,5.8,5.8,0,0,1,.61,2.74A8.14,8.14,0,0,1,275.27,93a14,14,0,0,1-9,2.77A18.75,18.75,0,0,1,258.76,94.33Z" transform="translate(-91.39 -57.59)"/><path class="cls-1" d="M289,74.9h-1.3q0-4.45-.21-6.18l7.18.19c2.65,0,4.41.07,5.29.07s3.16,0,6.62-.11c2.5-.05,4.33-.1,5.48-.15-.17,1.39-.28,3.46-.34,6.18h-1.34l-.17-1.79c-.11-1.08-.19-1.7-.23-1.85a.58.58,0,0,0-.18-.32,1,1,0,0,0-.35-.15q-.28,0-2.1-.15t-2.85-.09H302a43.8,43.8,0,0,0-.21,4.84V86.31q0,2.53.06,5a5.42,5.42,0,0,0,.3,2.11,1.39,1.39,0,0,0,.78.49,16.78,16.78,0,0,0,3,.2v1.19c-2.51-.1-4.39-.15-5.65-.15q-.82,0-6.55.15V94.06a16.67,16.67,0,0,0,3-.2,1.25,1.25,0,0,0,.74-.44,4,4,0,0,0,.33-1.81c0-.26,0-2,.11-5.3V75.42c0-.52,0-1.09-.05-1.71l-.12-3.16h-3.13a37.29,37.29,0,0,0-4.3.19,1,1,0,0,0-.66.24,6.21,6.21,0,0,0-.42,2Z" transform="translate(-91.39 -57.59)"/><path class="cls-1" d="M310.57,82.15a14.71,14.71,0,0,1,1-5.45,11.79,11.79,0,0,1,3.31-4.51,16,16,0,0,1,5.23-3,20.21,20.21,0,0,1,6.68-1,21.42,21.42,0,0,1,6.3.87,14.13,14.13,0,0,1,4.65,2.3,12,12,0,0,1,2.86,3.13,10.91,10.91,0,0,1,1.27,3,13.59,13.59,0,0,1,.47,3.68,13.37,13.37,0,0,1-4.75,10.48,17.5,17.5,0,0,1-12,4.19,19.15,19.15,0,0,1-6.15-1A12.61,12.61,0,0,1,314.6,92a12.1,12.1,0,0,1-3-4.56A14.59,14.59,0,0,1,310.57,82.15Zm4.36-1.55a17.28,17.28,0,0,0,.4,3.61,16.34,16.34,0,0,0,1,3.16A11.47,11.47,0,0,0,319,91.13a10.31,10.31,0,0,0,3.63,2.25,13.09,13.09,0,0,0,4.44.72,11.41,11.41,0,0,0,5.88-1.47,9.17,9.17,0,0,0,3.73-4.13,14.66,14.66,0,0,0,1.22-6.14,16.36,16.36,0,0,0-.88-5.48,10.89,10.89,0,0,0-1.45-2.77,10.05,10.05,0,0,0-2.15-2.17,11.37,11.37,0,0,0-3.24-1.56,14.26,14.26,0,0,0-4.31-.63A12.4,12.4,0,0,0,320,71.07a8.68,8.68,0,0,0-3.79,3.84A12.44,12.44,0,0,0,314.93,80.6Z" transform="translate(-91.39 -57.59)"/><path class="cls-1" d="M340.18,69.92v-1.2c2.81.09,5,.13,6.67.13,1.09,0,2.26,0,3.49,0l3.29-.11,1,0a16.61,16.61,0,0,1,5.25.66,6,6,0,0,1,3,2.08,5.25,5.25,0,0,1,1.07,3.26,6.66,6.66,0,0,1-.89,3.27,7.9,7.9,0,0,1-2.59,2.76,11.89,11.89,0,0,1-3.55,1.61,10.84,10.84,0,0,1-2.86.34,17.9,17.9,0,0,1-2.89-.26L350.72,81a14.61,14.61,0,0,0,2.94.4,6.76,6.76,0,0,0,3-.69,5,5,0,0,0,2.2-2,6,6,0,0,0,.79-3,5.65,5.65,0,0,0-.77-2.91,4.81,4.81,0,0,0-2.33-2,9.51,9.51,0,0,0-3.79-.68,16.22,16.22,0,0,0-4.28.64q-.2,2-.19,6.2v9.41q0,2.53.06,5a5.55,5.55,0,0,0,.31,2.11,1.39,1.39,0,0,0,.78.49,16.53,16.53,0,0,0,3,.2v1.19c-2.59-.08-4.49-.13-5.71-.13l-6.57.13V94.06a16.47,16.47,0,0,0,3-.2,1.35,1.35,0,0,0,.76-.44,4.41,4.41,0,0,0,.31-1.81c0-.26.05-2,.1-5.3V77.66c0-1.69,0-3.34-.06-5a5.23,5.23,0,0,0-.3-2.1,1.44,1.44,0,0,0-.78-.49A17.15,17.15,0,0,0,340.18,69.92Z" transform="translate(-91.39 -57.59)"/><rect class="cls-1" width="272.87" height="2"/><rect class="cls-1" y="185.77" width="272.87" height="2"/><rect class="cls-1" y="258.71" width="272.87" height="2"/><rect class="cls-1" y="328.71" width="272.87" height="2"/><path class="cls-1" d="M252.77,77.59l-.65-.38a16.51,16.51,0,0,0,3.41-8.48c1.09-.22,2.14-.53,3.14-.83l1.1-.3.56.49a31.79,31.79,0,0,1-5.63,8.59Z" transform="translate(-91.39 -57.59)"/><path class="cls-1" d="M91.49,251.84v-1.19l2.5,0,4,.08c.8,0,2,0,3.72-.07l3.8-.1a19.15,19.15,0,0,1,5.84.64,5.58,5.58,0,0,1,2.85,2.06,5.3,5.3,0,0,1,1,3.11,5.93,5.93,0,0,1-.95,3.12,7.35,7.35,0,0,1-2.74,2.58,15.06,15.06,0,0,1-4.67,1.59c.35.43,1.18,1.4,2.48,2.91l5.3,6.19a39,39,0,0,0,2.64,2.9,1.26,1.26,0,0,0,.37.18,5.66,5.66,0,0,0,1.39.1v1.19c-1.06-.08-2-.13-2.78-.13s-1.83.05-3,.13q-1.36-1.4-4.59-5.46-1.78-2.27-3.15-3.77c-1.48-1.67-2.88-3.18-4.22-4.54l.21-.56c.73,0,1.29.06,1.66.06a9,9,0,0,0,5.8-1.61,5.22,5.22,0,0,0,2-4.24,4.43,4.43,0,0,0-1.7-3.65,8.11,8.11,0,0,0-5.14-1.36,15.55,15.55,0,0,0-4.24.58c-.06.67-.1,1.3-.13,1.89q0,.25-.15,5.43v8.29c0,1.69,0,3.34.11,4.95a5.38,5.38,0,0,0,.28,2.11,1.39,1.39,0,0,0,.78.49,16.61,16.61,0,0,0,3,.2v1.19c-2-.08-3.81-.13-5.48-.13-1.34,0-3.6.05-6.78.13V276a16.71,16.71,0,0,0,3-.2,1.35,1.35,0,0,0,.75-.44,4.24,4.24,0,0,0,.31-1.81c0-.26.06-2,.11-5.3v-8.65c0-1.69,0-3.34-.07-5a5.23,5.23,0,0,0-.3-2.1,1.44,1.44,0,0,0-.78-.49A17.69,17.69,0,0,0,91.49,251.84Z" transform="translate(-91.39 -57.59)"/><path class="cls-1" d="M126.76,277.18V276a9.35,9.35,0,0,0,2.89-.3.72.72,0,0,0,.42-.36,5.88,5.88,0,0,0,.3-1.95c.08-1.65.12-3.06.12-4.26v-9.53c0-1.69,0-3.35-.06-5a5.2,5.2,0,0,0-.3-2.09,1.44,1.44,0,0,0-.78-.49,16.72,16.72,0,0,0-3-.2v-1.19l6,.11,6.34-.09q4.56-.06,6.61-.06a34.8,34.8,0,0,1,3.93.21,13,13,0,0,0-.46,1.85c0,.11-.16,1.41-.38,3.88H147a18.59,18.59,0,0,0-.27-3.47,10.36,10.36,0,0,0-2.55-.58,41,41,0,0,0-4.7-.26c-.33,0-1.08,0-2.25.07s-2,.1-2.49.13c-.06,1.38-.1,2.67-.13,3.88l-.08,6.29c1.63.09,3.14.13,4.51.13a36.63,36.63,0,0,0,4.26-.21,1.33,1.33,0,0,0,.86-.3,4,4,0,0,0,.34-1.53l.13-1.31h1.26v.36l-.11,3.89.11,4.35h-1.47l-.07-1.27a3.91,3.91,0,0,0-.28-1.72,1.45,1.45,0,0,0-.91-.47,30.81,30.81,0,0,0-4.64-.22q-1.41,0-4,.09c-.07,1.25-.11,3.1-.11,5.55s0,4.06.11,5.25q3,.21,6.77.21a32.84,32.84,0,0,0,3.79-.15,9.49,9.49,0,0,0,2.1-.51,10.51,10.51,0,0,0,.5-1.57c.31-1.1.51-1.94.61-2.5h1.41a44.43,44.43,0,0,0-.55,6.26,34,34,0,0,1-4.39.24l-12.53-.13Z" transform="translate(-91.39 -57.59)"/><path class="cls-1" d="M158.73,276.26a40.08,40.08,0,0,0,.4-5.8h1.4a12.4,12.4,0,0,0,.35,3.22,3,3,0,0,0,1.17,1.06,10.49,10.49,0,0,0,2.48,1,11.16,11.16,0,0,0,3,.43,8.82,8.82,0,0,0,3.91-.87,5.82,5.82,0,0,0,2.6-2.28,5.88,5.88,0,0,0,.82-3,4.94,4.94,0,0,0-.41-2.13,3.35,3.35,0,0,0-1.24-1.45,5.57,5.57,0,0,0-2.08-.78l-3.11-.38c-1.55-.18-2.87-.37-4-.58a9.56,9.56,0,0,1-3.21-1.4,6,6,0,0,1-1.67-2.11,6.27,6.27,0,0,1-.64-2.82,7.38,7.38,0,0,1,1.29-4.15,8.33,8.33,0,0,1,3.82-3,13.86,13.86,0,0,1,5.49-1.08,20.13,20.13,0,0,1,3.9.42,18.59,18.59,0,0,1,3.93,1.23,20.86,20.86,0,0,0-.42,2.19c-.08.68-.14,1.68-.19,3H175a18.77,18.77,0,0,0-.19-3.14,5.13,5.13,0,0,0-1.43-1.22,10,10,0,0,0-4.52-1.08,7,7,0,0,0-4.87,1.65,5.5,5.5,0,0,0-1.82,4.27,4.07,4.07,0,0,0,.65,2.46,4.48,4.48,0,0,0,2.33,1.39,23.67,23.67,0,0,0,3.78.67c1.75.21,3.33.43,4.73.67a8.55,8.55,0,0,1,2.91,1.24,5.61,5.61,0,0,1,1.56,1.89,5.92,5.92,0,0,1,.61,2.74,8.15,8.15,0,0,1-3.47,6.49,14,14,0,0,1-9,2.77A18.68,18.68,0,0,1,158.73,276.26Z" transform="translate(-91.39 -57.59)"/><path class="cls-1" d="M187.63,277.18V276a9.43,9.43,0,0,0,2.9-.3.72.72,0,0,0,.42-.36,5.88,5.88,0,0,0,.3-1.95c.08-1.65.12-3.06.12-4.26v-9.53c0-1.69,0-3.35-.06-5a5.12,5.12,0,0,0-.31-2.09,1.45,1.45,0,0,0-.77-.49,16.78,16.78,0,0,0-3-.2v-1.19l6,.11,6.34-.09c3,0,5.24-.06,6.61-.06a34.8,34.8,0,0,1,3.93.21,11.8,11.8,0,0,0-.46,1.85c0,.11-.16,1.41-.38,3.88H207.9a17.74,17.74,0,0,0-.28-3.47,10.28,10.28,0,0,0-2.54-.58,41.13,41.13,0,0,0-4.7-.26c-.34,0-1.09,0-2.25.07s-2,.1-2.5.13c0,1.38-.09,2.67-.12,3.88l-.09,6.29c1.64.09,3.15.13,4.52.13a36.87,36.87,0,0,0,4.26-.21,1.36,1.36,0,0,0,.86-.3,4,4,0,0,0,.34-1.53l.12-1.31h1.26v.36l-.1,3.89.1,4.35h-1.47l-.06-1.27A3.91,3.91,0,0,0,205,265a1.48,1.48,0,0,0-.92-.47,30.72,30.72,0,0,0-4.64-.22c-.94,0-2.26,0-4,.09-.07,1.25-.1,3.1-.1,5.55s0,4.06.1,5.25c2,.14,4.27.21,6.77.21a33,33,0,0,0,3.8-.15,9.78,9.78,0,0,0,2.1-.51,11.83,11.83,0,0,0,.5-1.57c.31-1.1.51-1.94.61-2.5h1.4a45.75,45.75,0,0,0-.54,6.26,34.13,34.13,0,0,1-4.39.24l-12.54-.13Z" transform="translate(-91.39 -57.59)"/><path class="cls-1" d="M219.16,277.18v-1.27a12,12,0,0,0,2.07-.12,1.9,1.9,0,0,0,.76-.39,5.66,5.66,0,0,0,1-1.51q.38-.69,2.73-5.25L231,258.1q.86-1.73,3.68-7.73H236l9,18.74q2.19,4.56,2.9,5.72a2.09,2.09,0,0,0,.87.86,6.86,6.86,0,0,0,2.14.22v1.27q-3.28-.18-4.59-.18l-6.76.18v-1.27a25.18,25.18,0,0,0,2.85-.13,1.33,1.33,0,0,0,.69-.27.58.58,0,0,0,.17-.44A2.65,2.65,0,0,0,243,274l-2.58-5.72H228.22l-2.28,4.8a5.3,5.3,0,0,0-.61,1.89.6.6,0,0,0,.17.43,1.35,1.35,0,0,0,.71.34,19,19,0,0,0,2.73.16v1.27c-2.36-.11-4.13-.16-5.31-.16C222.27,277,220.78,277.07,219.16,277.18ZM229,266.7h10.58l-5.23-11.25Z" transform="translate(-91.39 -57.59)"/><path class="cls-1" d="M258.86,251.84v-1.19l2.5,0,4,.08c.8,0,2,0,3.72-.07l3.8-.1a19.27,19.27,0,0,1,5.85.64,5.59,5.59,0,0,1,2.84,2.06,5.3,5.3,0,0,1,1,3.11,5.93,5.93,0,0,1-.95,3.12,7.35,7.35,0,0,1-2.74,2.58,15.06,15.06,0,0,1-4.67,1.59c.35.43,1.18,1.4,2.48,2.91l5.3,6.19c1.51,1.73,2.39,2.7,2.64,2.9a1.2,1.2,0,0,0,.38.18,5.61,5.61,0,0,0,1.38.1v1.19c-1.06-.08-2-.13-2.78-.13s-1.83.05-3,.13q-1.38-1.4-4.59-5.46-1.8-2.27-3.16-3.77-2.22-2.51-4.21-4.54l.21-.56c.72,0,1.28.06,1.66.06a9,9,0,0,0,5.79-1.61,5.19,5.19,0,0,0,2-4.24,4.4,4.4,0,0,0-1.7-3.65,8.11,8.11,0,0,0-5.14-1.36,15.55,15.55,0,0,0-4.24.58c-.06.67-.1,1.3-.13,1.89,0,.17-.06,2-.14,5.43v8.29c0,1.69,0,3.34.1,4.95a5.38,5.38,0,0,0,.28,2.11,1.38,1.38,0,0,0,.79.49,16.47,16.47,0,0,0,3,.2v1.19c-2-.08-3.81-.13-5.48-.13-1.34,0-3.6.05-6.78.13V276a16.61,16.61,0,0,0,3-.2,1.35,1.35,0,0,0,.75-.44,4.35,4.35,0,0,0,.32-1.81c0-.26.05-2,.1-5.3v-8.65c0-1.69,0-3.34-.06-5a5.15,5.15,0,0,0-.31-2.1,1.45,1.45,0,0,0-.77-.49A17.85,17.85,0,0,0,258.86,251.84Z" transform="translate(-91.39 -57.59)"/><path class="cls-1" d="M322,273.89l-.82,1.74a23.39,23.39,0,0,1-4.81,1.6,24.84,24.84,0,0,1-5.12.5,24.17,24.17,0,0,1-6.05-.73,16.53,16.53,0,0,1-4.88-2.09,13.89,13.89,0,0,1-3.41-3,12.38,12.38,0,0,1-2.71-8,12.35,12.35,0,0,1,4.67-9.88q4.68-3.93,12.76-3.92a29.73,29.73,0,0,1,3.53.19,38.9,38.9,0,0,1,4,.75c1.56.37,2.52.58,2.87.65a10.41,10.41,0,0,0-.69,2,25.29,25.29,0,0,0-.47,3.69h-1.32l0-2.21a3.37,3.37,0,0,0-2.28-2.73,15.84,15.84,0,0,0-6.05-.89,17.8,17.8,0,0,0-5.06.68,10.07,10.07,0,0,0-3.67,2,10.62,10.62,0,0,0-2.59,3.54,12.72,12.72,0,0,0-1,5.37,11.59,11.59,0,0,0,3.88,9.11q3.89,3.45,10.27,3.45a19.19,19.19,0,0,0,5.33-.71,13.06,13.06,0,0,0,3.34-1.52Z" transform="translate(-91.39 -57.59)"/><path class="cls-1" d="M330.19,251.84v-1.19l6.43.13,5.92-.13v1.19a17.63,17.63,0,0,0-3,.2,1.42,1.42,0,0,0-.74.44,4.24,4.24,0,0,0-.31,1.81c0,.25-.06,2-.11,5.31v2.6c2.76.08,6.12.13,10.08.13,3,0,5.47-.05,7.29-.13v-2.6c0-1.69,0-3.35-.11-5a5.31,5.31,0,0,0-.3-2.1,1.44,1.44,0,0,0-.78-.49,17.47,17.47,0,0,0-3-.2v-1.19q4.52.14,6.19.13.63,0,6.13-.13v1.19a17.79,17.79,0,0,0-3,.2,1.31,1.31,0,0,0-.73.44,4,4,0,0,0-.33,1.81c0,.25,0,2-.11,5.3v8.65c0,1.69,0,3.34.11,4.95a5.38,5.38,0,0,0,.28,2.11,1.39,1.39,0,0,0,.78.49,16.71,16.71,0,0,0,3,.2v1.19c-2.7-.08-4.91-.13-6.63-.13s-3.73.05-5.69.13V276a16.72,16.72,0,0,0,3-.2,1.35,1.35,0,0,0,.75-.44,3.89,3.89,0,0,0,.31-1.8c0-.26.05-2,.11-5.29V264q-5.88-.13-8.93-.13-3.32,0-8.44.13v4.25c0,1.69,0,3.33.07,4.93a5.38,5.38,0,0,0,.3,2.11,1.39,1.39,0,0,0,.78.49,16.53,16.53,0,0,0,3,.2v1.19c-1.89-.08-3.83-.13-5.84-.13-2.18,0-4.35.05-6.51.13V276a16.52,16.52,0,0,0,3-.2,1.31,1.31,0,0,0,.75-.44,4.19,4.19,0,0,0,.32-1.81c0-.26.05-2,.1-5.3v-8.65c0-1.69,0-3.34-.06-5a5.23,5.23,0,0,0-.3-2.1,1.48,1.48,0,0,0-.78-.49A17.85,17.85,0,0,0,330.19,251.84Z" transform="translate(-91.39 -57.59)"/><path class="cls-1" d="M119.83,307.33l-.81,1.74a24.22,24.22,0,0,1-4.81,1.6,25,25,0,0,1-5.13.49,23.64,23.64,0,0,1-6-.73,16.52,16.52,0,0,1-4.88-2.08,14.15,14.15,0,0,1-3.42-3,12.6,12.6,0,0,1-2-3.66,13,13,0,0,1-.69-4.33,12.34,12.34,0,0,1,4.67-9.88q4.67-3.92,12.75-3.92a29.68,29.68,0,0,1,3.54.2,36.77,36.77,0,0,1,4,.75c1.56.37,2.51.58,2.86.64a11.5,11.5,0,0,0-.69,2,25.43,25.43,0,0,0-.46,3.68h-1.32l0-2.2a3.37,3.37,0,0,0-2.28-2.73A15.83,15.83,0,0,0,109,285a18.22,18.22,0,0,0-5.06.68,9.83,9.83,0,0,0-3.66,2,10.7,10.7,0,0,0-2.6,3.53,13,13,0,0,0-1,5.38,11.57,11.57,0,0,0,3.89,9.1q3.88,3.45,10.27,3.45a19.3,19.3,0,0,0,5.33-.7,13.22,13.22,0,0,0,3.34-1.52Z" transform="translate(-91.39 -57.59)"/><path class="cls-1" d="M129.2,297.52a14.73,14.73,0,0,1,1-5.46,11.76,11.76,0,0,1,3.31-4.5,16,16,0,0,1,5.23-3,20.21,20.21,0,0,1,6.68-1,21.42,21.42,0,0,1,6.3.87,14.23,14.23,0,0,1,4.65,2.3,12.27,12.27,0,0,1,2.86,3.13,11.18,11.18,0,0,1,1.27,3,13.64,13.64,0,0,1,.47,3.68A13.39,13.39,0,0,1,156.21,307a17.49,17.49,0,0,1-12,4.18,19.43,19.43,0,0,1-6.15-1,12.74,12.74,0,0,1-4.83-2.83,12.1,12.1,0,0,1-3-4.56A14.67,14.67,0,0,1,129.2,297.52Zm4.36-1.55a17.36,17.36,0,0,0,.4,3.61,16,16,0,0,0,1,3.15,11.51,11.51,0,0,0,2.64,3.77,10.29,10.29,0,0,0,3.63,2.24,13.09,13.09,0,0,0,4.44.72,11.5,11.5,0,0,0,5.88-1.46,9.17,9.17,0,0,0,3.73-4.13,14.69,14.69,0,0,0,1.22-6.14,16.36,16.36,0,0,0-.88-5.48,10.72,10.72,0,0,0-1.45-2.77,10.05,10.05,0,0,0-2.15-2.17,10.87,10.87,0,0,0-3.24-1.56,14.26,14.26,0,0,0-4.31-.64,12.47,12.47,0,0,0-5.86,1.33,8.68,8.68,0,0,0-3.79,3.84A12.53,12.53,0,0,0,133.56,296Z" transform="translate(-91.39 -57.59)"/><path class="cls-1" d="M171.78,310.62v-1a6.94,6.94,0,0,0,1.64-.86.85.85,0,0,0,.29-.43,9,9,0,0,0,.25-2.24c.07-1.71.11-2.72.11-3V293c0-1.69,0-3.35-.07-5a5.31,5.31,0,0,0-.3-2.1,1.43,1.43,0,0,0-.78-.48,16.72,16.72,0,0,0-3-.2v-1.2c3.41.09,5.53.14,6.34.14s2.9-.05,6-.14v1.2a16.72,16.72,0,0,0-3,.2,1.35,1.35,0,0,0-.75.44,4.41,4.41,0,0,0-.31,1.81c0,.25,0,2-.11,5.3v12.55c0,1.3,0,2.37.11,3.19,1.6.09,3.18.13,4.74.13a34.7,34.7,0,0,0,8.3-.67,8.72,8.72,0,0,0,.48-1.29l.84-3.1h1.41q-.47,2.78-.91,6.54a12.56,12.56,0,0,1-1.36.18q-1.09.06-3.36.06l-12.43-.13C174.53,310.49,173.16,310.53,171.78,310.62Z" transform="translate(-91.39 -57.59)"/><path class="cls-1" d="M205.18,310.62v-1a6.73,6.73,0,0,0,1.64-.86.94.94,0,0,0,.3-.43,9.68,9.68,0,0,0,.24-2.24c.07-1.71.11-2.72.11-3V293c0-1.69,0-3.35-.06-5a5.43,5.43,0,0,0-.31-2.1,1.44,1.44,0,0,0-.77-.48,16.78,16.78,0,0,0-3-.2v-1.2q5.13.14,6.34.14t6-.14v1.2a16.78,16.78,0,0,0-3,.2,1.35,1.35,0,0,0-.74.44,4.35,4.35,0,0,0-.32,1.81c0,.25-.05,2-.1,5.3v12.55c0,1.3,0,2.37.1,3.19,1.6.09,3.18.13,4.75.13a34.6,34.6,0,0,0,8.29-.67,8.7,8.7,0,0,0,.49-1.29l.84-3.1h1.4q-.47,2.78-.9,6.54a13,13,0,0,1-1.37.18c-.72,0-1.84.06-3.35.06l-12.43-.13C207.93,310.49,206.57,310.53,205.18,310.62Z" transform="translate(-91.39 -57.59)"/><path class="cls-1" d="M237.39,310.62v-1.2a9.93,9.93,0,0,0,2.9-.29.83.83,0,0,0,.42-.36,6.07,6.07,0,0,0,.29-2c.08-1.64.13-3.06.13-4.25V293c0-1.69,0-3.34-.07-5a5.31,5.31,0,0,0-.3-2.1,1.38,1.38,0,0,0-.78-.48,16.72,16.72,0,0,0-3-.2v-1.2l6,.12,6.34-.1c3,0,5.24-.05,6.62-.05a37.35,37.35,0,0,1,3.92.2,13.38,13.38,0,0,0-.46,1.85c0,.12-.15,1.41-.38,3.89h-1.32a18.77,18.77,0,0,0-.27-3.48,10.86,10.86,0,0,0-2.54-.57,41.32,41.32,0,0,0-4.71-.27c-.33,0-1.08,0-2.24.08s-2,.09-2.5.13c-.06,1.38-.1,2.67-.13,3.87l-.08,6.29c1.64.09,3.14.14,4.51.14A36.63,36.63,0,0,0,254,296a1.39,1.39,0,0,0,.87-.3,4.27,4.27,0,0,0,.33-1.53l.13-1.31h1.26v.36l-.11,3.88.11,4.36h-1.47l-.07-1.27a3.73,3.73,0,0,0-.28-1.72,1.38,1.38,0,0,0-.91-.47,30.81,30.81,0,0,0-4.64-.22q-1.41,0-4,.09c-.07,1.24-.11,3.09-.11,5.55,0,2.3,0,4.05.11,5.25,2,.14,4.27.2,6.77.2a36.09,36.09,0,0,0,3.79-.14,9.49,9.49,0,0,0,2.1-.51,9.78,9.78,0,0,0,.5-1.57c.31-1.11.51-1.94.61-2.5h1.41a44.31,44.31,0,0,0-.55,6.25,32,32,0,0,1-4.39.25l-12.53-.13Z" transform="translate(-91.39 -57.59)"/><path class="cls-1" d="M299.22,309.16a38.76,38.76,0,0,1-5.23,1.38,39.32,39.32,0,0,1-6.8.62,20.9,20.9,0,0,1-8.63-1.69,13.56,13.56,0,0,1-5.84-4.74,12.55,12.55,0,0,1-2.05-7.19,12.16,12.16,0,0,1,1.48-6.2,13.74,13.74,0,0,1,3.69-4.19,16.91,16.91,0,0,1,4.42-2.43,25.23,25.23,0,0,1,8.36-1.2,30.74,30.74,0,0,1,4.9.48c1.72.31,3.65.73,5.81,1.26a15.69,15.69,0,0,0-.49,1.87c-.11.61-.26,1.86-.44,3.76h-1.28l-.1-2.13c0-.33,0-.59,0-.79a1.88,1.88,0,0,0-.27-.76,4.91,4.91,0,0,0-1.8-1.22,25.14,25.14,0,0,0-3.54-1,20,20,0,0,0-3.33-.24,14.83,14.83,0,0,0-6.91,1.51,10.18,10.18,0,0,0-4.42,4.34,12.9,12.9,0,0,0-1.5,6.16,12.71,12.71,0,0,0,1.76,6.63,11.75,11.75,0,0,0,4.7,4.5,14.48,14.48,0,0,0,6.87,1.56,19,19,0,0,0,3.58-.32,11.57,11.57,0,0,0,2.93-.88,10.43,10.43,0,0,0,.19-2.39v-2.07a5.1,5.1,0,0,0-.19-1.93q-.18-.27-1-.42a37.5,37.5,0,0,0-3.81-.21v-1.14l6.55.13c1.28,0,2.58,0,3.91-.13l.13.9-1.58.82a29.16,29.16,0,0,0-.25,3.68A28.32,28.32,0,0,0,299.22,309.16Z" transform="translate(-91.39 -57.59)"/><path class="cls-1" d="M310.75,310.62v-1.2a9.93,9.93,0,0,0,2.9-.29.77.77,0,0,0,.41-.36,6,6,0,0,0,.3-2c.08-1.64.12-3.06.12-4.25V293c0-1.69,0-3.34-.06-5a5.31,5.31,0,0,0-.3-2.1,1.38,1.38,0,0,0-.78-.48,16.72,16.72,0,0,0-3-.2v-1.2l6,.12,6.34-.1c3,0,5.24-.05,6.62-.05a37.35,37.35,0,0,1,3.92.2,13.38,13.38,0,0,0-.46,1.85c0,.12-.15,1.41-.38,3.89H331a18.77,18.77,0,0,0-.27-3.48,10.86,10.86,0,0,0-2.54-.57,41.32,41.32,0,0,0-4.71-.27c-.33,0-1.08,0-2.24.08s-2,.09-2.5.13c-.06,1.38-.1,2.67-.13,3.87l-.08,6.29c1.63.09,3.14.14,4.51.14a36.63,36.63,0,0,0,4.26-.21,1.33,1.33,0,0,0,.86-.3,4,4,0,0,0,.34-1.53l.13-1.31h1.26v.36l-.11,3.88.11,4.36h-1.47l-.07-1.27a3.87,3.87,0,0,0-.28-1.72,1.41,1.41,0,0,0-.91-.47,30.81,30.81,0,0,0-4.64-.22q-1.41,0-4,.09c-.07,1.24-.11,3.09-.11,5.55,0,2.3,0,4.05.11,5.25,2,.14,4.27.2,6.77.2a36.09,36.09,0,0,0,3.79-.14,9.49,9.49,0,0,0,2.1-.51,10.91,10.91,0,0,0,.5-1.57c.31-1.11.51-1.94.61-2.5h1.41a44.31,44.31,0,0,0-.55,6.25,32.13,32.13,0,0,1-4.39.25l-12.53-.13Z" transform="translate(-91.39 -57.59)"/><path class="cls-1" d="M343.84,309.7a40.13,40.13,0,0,0,.4-5.81h1.4a12.51,12.51,0,0,0,.35,3.23,2.93,2.93,0,0,0,1.17,1.05,9.7,9.7,0,0,0,2.48,1,11.12,11.12,0,0,0,3,.44,8.87,8.87,0,0,0,3.92-.87,5.82,5.82,0,0,0,2.6-2.28,6,6,0,0,0,.82-3,5,5,0,0,0-.41-2.13,3.37,3.37,0,0,0-1.25-1.45,5.69,5.69,0,0,0-2.07-.77c-.52-.08-1.56-.2-3.11-.38s-2.88-.38-4-.59a9.28,9.28,0,0,1-3.21-1.4,5.85,5.85,0,0,1-1.67-2.1,6.27,6.27,0,0,1-.64-2.82,7.38,7.38,0,0,1,1.29-4.15,8.33,8.33,0,0,1,3.82-3,13.87,13.87,0,0,1,5.49-1.09,20.19,20.19,0,0,1,3.9.43,19.37,19.37,0,0,1,3.93,1.22,21.52,21.52,0,0,0-.42,2.2c-.08.67-.14,1.67-.19,3h-1.4a20.42,20.42,0,0,0-.19-3.14,5.28,5.28,0,0,0-1.43-1.21,10,10,0,0,0-4.52-1.08,7,7,0,0,0-4.87,1.65,5.46,5.46,0,0,0-1.82,4.27,4.07,4.07,0,0,0,.65,2.46,4.48,4.48,0,0,0,2.33,1.39,23.67,23.67,0,0,0,3.78.67c1.75.21,3.32.43,4.72.67a8.34,8.34,0,0,1,2.92,1.24,5.48,5.48,0,0,1,1.55,1.89,5.8,5.8,0,0,1,.61,2.74,8.11,8.11,0,0,1-3.46,6.48,13.91,13.91,0,0,1-9,2.77A18.83,18.83,0,0,1,343.84,309.7Z" transform="translate(-91.39 -57.59)"/><path class="cls-1" d="M114.55,231.31q-3-6-4.85-9.22l-8.65-14.45,6.42-2.57q11.79,14.53,14.54,16.27t12.32,4a82.79,82.79,0,0,0,19.52,2.31,65.16,65.16,0,0,0,23-3.73,32.7,32.7,0,0,0,15.32-11.12q5.44-7.41,5.44-17.87,0-15.42-12.38-22.87t-29.28-7.45a59.87,59.87,0,0,0-18.08,2.57q-6.15,2-14.67,8.33l-5.37-1.06,1.57-21.9q.27-5,.27-8.07V128.73q0-7.08-.66-14.18c-.18-1.83-.31-3.31-.39-4.43l1.7-.89q21.34,1.06,44.8,1.06,19.92,0,47.69-1.06l.65.89a41.41,41.41,0,0,0-.91,8.15c0,1.19.08,3.22.26,6.12l-1.31.53q-18.21-.8-54.5-.8-13.37,0-25.28.27-2,12.24-2.62,36.88A91.85,91.85,0,0,1,148,154.13a80.44,80.44,0,0,1,18.6-2,84.32,84.32,0,0,1,27.84,4.39q12.65,4.38,19.46,12.63a27.8,27.8,0,0,1,6.81,18.09q0,15.33-15.46,28.54-23.32,20-62.62,20a91,91,0,0,1-14.74-1A82.84,82.84,0,0,1,114.55,231.31Z" transform="translate(-91.39 -57.59)"/><path class="cls-1" d="M232.81,178.38q0-25.26,5.38-39t19.51-22.69q14.16-9,35.9-9A77.85,77.85,0,0,1,314,110.25a54.36,54.36,0,0,1,15.33,6.38,38,38,0,0,1,10.08,9.49,37.29,37.29,0,0,1,5.83,11.3,96.69,96.69,0,0,1,3.93,28.2q0,19.86-4.58,34a52.87,52.87,0,0,1-7.47,14.76,48.7,48.7,0,0,1-11.53,11.39,54.57,54.57,0,0,1-16.11,7.49,74.39,74.39,0,0,1-21.22,2.8q-14.28,0-24.5-4.08t-16.24-10.46A49.29,49.29,0,0,1,236,200.68,86.13,86.13,0,0,1,232.81,178.38Zm22.41-5.09a125.89,125.89,0,0,0,2.49,25.06q2.49,12.28,7.87,19.92a26.54,26.54,0,0,0,10.77,8.43A37.28,37.28,0,0,0,292.23,230q15,0,23-8.43,11.55-12.06,11.55-48a143.55,143.55,0,0,0-2.43-27.72q-2.42-12.3-8.07-20.19a27.14,27.14,0,0,0-10.3-8.3A36.18,36.18,0,0,0,290,114.11a37.32,37.32,0,0,0-18.3,4.43q-8.07,4.44-12.27,16.11T255.22,173.29Z" transform="translate(-91.39 -57.59)"/><rect class="cls-1" y="42.17" width="272.87" height="2"/><path class="cls-1" d="M223.85,328.51h7.87c4.94,0,7.76,2.79,7.76,6.74,0,2.72-1.2,4.45-4.06,5.65,2.16,1.2,3,6.6,5.05,11.72h-5.68l-1.31-4.52c-1.51-5.22-1.87-5.64-4.16-5.64v10.16h-5.47Zm7.2,9.78a2.66,2.66,0,0,0,3-2.89c0-1.91-1-2.72-3-2.72h-1.66v5.61Z" transform="translate(-91.39 -57.59)"/><path class="cls-1" d="M242.59,328.51h14v4.17h-8.58v5.61h8v4.17h-8v6H257v4.16H242.59Z" transform="translate(-91.39 -57.59)"/><path class="cls-1" d="M277.36,328.51h14.05v4.17h-8.58v5.61h8v4.17h-8v6h8.9v4.16H277.36Z" transform="translate(-91.39 -57.59)"/><path class="cls-1" d="M299.53,328.37h5.68l6.32,24.25h-5.29l-1.13-5h-5.44l-1.17,5h-5.29Zm4.76,15.32-1.87-8.75h-.07l-1.9,8.75Z" transform="translate(-91.39 -57.59)"/><path class="cls-1" d="M313.33,328.51h7.87c4.95,0,7.77,2.79,7.77,6.74,0,2.72-1.2,4.45-4.06,5.65,2.15,1.2,3,6.6,5,11.72h-5.68L323,348.1c-1.52-5.22-1.87-5.64-4.17-5.64v10.16h-5.47Zm7.2,9.78a2.66,2.66,0,0,0,3-2.89c0-1.91-1-2.72-3-2.72H318.8v5.61Z" transform="translate(-91.39 -57.59)"/><path class="cls-1" d="M345.74,351.14a8.46,8.46,0,0,1-5.61,1.8c-5.76,0-9.78-4.73-9.78-12.14,0-7.63,3.85-12.61,9.78-12.61a11.67,11.67,0,0,1,5.43,1.35v4.62a8.07,8.07,0,0,0-4.13-1.41c-3.14,0-5.5,2.43-5.5,7.73,0,5.12,1.83,7.91,5.22,7.91a8.24,8.24,0,0,0,4.59-1.95Z" transform="translate(-91.39 -57.59)"/><path class="cls-1" d="M347.29,328.51h5.47v9.85h6v-9.85h5.48v24.11h-5.48V342.53h-6v10.09h-5.47Z" transform="translate(-91.39 -57.59)"/><path class="cls-1" d="M244.94,356v19.83h-2.6V356Z" transform="translate(-91.39 -57.59)"/><path class="cls-1" d="M246.83,365.81c0-1.65,0-3-.08-4.27H249l.13,2.15h.06a3.74,3.74,0,0,1,3.29-2.47c1.79,0,3.65,1.61,3.65,6.14v8.51h-2.59v-8.09c0-2.06-.55-3.62-2-3.62-1,0-1.75,1-2,2.12a4.75,4.75,0,0,0-.12,1.14v8.45h-2.6Z" transform="translate(-91.39 -57.59)"/><path class="cls-1" d="M258.45,375.87V364.25h-1.4v-2.71h1.4v-.62a8.38,8.38,0,0,1,1.24-4.88,3.35,3.35,0,0,1,2.68-1.38A4,4,0,0,1,264,355l-.17,2.79a2.43,2.43,0,0,0-1.12-.26c-1.28,0-1.7,1.5-1.7,3.27v.73h2.25v2.71H261v11.62Z" transform="translate(-91.39 -57.59)"/><path class="cls-1" d="M268.61,376.19c-2.89,0-5.15-2.76-5.15-7.38s2.22-7.59,5.31-7.59,5.1,3,5.1,7.35c0,5.27-2.65,7.62-5.24,7.62Zm.08-2.62c1.47,0,2.51-2,2.51-4.91,0-2.24-.72-4.82-2.49-4.82s-2.57,2.49-2.57,4.88c0,2.76,1,4.85,2.53,4.85Z" transform="translate(-91.39 -57.59)"/><path class="cls-1" d="M275.14,372.51a4.52,4.52,0,0,0,2.61,1.06A1.48,1.48,0,0,0,279.4,372c0-1-.42-1.44-1.69-2.08a4.45,4.45,0,0,1-2.82-4.18c0-2.53,1.49-4.47,3.87-4.47a4.6,4.6,0,0,1,2.74.85L281,364.6a3.69,3.69,0,0,0-2.17-.82,1.38,1.38,0,0,0-1.44,1.53c0,.91.49,1.32,1.79,2a4.39,4.39,0,0,1,2.74,4.35c0,2.62-1.45,4.5-4.17,4.5a5.16,5.16,0,0,1-3.12-1Z" transform="translate(-91.39 -57.59)"/><path class="cls-1" d="M288,376.19c-2.89,0-5.15-2.76-5.15-7.38s2.21-7.59,5.31-7.59,5.1,3,5.1,7.35c0,5.27-2.65,7.62-5.24,7.62Zm.08-2.62c1.47,0,2.51-2,2.51-4.91,0-2.24-.72-4.82-2.49-4.82s-2.57,2.49-2.57,4.88c0,2.76,1,4.85,2.53,4.85Z" transform="translate(-91.39 -57.59)"/><path class="cls-1" d="M303.84,371.57c0,1.71.05,3.12.09,4.3h-2.26l-.12-2.15h-.07a3.72,3.72,0,0,1-3.3,2.47c-1.86,0-3.57-1.56-3.57-6.24v-8.41h2.6v7.8c0,2.38.54,3.91,1.91,3.91,1.06,0,1.73-1,2-1.94a3.45,3.45,0,0,0,.15-1.12v-8.65h2.59Z" transform="translate(-91.39 -57.59)"/><path class="cls-1" d="M305.91,366.16c0-1.94,0-3.36-.08-4.62h2.23l.1,2.71h.07c.5-2,1.7-3,2.82-3a2.25,2.25,0,0,1,.61.08v3.39a2.93,2.93,0,0,0-.78-.09c-1.22,0-2.08,1.09-2.32,2.74a9,9,0,0,0-.06,1.08v7.45h-2.59Z" transform="translate(-91.39 -57.59)"/><path class="cls-1" d="M320.24,375.43a5.73,5.73,0,0,1-2.91.73c-3.2,0-5.29-2.88-5.29-7.32s2.11-7.62,5.71-7.62a5.28,5.28,0,0,1,2.51.64l-.46,2.74a3.31,3.31,0,0,0-2-.56c-2,0-3.16,2-3.14,4.65,0,2.94,1.37,4.62,3.14,4.62a4,4,0,0,0,2-.56Z" transform="translate(-91.39 -57.59)"/><path class="cls-1" d="M323.28,369.72c.06,2.59,1.51,3.71,3.16,3.71a6.2,6.2,0,0,0,2.84-.65l.38,2.47a7,7,0,0,1-3.58.91c-3.33,0-5.29-2.85-5.29-7.24,0-4,1.73-7.7,5-7.7s4.42,3.82,4.42,7a13.06,13.06,0,0,1-.08,1.53Zm4.51-2.53c0-1.32-.4-3.5-2.13-3.5s-2.28,2-2.38,3.5Z" transform="translate(-91.39 -57.59)"/><path class="cls-1" d="M338.33,356v19.83h-2.6V356Z" transform="translate(-91.39 -57.59)"/><path class="cls-1" d="M340.79,365.81c0-1.65,0-3-.08-4.27H343l.13,2.15h.06a3.73,3.73,0,0,1,3.29-2.47c1.79,0,3.65,1.61,3.65,6.14v8.51h-2.6v-8.09c0-2.06-.54-3.62-2-3.62-1,0-1.75,1-2,2.12a4.71,4.71,0,0,0-.13,1.14v8.45h-2.59Z" transform="translate(-91.39 -57.59)"/><path class="cls-1" d="M359.86,375.43a5.69,5.69,0,0,1-2.9.73c-3.21,0-5.29-2.88-5.29-7.32s2.1-7.62,5.71-7.62a5.28,5.28,0,0,1,2.51.64l-.47,2.74a3.31,3.31,0,0,0-2-.56c-2,0-3.16,2-3.14,4.65,0,2.94,1.37,4.62,3.14,4.62a4,4,0,0,0,2.05-.56Z" transform="translate(-91.39 -57.59)"/><path class="cls-1" d="M362.35,376.19c-.93,0-1.58-1-1.58-2.32s.67-2.33,1.6-2.33,1.6.94,1.6,2.33-.63,2.32-1.6,2.32Z" transform="translate(-91.39 -57.59)"/><path class="cls-1" d="M258.7,347.16a13.42,13.42,0,0,0,7,2.12v-7.39c-4.77-2.08-7.29-4.6-7.29-8.94a8.11,8.11,0,0,1,7.29-8.37V323h2.75v1.46a13.71,13.71,0,0,1,5.74,1.37V331a11.34,11.34,0,0,0-5.74-1.68v7.21c4.69,1.82,7.17,5,7.17,9.07a8.09,8.09,0,0,1-7.17,8.37v4.82h-2.75v-4.69a16.83,16.83,0,0,1-7-1.68Zm9.77,1.68c1.51-.58,2.25-1.42,2.25-2.75s-.62-2.07-2.25-3Zm-2.75-19.25c-1.71.48-2.56,1.41-2.56,2.87,0,1.29.78,2.17,2.56,2.92Z" transform="translate(-91.39 -57.59)"/><path class="cls-1" d="M92.13,376.27v-1.92q1-1.34,3.72-4.17l7.39-7.93q.87-.92,4.21-4.82a39.46,39.46,0,0,0,4-5.41,21.41,21.41,0,0,0,2.09-4.76,15.92,15.92,0,0,0,.66-4.39,10.05,10.05,0,0,0-1.92-6.15,8.36,8.36,0,0,0-7.23-3.45,11.17,11.17,0,0,0-4.64.89,5.9,5.9,0,0,0-2.67,2,30.71,30.71,0,0,0-2,6.17h-2a91.4,91.4,0,0,0,1.12-9.43,22.7,22.7,0,0,1,3.51-2.94,12.08,12.08,0,0,1,3.47-1.42,18,18,0,0,1,4.48-.53,16.14,16.14,0,0,1,7.34,1.52A11.63,11.63,0,0,1,118.4,334a13.05,13.05,0,0,1,1.79,6.8,17.51,17.51,0,0,1-2,8.08q-2,4-8.48,10.58L104,365.29q-3.09,3.18-4.69,5.06h14.59a81,81,0,0,0,8.6-.44l.23.27a24.6,24.6,0,0,0-.16,3,18.38,18.38,0,0,0,.16,2.67l-.23.38c-1.57-.1-3.36-.16-5.38-.21q-6.76-.13-9.06-.14-2.9,0-9.73.14C95.81,376.11,93.75,376.17,92.13,376.27Z" transform="translate(-91.39 -57.59)"/><path class="cls-1" d="M123.66,355.11q0-9.75,1.37-15a18,18,0,0,1,4.94-8.75,12.6,12.6,0,0,1,9.1-3.45,13.43,13.43,0,0,1,5.16,1,11.9,11.9,0,0,1,3.89,2.46,12.9,12.9,0,0,1,2.55,3.66,18.12,18.12,0,0,1,1.48,4.36,55.06,55.06,0,0,1,1,10.87A64.34,64.34,0,0,1,152,363.31a25.87,25.87,0,0,1-1.9,5.69,17,17,0,0,1-2.92,4.39,12.64,12.64,0,0,1-4.08,2.89,13,13,0,0,1-5.38,1.08,11.84,11.84,0,0,1-6.21-1.57,12.26,12.26,0,0,1-4.12-4,23.28,23.28,0,0,1-2.92-8A49.88,49.88,0,0,1,123.66,355.11Zm5.68-2a73.29,73.29,0,0,0,.63,9.67,27,27,0,0,0,2,7.68,8.19,8.19,0,0,0,2.73,3.25,6.83,6.83,0,0,0,4,1.26,6.46,6.46,0,0,0,5.82-3.25q2.94-4.65,2.93-18.5a83.73,83.73,0,0,0-.61-10.69,26.65,26.65,0,0,0-2.05-7.79,8.48,8.48,0,0,0-2.61-3.19,6.54,6.54,0,0,0-4-1.25,7,7,0,0,0-4.64,1.71c-1.37,1.14-2.4,3.21-3.11,6.21S129.34,346.21,129.34,353.14Z" transform="translate(-91.39 -57.59)"/><path class="cls-1" d="M153.33,376.27v-1.92q1-1.34,3.72-4.17l7.39-7.93q.87-.92,4.21-4.82A39.46,39.46,0,0,0,172.6,352a21.41,21.41,0,0,0,2.09-4.76,15.92,15.92,0,0,0,.66-4.39,10.05,10.05,0,0,0-1.92-6.15,8.36,8.36,0,0,0-7.23-3.45,11.17,11.17,0,0,0-4.64.89,5.9,5.9,0,0,0-2.67,2,30.71,30.71,0,0,0-2,6.17h-2a91.4,91.4,0,0,0,1.12-9.43,22.7,22.7,0,0,1,3.51-2.94A12.08,12.08,0,0,1,163,328.5a18,18,0,0,1,4.48-.53,16.11,16.11,0,0,1,7.34,1.52A11.63,11.63,0,0,1,179.6,334a13.05,13.05,0,0,1,1.79,6.8,17.51,17.51,0,0,1-2,8.08q-2,4-8.48,10.58l-5.69,5.81q-3.09,3.18-4.68,5.06h14.58a81,81,0,0,0,8.6-.44l.24.27a22.64,22.64,0,0,0-.17,3,16.93,16.93,0,0,0,.17,2.67l-.24.38c-1.57-.1-3.36-.16-5.38-.21q-6.77-.13-9.06-.14-2.9,0-9.73.14C157,376.11,155,376.17,153.33,376.27Z" transform="translate(-91.39 -57.59)"/><path class="cls-1" d="M187.89,337.33l-.6-.17-.33-2.8.33-.34a66.34,66.34,0,0,0,7.73-2.91c4.12-1.8,6.77-3,7.94-3.62l.86.34q-.52,15.66-.53,18v12.68q0,7.59.17,11.49a6.11,6.11,0,0,0,.55,2.89,2.46,2.46,0,0,0,1.32.85,40.67,40.67,0,0,0,5.76.46v2.09c-5.6-.16-9.1-.24-10.52-.24-1.06,0-4.82.08-11.26.24v-2.09c3.37-.2,5.31-.37,5.83-.49a2.47,2.47,0,0,0,1.16-.57,2.1,2.1,0,0,0,.55-1.06,45.76,45.76,0,0,0,.47-6.1q.19-5,.19-7.64V344.85q0-8.24,0-10.32a1.9,1.9,0,0,0-.23-1.16.5.5,0,0,0-.37-.14,6,6,0,0,0-1.52.55C191.59,335.51,189.1,336.7,187.89,337.33Z" transform="translate(-91.39 -57.59)"/></svg>