<?xml version="1.0" encoding="utf-8"?>
<!-- Generator: Adobe Illustrator 25.4.1, SVG Export Plug-In . SVG Version: 6.00 Build 0)  -->
<svg version="1.1" id="Layer_1" xmlns="http://www.w3.org/2000/svg" xmlns:xlink="http://www.w3.org/1999/xlink" x="0px" y="0px"
	 viewBox="0 0 194 137" style="enable-background:new 0 0 194 137;" xml:space="preserve">
<style type="text/css">
	.st0{fill:#FFFFFF;}
	.st1{fill:none;}
</style>
<g>
	<path class="st0" d="M89.3,17.7c0,6.7-2.7,9.9-8.5,9.9c-6.2,0-8.5-3.7-8.5-11.8C72.2,7.8,74.5,4,80.9,4c4.4,0,7,1.6,8,4.8l-3.5,1.3
		c-0.6-2.2-2-3.3-4.4-3.3c-3.7,0-4.7,2.8-4.7,8.9c0,6.1,1,8.9,4.7,8.9c3.1,0,4.6-2,4.6-5.9c0-0.4,0-0.7,0-1.1h-4.2V15h7.9
		C89.3,15.9,89.3,16.9,89.3,17.7"/>
	<path class="st0" d="M97.4,27.3h-3.9v-23h4.8c6.1,0,8.8,1.5,8.8,6c0,3.4-1.8,5.3-5.5,5.7l6.9,11.3h-4.2l-6.7-11.2h-0.1V27.3z
		 M98.6,14.3c3.4,0,4.4-1.2,4.4-4c0-2.6-1.2-3.3-4.5-3.3h-1.1v7.3H98.6z"/>
	<polygon class="st0" points="111.2,4.3 122.9,4.3 122.9,7.1 115.1,7.1 115.1,13.9 122.2,13.9 122.2,16.7 115.1,16.7 115.1,24.4 
		122.9,24.4 122.9,27.3 111.2,27.3 	"/>
	<path class="st0" d="M131.6,4.3h3.7l6.9,23h-4l-1.4-4.5h-6.7l-1.4,4.5h-4L131.6,4.3z M130.9,20.2h5.3l-2.6-10L130.9,20.2z"/>
	<polygon class="st0" points="147.2,7.2 141.8,7.2 141.8,4.3 156.6,4.3 156.6,7.2 151.2,7.2 151.2,27.3 147.2,27.3 	"/>
	<polygon class="st0" points="159.6,4.3 171.3,4.3 171.3,7.1 163.5,7.1 163.5,13.9 170.6,13.9 170.6,16.7 163.5,16.7 163.5,24.4 
		171.3,24.4 171.3,27.3 159.6,27.3 	"/>
	<path class="st0" d="M179.4,27.3h-3.9v-23h4.8c6.1,0,8.8,1.5,8.8,6c0,3.4-1.8,5.3-5.5,5.7l6.9,11.3h-4.2l-6.7-11.2h-0.1V27.3z
		 M180.6,14.3c3.4,0,4.4-1.2,4.4-4c0-2.6-1.2-3.3-4.5-3.3h-1.1v7.3H180.6z"/>
	<polygon class="st0" points="76.4,36.7 72.2,36.7 72.2,33.9 83.8,33.9 83.8,36.7 79.5,36.7 79.5,56.9 76.4,56.9 	"/>
	<path class="st0" d="M91.4,33.6c4.8,0,6.5,3.7,6.5,11.8c0,8-1.7,11.8-6.5,11.8c-4.8,0-6.5-3.7-6.5-11.8
		C84.9,37.3,86.6,33.6,91.4,33.6 M91.4,54.2c2.7,0,3.3-2.9,3.3-8.9c0-6-0.7-8.9-3.4-8.9c-2.7,0-3.4,2.8-3.4,8.9
		C88,51.4,88.8,54.2,91.4,54.2"/>
	<path class="st0" d="M104.3,56.9h-3.1v-23h3.7c4.8,0,6.9,1.5,6.9,6c0,3.4-1.4,5.3-4.3,5.7l5.4,11.3h-3.3l-5.2-11.2h-0.1V56.9z
		 M105.3,43.9c2.7,0,3.4-1.2,3.4-4c0-2.6-1-3.3-3.5-3.3h-0.9v7.3H105.3z"/>
	<path class="st0" d="M121,33.6c4.8,0,6.5,3.7,6.5,11.8c0,8-1.7,11.8-6.5,11.8c-4.8,0-6.5-3.7-6.5-11.8
		C114.5,37.3,116.2,33.6,121,33.6 M121.1,54.2c2.7,0,3.3-2.9,3.3-8.9c0-6-0.7-8.9-3.4-8.9c-2.7,0-3.4,2.8-3.4,8.9
		C117.6,51.4,118.4,54.2,121.1,54.2"/>
	<polygon class="st0" points="130.9,33.9 133.7,33.9 139.8,49.8 139.8,33.9 142.7,33.9 142.7,56.9 139.8,56.9 133.8,40.8 
		133.8,56.9 130.9,56.9 	"/>
	<polygon class="st0" points="149.3,36.7 145,36.7 145,33.9 156.6,33.9 156.6,36.7 152.4,36.7 152.4,56.9 149.3,56.9 	"/>
	<path class="st0" d="M164.2,33.6c4.8,0,6.5,3.7,6.5,11.8c0,8-1.7,11.8-6.5,11.8c-4.8,0-6.5-3.7-6.5-11.8
		C157.7,37.3,159.4,33.6,164.2,33.6 M164.2,54.2c2.7,0,3.3-2.9,3.3-8.9c0-6-0.7-8.9-3.4-8.9s-3.4,2.8-3.4,8.9
		C160.8,51.4,161.6,54.2,164.2,54.2"/>
	<polygon class="st0" points="175.3,41.3 173.7,40.8 175.8,32.5 178.2,33.2 	"/>
	<path class="st0" d="M184.4,54.1c1.9,0,3.1-1.2,3.1-3c0-2.2-1.5-3.3-3.7-5.1c-2.4-2-3.6-3.7-3.6-6.3c0-3.5,2.5-6.1,5.7-6.1
		c1.4,0,2.7,0.3,4,1v3.1c-1.2-0.8-2.3-1.3-3.4-1.3c-1.9,0-3.2,1.3-3.2,3.2c0,2.1,1.6,3.2,3.8,5.1c2.5,2,3.6,3.7,3.6,6.4
		c0,3.4-2.4,6.1-6,6.1c-1.3,0-2.6-0.4-4-1.2v-3.2C182.1,53.7,183.3,54.1,184.4,54.1"/>
	<polygon class="st0" points="76.2,67.7 72.2,67.7 72.2,63.4 85.4,63.4 85.4,67.7 81.4,67.7 81.4,86.4 76.2,86.4 	"/>
	<path class="st0" d="M95.6,86.7c-5.7,0-9.1-4.3-9.1-11.8c0-7.5,3.6-11.8,9.1-11.8c5.6,0,9.2,4.3,9.2,12.1
		C104.7,82.4,101,86.7,95.6,86.7 M99.5,74.9c0-5-1.3-7.4-4-7.4c-2.7,0-4,2.4-4,7.4c0,4.9,1.3,7.4,4,7.4
		C98.2,82.3,99.5,79.9,99.5,74.9"/>
	<path class="st0" d="M108,63.4h5.4c5.7,0,8.5,2.1,8.5,6.7c0,4.3-2.8,6.8-7.7,6.8c-0.4,0-0.8,0-1.2,0v9.5h-5V63.4z M113.6,73.4
		c2.2,0,3.4-1.1,3.4-3.3c0-2.2-1.1-3.2-3.4-3.2c-0.2,0-0.4,0-0.6,0v6.4C113.2,73.4,113.4,73.4,113.6,73.4"/>
	<polygon class="st0" points="72.2,93 81.1,93 81.1,97.2 76.3,97.2 76.3,101.9 80.7,101.9 80.7,106.1 76.3,106.1 76.3,111.5 
		81.1,111.5 81.1,115.9 72.2,115.9 	"/>
	<path class="st0" d="M85,93h5.4l1.1,8.8c0.3,2.4,0.5,4.9,0.7,7.4c0.3-3.7,0.6-6.2,0.7-7.4l1.4-8.8h5.4l1.8,23h-4.3l-0.4-10.7
		c-0.1-2.1-0.2-4.8-0.2-8l-2.8,18.7h-3.1l-2.6-18.8c0,2.9-0.2,5.6-0.4,8.2l-0.7,10.6h-4.2L85,93z"/>
	<path class="st0" d="M103.8,93h4.4c4.6,0,6.9,2.1,6.9,6.7c0,4.3-2.3,6.8-6.2,6.8c-0.3,0-0.6,0-1,0v9.5h-4.1V93z M108.3,102.9
		c1.8,0,2.8-1.1,2.8-3.3c0-2.2-0.9-3.2-2.8-3.2c-0.2,0-0.3,0-0.4,0v6.4C108,102.9,108.2,102.9,108.3,102.9"/>
	<polygon class="st0" points="117.3,93 121.5,93 121.5,111.5 126.3,111.5 126.3,115.9 117.3,115.9 	"/>
	<path class="st0" d="M134.7,116.2c-4.6,0-7.4-4.3-7.4-11.8c0-7.5,2.9-11.8,7.4-11.8c4.5,0,7.5,4.3,7.5,12.1
		C142.1,111.9,139.1,116.2,134.7,116.2 M137.9,104.5c0-5-1.1-7.4-3.2-7.4s-3.2,2.4-3.2,7.4c0,4.9,1,7.4,3.2,7.4
		S137.9,109.4,137.9,104.5"/>
	<path class="st0" d="M146.8,105.1L141.9,93h4.5l1.4,4.2c0.5,1.6,0.9,3,1.3,4.5c0.4-1.9,0.8-3.4,1.2-4.4l1.5-4.3h4.1l-4.9,12.2v10.8
		h-4.2V105.1z"/>
	<polygon class="st0" points="156.4,93 165.3,93 165.3,97.2 160.5,97.2 160.5,101.9 164.8,101.9 164.8,106.1 160.5,106.1 
		160.5,111.5 165.3,111.5 165.3,115.9 156.4,115.9 	"/>
	<path class="st0" d="M168.1,93h4.4c4.7,0,6.9,1.8,6.9,6.5c0,3.2-1.1,5.2-3.4,6l4.1,10.5h-4.5l-3.4-9.5v9.5h-4.1V93z M172.7,102.9
		c1.8,0,2.8-1.1,2.8-3.3c0-2.2-0.8-3.2-2.7-3.2c-0.2,0-0.4,0-0.6,0v6.4C172.4,102.9,172.5,102.9,172.7,102.9"/>
	<path class="st0" d="M181.1,110.4c1,1,2.1,1.5,3.1,1.5c1.5,0,2.3-0.9,2.3-2.3c0-1.6-1.1-2.3-2.4-3.5c-2.2-2.2-3.4-3.9-3.4-6.8
		c0-4,2.3-6.6,5.6-6.6c1.2,0,2.3,0.4,3.6,1.1v4.1c-1.2-0.6-2.1-1-2.8-1c-1.2,0-2.1,0.9-2.1,2.3c0,1.6,1,2.5,2.5,3.9
		c2.1,1.9,3.4,3.3,3.4,6.5c0,4.1-2.3,6.8-6.1,6.8c-1.4,0-2.6-0.4-3.7-1.1V110.4z"/>
	<g>
		<path class="st0" d="M129,63.1v23.7h61.6V63.1H129z M145.2,84.7H133l4.6-6.1c0.3-0.4,0.7-0.9,1.2-1.5c0.4-0.6,0.9-1.2,1.3-1.9
			c0.4-0.7,0.8-1.3,1.1-2c0.3-0.6,0.4-1.2,0.4-1.8c0-0.3-0.1-0.7-0.2-1c-0.1-0.4-0.3-0.7-0.5-1c-0.2-0.3-0.4-0.5-0.7-0.7
			c-0.3-0.2-0.6-0.3-1-0.3c-0.4,0-0.7,0.1-1,0.3c-0.3,0.2-0.5,0.5-0.7,0.8c-0.2,0.3-0.3,0.7-0.4,1.1c-0.1,0.4-0.1,0.8-0.1,1.1h-3.7
			c0.1-0.9,0.2-1.8,0.5-2.5c0.3-0.8,0.7-1.5,1.2-2.1c0.5-0.6,1.1-1,1.8-1.4c0.7-0.3,1.5-0.5,2.5-0.5c0.8,0,1.6,0.2,2.3,0.5
			c0.7,0.3,1.3,0.7,1.9,1.3c0.5,0.5,0.9,1.2,1.2,1.9c0.3,0.7,0.5,1.6,0.5,2.4c0,0.7-0.1,1.4-0.3,2c-0.2,0.6-0.4,1.2-0.7,1.8
			c-0.3,0.6-0.6,1.1-1,1.6c-0.4,0.5-0.8,1-1.2,1.5l-2.7,3.3h5.9V84.7z M160,77.4c-0.1,0.8-0.3,1.5-0.5,2.2c-0.2,0.7-0.5,1.4-0.8,2.1
			c-0.3,0.7-0.7,1.3-1.2,1.8c-0.5,0.5-1,0.9-1.7,1.2c-0.6,0.3-1.3,0.5-2.1,0.5c-0.8,0-1.5-0.2-2.1-0.5c-0.6-0.3-1.2-0.7-1.7-1.2
			c-0.5-0.5-0.9-1.1-1.2-1.8c-0.3-0.7-0.6-1.4-0.8-2.1c-0.2-0.7-0.4-1.5-0.5-2.2c-0.1-0.8-0.1-1.5-0.1-2.1c0-1,0.1-2.1,0.3-3.3
			c0.2-1.2,0.6-2.3,1.1-3.3c0.5-1,1.2-1.8,2-2.5c0.8-0.7,1.8-1,3.1-1c1.2,0,2.2,0.3,3.1,1c0.8,0.7,1.5,1.5,2,2.5
			c0.5,1,0.9,2.1,1.1,3.3c0.2,1.2,0.3,2.3,0.3,3.3C160.1,75.9,160.1,76.7,160,77.4z M172.9,84.7h-12.2l4.6-6.1
			c0.3-0.4,0.7-0.9,1.2-1.5c0.4-0.6,0.9-1.2,1.3-1.9c0.4-0.7,0.8-1.3,1.1-2c0.3-0.6,0.4-1.2,0.4-1.8c0-0.3-0.1-0.7-0.2-1
			c-0.1-0.4-0.3-0.7-0.5-1c-0.2-0.3-0.4-0.5-0.7-0.7c-0.3-0.2-0.6-0.3-1-0.3c-0.4,0-0.7,0.1-1,0.3c-0.3,0.2-0.5,0.5-0.7,0.8
			c-0.2,0.3-0.3,0.7-0.4,1.1c-0.1,0.4-0.1,0.8-0.1,1.1H161c0.1-0.9,0.2-1.8,0.5-2.5c0.3-0.8,0.7-1.5,1.2-2.1c0.5-0.6,1.1-1,1.8-1.4
			c0.7-0.3,1.5-0.5,2.5-0.5c0.8,0,1.6,0.2,2.3,0.5c0.7,0.3,1.3,0.7,1.9,1.3c0.5,0.5,0.9,1.2,1.2,1.9c0.3,0.7,0.5,1.6,0.5,2.4
			c0,0.7-0.1,1.4-0.3,2c-0.2,0.6-0.4,1.2-0.7,1.8c-0.3,0.6-0.6,1.1-1,1.6c-0.4,0.5-0.8,1-1.2,1.5l-2.7,3.3h5.9V84.7z M186.8,84.7
			h-12.2l4.6-6.1c0.3-0.4,0.7-0.9,1.2-1.5c0.4-0.6,0.9-1.2,1.3-1.9c0.4-0.7,0.8-1.3,1.1-2c0.3-0.6,0.4-1.2,0.4-1.8
			c0-0.3-0.1-0.7-0.2-1c-0.1-0.4-0.3-0.7-0.5-1c-0.2-0.3-0.4-0.5-0.7-0.7c-0.3-0.2-0.6-0.3-1-0.3c-0.4,0-0.7,0.1-1,0.3
			c-0.3,0.2-0.5,0.5-0.7,0.8c-0.2,0.3-0.3,0.7-0.4,1.1c-0.1,0.4-0.1,0.8-0.1,1.1h-3.7c0.1-0.9,0.2-1.8,0.5-2.5
			c0.3-0.8,0.7-1.5,1.2-2.1c0.5-0.6,1.1-1,1.8-1.4c0.7-0.3,1.5-0.5,2.5-0.5c0.8,0,1.6,0.2,2.3,0.5c0.7,0.3,1.3,0.7,1.9,1.3
			c0.5,0.5,0.9,1.2,1.2,1.9c0.3,0.7,0.5,1.6,0.5,2.4c0,0.7-0.1,1.4-0.3,2c-0.2,0.6-0.4,1.2-0.7,1.8c-0.3,0.6-0.6,1.1-1,1.6
			c-0.4,0.5-0.8,1-1.2,1.5l-2.7,3.3h5.9V84.7z"/>
		<path class="st0" d="M156.4,72.6c-0.1-0.5-0.2-1-0.3-1.5c-0.1-0.5-0.3-0.9-0.6-1.3c-0.2-0.4-0.5-0.7-0.8-1
			c-0.3-0.2-0.7-0.4-1.1-0.4c-0.4,0-0.8,0.1-1.1,0.4c-0.3,0.2-0.6,0.6-0.8,1c-0.2,0.4-0.4,0.8-0.6,1.3c-0.1,0.5-0.3,1-0.3,1.5
			s-0.1,1-0.2,1.4c0,0.5,0,0.8,0,1.2c0,0.3,0,0.7,0,1.2c0,0.5,0.1,0.9,0.2,1.4s0.2,1,0.3,1.5c0.1,0.5,0.3,1,0.6,1.3
			c0.2,0.4,0.5,0.7,0.8,1c0.3,0.3,0.7,0.4,1.1,0.4c0.4,0,0.8-0.1,1.1-0.4c0.3-0.3,0.6-0.6,0.8-1c0.2-0.4,0.4-0.8,0.6-1.3
			c0.1-0.5,0.3-1,0.3-1.5c0.1-0.5,0.1-1,0.2-1.4c0-0.5,0-0.8,0-1.2c0-0.3,0-0.7,0-1.2C156.6,73.6,156.5,73.1,156.4,72.6z"/>
	</g>
	<g>
		<g>
			<path class="st1" d="M35.6,35.1c-0.3,0-2,0.2-2.4,0.1c-0.4-0.1-1-0.4-0.6-0.7c0,0-1.2,0.4-1.6,0.4c-0.4,0-1,0.2-1.2,0
				c-0.3-0.2-0.7-0.8-0.1-1.3c0,0-0.9,0.9-1.3,1.2c-0.4,0.3-1.3,1.1-2,1.4c-0.7,0.3-1.4,0.7-1.7,0.5c-0.3-0.2-0.7-1.4-0.4-1.8
				c0,0-0.7,0.3-0.8,0c-0.2-0.3-0.4-0.5-0.5-0.6c-0.1-0.1-0.2-1.5,0.6-2.1c0,0-0.7,0.5-1.1,1.2c-0.4,0.7-0.7,0.9-0.9,1.3
				c-0.3,0.4-0.7,0.9-0.9,0.8c0,0,0.3,0.5-0.4,1.2c-0.7,0.8-1.6,1.1-2.1,0.5c0,0-0.2,0,0,0.3c0.2,0.4,0.7,0.8,0.6,1.5
				c0,0.7,0,1.7-0.5,1.9c-0.5,0.2-2.3,0.6-2.6,0.5c-0.3,0-1,0-1.2-0.1c-0.2-0.1-0.5-0.3-0.5-0.3s0.4,0.7,0.8,0.9
				c0.4,0.2,0.9,0.7,1.2,1.1c0.3,0.4,0.7,0.6,0.7,1c0,0.4,0.1,0.8-0.4,1.1c0,0,1.1,0,1.6,0.5c0.5,0.5,0.9,0.5,0.9,1.2
				c-0.1,0.8,0.1,0.5-0.1,1.2c-0.2,0.6-0.6,1.6-0.6,1.6s0.4-0.5,0.8-0.9c0.4-0.3,0.5-0.6,0.8-0.7c0.3-0.2,0.7-0.4,0.9-0.5
				c0.2-0.1,0.5-0.5,0.5-0.5l0.2-0.3c0,0-2.2,4.9-2.1,9.5l0.4,0c0,0-0.2-16.1,13.5-20c-1.8,0.6-8.7,3.3-11.5,11.5c0,0,0.1-0.2,0,0.3
				c-0.1,0.5-0.1,0.5-0.1,0.8c0.1,0.4,0.1,0.6,0.1,1.1c0,0.4,0.1,0.6,0,1c-0.1,0.4-0.1,0.9,0.2,1.2c0,0-0.1-1.6,0.9-2.2
				c0,0,0.3-0.5,0.8-0.1c0.5,0.4,1.6,2.1,1.8,2.9c0,0-0.3-1.4,0.3-1.1c0.5,0.3,1.1,0.5,1.5,0.7c0.3,0.2,0.9,0.5,1.3,0.9
				c0.5,0.4,1.1,0.7,1.5,0.7c0,0-0.8-0.4-1.2-1.1c-0.4-0.7-0.6-1-0.6-1.3c0-0.3-0.1-1.1-0.2-1.4c-0.1-0.3-0.3-1.4,0.1-1.6
				c0.4-0.3,0.9,0,1.3,0.1c0.4,0.1,1.6,0.5,2,1.2l0.2,0.3l-0.1-0.3l0.2,0.3c0,0-1-1.9-0.5-2.1c0.5-0.2,1.3-0.3,2.1,0.3
				c0,0-0.5-0.9,0.2-1.1c0.8-0.2,1.5-0.1,2,0c0.4,0.1,1.3,0.3,1.6,0.4c0,0-1.2-0.9-1.8-1.4c-0.6-0.5-1.2-1.2-1.4-1.4
				c-0.2-0.1-1.3-1.3-0.2-1.6c0,0-0.5,0-1.2-0.3c-0.7-0.3-2.2-1-2.2-1.3c0-0.4,0.4-0.8,1.1-1.3c0.7-0.4,1.3-0.6,1.8-0.7
				c0.5-0.2,1.7-0.4,2.1-0.3c0,0-2.1-0.4-2-0.9c0.1-0.4,1-1.1,1.9-1c0,0-1.2-0.2-0.6-0.9c0.6-0.6,1.7-1.7,3.1-1.5
				C37.4,35.2,35.9,35.1,35.6,35.1z"/>
			<g>
				<path class="st0" d="M64.6,65.2V4.2L3.2,32.6l15,100.3l6.8-2.5l12-45.9c-5-2.9-7.9-7.6-7.1-12.5C31,65,39.4,60.3,48.7,61.6
					c9.3,1.3,15.9,8.1,14.8,15.1c-0.8,4.9-5.1,8.6-10.7,10.1l-2,34.4l13.8-5V72.9c0,0,0,0,0,0c-0.2-6.9-6.7-13.1-15.4-14.3
					c-8.8-1.2-16.9,3-19.2,9.5c0-0.7,0-1.4,0.1-2.1c1.1-6.7,7.8-11.5,15.9-11.8l1.8-8.3c-1.1-0.8-1.7-1.9-1.5-3
					c0.2-1.3,1.5-2.3,3.1-2.7l1.1-5.8c0-0.2,0.3-0.8,1-1.1l0.4-2.4c0.1-0.3,0.4-0.9,1.3-1c0.7-4.5,2.1-13.1,2.1-13.1
					c0.1-0.4,0.2-0.7,0.6-0.7c0.4,0.1,0.4,0.4,0.4,0.8c0,0-1.3,8.6-2,13.1c0.8,0.3,1,1,0.9,1.3l-0.3,2.4c0.5,0.5,0.6,1.1,0.6,1.3
					c0,0-0.4,2.7-0.8,5.9c1.5,0.8,2.4,2.1,2.2,3.4c-0.2,1.1-1.1,1.9-2.3,2.4l-0.9,8.5C59,57,63.1,60.8,64.6,65.2z M34.3,36.7
					c-0.6,0.6,0.6,0.9,0.6,0.9c-0.8-0.1-1.8,0.6-1.9,1c-0.1,0.4,2,0.9,2,0.9c-0.5-0.1-1.6,0.2-2.1,0.3c-0.5,0.2-1.1,0.3-1.8,0.7
					c-0.8,0.4-1.1,0.9-1.1,1.3c0,0.4,1.5,1.1,2.2,1.3c0.7,0.3,1.2,0.3,1.2,0.3c-1.1,0.2,0,1.4,0.2,1.6c0.2,0.1,0.8,0.9,1.4,1.4
					c0.6,0.5,1.8,1.4,1.8,1.4c-0.3-0.1-1.2-0.3-1.6-0.4c-0.4-0.1-1.2-0.2-2,0c-0.8,0.2-0.2,1.1-0.2,1.1c-0.7-0.6-1.6-0.5-2.1-0.3
					c-0.5,0.2,0.5,2.1,0.5,2.1l-0.2-0.3l0.1,0.3l-0.2-0.3c-0.4-0.6-1.6-1-2-1.2c-0.4-0.1-0.9-0.4-1.3-0.1c-0.4,0.3-0.1,1.3-0.1,1.6
					c0.1,0.3,0.1,1.2,0.2,1.4c0,0.3,0.2,0.6,0.6,1.3c0.4,0.7,1.2,1.1,1.2,1.1c-0.4,0-1-0.3-1.5-0.7c-0.5-0.4-1-0.7-1.3-0.9
					c-0.3-0.2-0.9-0.5-1.5-0.7c-0.5-0.3-0.3,1.1-0.3,1.1c-0.2-0.9-1.3-2.5-1.8-2.9c-0.5-0.4-0.8,0.1-0.8,0.1c-1,0.6-0.9,2.2-0.9,2.2
					c-0.3-0.3-0.2-0.8-0.2-1.2c0.1-0.4,0-0.6,0-1c0-0.4-0.1-0.7-0.1-1.1c-0.1-0.4,0-0.3,0.1-0.8c0.1-0.5,0-0.3,0-0.3
					c2.8-8.2,9.7-10.9,11.5-11.5c-13.7,3.9-13.5,20-13.5,20l-0.4,0c-0.1-4.6,2.1-9.5,2.1-9.5L20.9,47c0,0-0.3,0.3-0.5,0.5
					c-0.2,0.1-0.6,0.3-0.9,0.5c-0.3,0.2-0.4,0.4-0.8,0.7c-0.4,0.3-0.8,0.9-0.8,0.9s0.4-1,0.6-1.6c0.2-0.6,0-0.4,0.1-1.2
					c0.1-0.8-0.3-0.7-0.9-1.2C17.3,45,16.2,45,16.2,45c0.5-0.3,0.4-0.7,0.4-1.1c0-0.4-0.4-0.6-0.7-1c-0.3-0.4-0.8-0.9-1.2-1.1
					c-0.4-0.2-0.8-0.9-0.8-0.9s0.3,0.2,0.5,0.3c0.2,0.1,0.9,0.1,1.2,0.1c0.3,0,2.1-0.3,2.6-0.5c0.5-0.2,0.5-1.2,0.5-1.9
					c0-0.7-0.4-1.1-0.6-1.5c-0.2-0.4,0-0.3,0-0.3c0.5,0.6,1.4,0.3,2.1-0.5c0.7-0.8,0.4-1.2,0.4-1.2c0.2,0.1,0.6-0.4,0.9-0.8
					c0.3-0.4,0.5-0.6,0.9-1.3c0.4-0.7,1.1-1.2,1.1-1.2c-0.8,0.6-0.7,1.9-0.6,2.1c0.1,0.1,0.3,0.3,0.5,0.6c0.2,0.3,0.8,0,0.8,0
					c-0.4,0.4,0.1,1.6,0.4,1.8c0.3,0.2,1.1-0.2,1.7-0.5c0.7-0.3,1.6-1.1,2-1.4c0.4-0.3,1.3-1.2,1.3-1.2c-0.6,0.5-0.2,1.1,0.1,1.3
					c0.3,0.2,0.9,0,1.2,0c0.4,0,1.6-0.4,1.6-0.4c-0.4,0.3,0.2,0.6,0.6,0.7c0.4,0.1,2-0.1,2.4-0.1c0.3,0,1.8,0.1,1.8,0.1
					C36,35,34.9,36.1,34.3,36.7z"/>
				<path class="st0" d="M49.7,54.4c0.9,0.1,2,0.3,3,0.6l1.1-10.1l-2.2-2.6L49.7,54.4z"/>
			</g>
			<path class="st0" d="M53.9,85.4c0.1,0,0.1,0,0.2-0.1c0.4-0.1,0.7-0.3,1.1-0.5c0,0,0.1,0,0.1-0.1c0.7-0.3,1.3-0.7,1.9-1.1
				c0.1-0.1,0.2-0.1,0.3-0.2c0.2-0.1,0.3-0.2,0.5-0.4c0.2-0.2,0.4-0.4,0.6-0.5c0.1-0.1,0.2-0.2,0.3-0.3c0.1-0.1,0.3-0.3,0.4-0.5
				c0.1-0.1,0.2-0.2,0.2-0.3c0.2-0.2,0.4-0.5,0.5-0.7c0.1-0.1,0.1-0.2,0.2-0.3c0.1-0.2,0.3-0.5,0.4-0.7c0,0,0-0.1,0.1-0.1
				c0.1-0.3,0.2-0.6,0.3-0.9c0-0.1,0-0.2,0.1-0.2c0.1-0.3,0.2-0.6,0.2-1c0.9-6-4.9-11.7-13.1-12.8c-8.2-1.1-15.6,2.8-16.5,8.8
				c-0.6,3.9,1.6,7.6,5.5,10.1l0.4-1.6c-2.7-2.1-4.2-5.1-3.8-8.1c0.8-5.2,7.1-8.6,14.1-7.6c7,1,11.9,5.9,11.1,11.1
				c-0.5,3-2.8,5.4-6.1,6.7l-0.1,1.7c0,0,0,0,0.1,0C53.3,85.6,53.6,85.5,53.9,85.4z"/>
			<polygon class="st0" points="41,84.3 40.8,85.3 40.6,86.3 32.5,127.8 32.5,127.8 			"/>
			<polygon class="st0" points="39.8,83.3 39.4,85.1 39.5,84.8 			"/>
			<path class="st0" d="M52.9,85.7L52.9,85.7C52.9,85.7,52.9,85.7,52.9,85.7C52.9,85.7,52.9,85.7,52.9,85.7z"/>
			<path class="st0" d="M57.2,83.7c-0.6,0.4-1.2,0.8-1.9,1.1C56,84.5,56.6,84.1,57.2,83.7z"/>
		</g>
		<g>
			<path class="st1" d="M50.4,68.2c-0.8-0.3-1.7-0.5-2.7-0.6c-0.3,0-0.6-0.1-0.9-0.1l0,2.6l2.6,2.1l0.4-2.9L50.4,68.2z"/>
			<path class="st0" d="M47.9,66.9c-6.1-0.8-11.5,2-12.2,6.2c-0.4,2.3,0.7,4.5,2.7,6.2l0.4-1.6c-0.6-0.6-1.1-1.2-1.5-1.9l2.5,1.3
				l0.2-0.6l-3.1-1.8c-0.2-0.7-0.3-1.4-0.2-2.1c0.1-0.6,0.3-1.2,0.6-1.7l3.7,4.1l0.1-0.6l-3.4-4.1c0.8-1,2-1.8,3.4-2.3l1.2,3.5l0,0
				l-2,9.1l-0.6,2.5l-0.3,1.5l-0.1,0.3l-0.1,0.6l-9.5,43l2.7-1l8.2-41.5l0.2-0.9l0.2-1.1l0.1-0.3l0.5-2.5l1.7-8.7l0,0l0,0l0.3-1.6
				l-0.7,0.4L41.9,68c1.3-0.4,2.7-0.6,4.1-0.5l0.2,5.1l-1.3,8.2c0,0,0,0,0,0l-0.3,1.6l-0.4,2.5l-0.2,1.3l-0.1,0.9l-6.1,38.8
				l10.5-3.8l2.6-34.9l0.1-1l0.1-1.5l0.2-2.6l0.5-7.4l3.7-3.4c0.6,0.7,1,1.4,1.2,2.2l-2.8,0.1l-0.9,1l-0.2,2.8l4.2-1.9
				c0,0,0,0.1,0,0.1c-0.1,0.7-0.4,1.4-0.8,2l-1.3-0.2l-1.6,0.5l-0.1,3.7l0.2-0.1c2.4-1.1,4.1-3,4.5-5.2
				C58.3,71.9,53.9,67.8,47.9,66.9z M46.8,70.1l0-2.6c0.3,0,0.6,0.1,0.9,0.1c0.9,0.1,1.8,0.3,2.7,0.6l-0.6,1.1l-0.4,2.9L46.8,70.1z
				 M52,71.5L51.6,74l-2.1-1.7l1.9-3.7c1,0.4,1.8,0.9,2.6,1.5L52,71.5z"/>
		</g>
	</g>
</g>
</svg>
