<?xml version="1.0" encoding="utf-8"?>
<!-- Generator: Adobe Illustrator 24.1.3, SVG Export Plug-In . SVG Version: 6.00 Build 0)  -->
<svg version="1.1" id="Layer_1" xmlns="http://www.w3.org/2000/svg" xmlns:xlink="http://www.w3.org/1999/xlink" x="0px" y="0px"
	 viewBox="0 0 68.6 96.9" style="enable-background:new 0 0 68.6 96.9;" xml:space="preserve">
<style type="text/css">
	.st0{fill:#FFFFFF;}
</style>
<g>
	<path class="st0" d="M57.7,20.4h-2.1c-0.5-2.5-1.5-4.8-2.8-6.9l1.3-1.3c0.6-0.6,0.6-1.6,0-2.2l-4.7-4.7c-0.6-0.6-1.6-0.6-2.2,0
		l-1.3,1.2c-2.1-1.3-4.5-2.3-6.9-2.8V1.6C39,0.7,38.3,0,37.4,0h-6.2c-0.9,0-1.6,0.7-1.6,1.6v2.1c-2.5,0.5-4.8,1.5-6.9,2.8l-1.4-1.3
		c-0.6-0.6-1.6-0.6-2.2,0l-4.7,4.7c-0.6,0.6-0.6,1.6,0,2.2l1.3,1.3c-1.3,2.1-2.3,4.5-2.8,6.9h-2.1c-0.9,0-1.6,0.7-1.6,1.6v6.2
		c0,0.9,0.7,1.6,1.6,1.6h2.1c0.5,2.5,1.5,4.8,2.8,6.9l-1.3,1.3c-0.6,0.6-0.6,1.6,0,2.2l4.7,4.7c0.6,0.6,1.6,0.6,2.2,0l1.3-1.3
		c2.1,1.3,4.5,2.3,6.9,2.8v2.2c0,0.9,0.7,1.6,1.6,1.6h6.2c0.9,0,1.6-0.7,1.6-1.6v-2.1c2.5-0.5,4.8-1.5,6.9-2.8l1.3,1.3
		c0.6,0.6,1.6,0.6,2.2,0l4.7-4.7c0.6-0.6,0.6-1.6,0-2.2l-1.3-1.3c1.3-2.1,2.3-4.5,2.8-6.9h2.1c0.9,0,1.6-0.7,1.6-1.6V22
		C59.3,21.1,58.6,20.4,57.7,20.4z M56.2,26.6h-1.9c-0.8,0-1.4,0.6-1.5,1.3c-0.4,2.9-1.6,5.7-3.3,8c-0.4,0.6-0.4,1.5,0.2,2l1.1,1.1
		l-2.5,2.5l-1.1-1c-0.5-0.5-1.4-0.6-2-0.2c-2.4,1.7-5.1,2.8-8,3.3c-0.8,0.1-1.3,0.8-1.3,1.5v1.8h-3.1v-1.8c0-0.8-0.6-1.4-1.3-1.5
		c-2.9-0.4-5.7-1.6-8-3.3c-0.6-0.4-1.5-0.4-2,0.2l-1.1,1.1l-2.5-2.5L19,38c0.5-0.5,0.6-1.4,0.2-2c-1.7-2.4-2.8-5.1-3.3-8
		c-0.1-0.8-0.8-1.3-1.5-1.3h-1.8v-3.2h1.7c0.8,0,1.4-0.6,1.5-1.3c0.4-2.9,1.6-5.7,3.3-8c0.4-0.6,0.4-1.5-0.2-2l-1.1-1.1l2.5-2.5
		l1.1,1.1c0.5,0.5,1.4,0.6,2,0.2c2.4-1.7,5.1-2.8,8-3.3c0.8-0.1,1.3-0.8,1.3-1.5V3.2h3.1V5c0,0.8,0.6,1.4,1.3,1.5
		c2.9,0.4,5.7,1.6,8,3.3c0.6,0.4,1.5,0.4,2-0.2l1.1-1.1l2.5,2.5l-1.1,1.1c-0.5,0.5-0.6,1.4-0.2,2c1.7,2.4,2.8,5.1,3.3,8
		c0.1,0.8,0.8,1.3,1.5,1.3H56v3.2H56.2z"/>
	<path class="st0" d="M34.3,9.4c-8.6,0-15.6,7-15.6,15.6s7,15.6,15.6,15.6s15.6-7,15.6-15.6S42.9,9.4,34.3,9.4z M34.3,37.6
		c-6.9,0-12.5-5.6-12.5-12.5s5.6-12.5,12.5-12.5s12.5,5.6,12.5,12.5S41.2,37.6,34.3,37.6z"/>
	<path class="st0" d="M49.5,49c-0.4-0.4-1.1-0.6-1.7-0.3c-0.6,0.2-1,0.8-1,1.4v14.8l-12.5,8.3l-12.5-8.3V50.1c0-0.6-0.4-1.2-1-1.4
		s-1.3-0.1-1.7,0.3l-9.4,9.4c-0.3,0.3-0.5,0.7-0.5,1.1v14c0,0.5,0.2,1,0.6,1.2l11.9,8.9v13.3h3.1v-14c0-0.5-0.2-1-0.6-1.2l-11.9-8.9
		V60.1l6.2-6.2v11.9c0,0.5,0.3,1,0.7,1.3l14.1,9.4c0.5,0.4,1.2,0.4,1.7,0l14.1-9.4c0.4-0.3,0.7-0.8,0.7-1.3v-12L56,60v12.6l-11.7,9
		c-0.4,0.3-0.6,0.8-0.6,1.2v14.1h3.1V83.7l11.9-8.9c0.4-0.3,0.6-0.8,0.6-1.3V59.4c0-0.4-0.2-0.8-0.5-1.1L49.5,49z"/>
	<path class="st0" d="M34.3,18.8c-3.4,0-6.2,2.8-6.2,6.2s2.8,6.2,6.2,6.2s6.2-2.8,6.2-6.2S37.7,18.8,34.3,18.8z M34.3,28.2
		c-1.7,0-3.1-1.4-3.1-3.1s1.4-3.1,3.1-3.1s3.1,1.4,3.1,3.1S36,28.2,34.3,28.2z"/>
	<path class="st0" d="M44.3,73.8l-6.2,4.7c-0.4,0.3-0.6,0.8-0.6,1.2v17.2h3.1V80.5l5.6-4.2L44.3,73.8z"/>
	<path class="st0" d="M60.9,63.3l2.7,1.6c0.6-1.1,1.2-2.1,1.8-3.2l-2.8-1.3C62.1,61.3,61.5,62.3,60.9,63.3L60.9,63.3z"/>
	<path class="st0" d="M63.8,57.3l2.9,1c0.4-1.1,0.7-2.2,1-3.3l-3-0.7C64.4,55.3,64.1,56.3,63.8,57.3L63.8,57.3z"/>
	<path class="st0" d="M65.5,48.4c0,1-0.1,2-0.3,2.9l3.1,0.4c0.1-1.1,0.2-2.1,0.3-3.2L65.5,48.4z"/>
	<path class="st0" d="M65.5,45.4l3.1-0.2c-0.1-1.1-0.2-2.1-0.3-3.2l-3.1,0.5C65.4,43.4,65.5,44.4,65.5,45.4L65.5,45.4z"/>
	<path class="st0" d="M64.7,39.5l3-0.7c-0.3-1.1-0.6-2.2-1-3.3l-2.9,1C64.1,37.5,64.4,38.5,64.7,39.5L64.7,39.5z"/>
	<path class="st0" d="M65.4,32.2c-0.5-1.1-1.1-2.2-1.8-3.2l-2.7,1.6c0.6,0.9,1.1,1.9,1.6,3L65.4,32.2z"/>
	<path class="st0" d="M3.2,32.2L6,33.5c0.5-1,1-2,1.6-3l-2.7-1.6C4.4,30,3.8,31.1,3.2,32.2L3.2,32.2z"/>
	<path class="st0" d="M4.8,36.5l-2.9-1c-0.4,1.1-0.7,2.2-1,3.3l3,0.7C4.2,38.5,4.5,37.5,4.8,36.5L4.8,36.5z"/>
	<path class="st0" d="M3.4,42.5L0.3,42C0.1,43.1,0,44.2,0,45.3l3.1,0.1C3.1,44.4,3.2,43.5,3.4,42.5L3.4,42.5z"/>
	<path class="st0" d="M3.1,48.4L0,48.5c0.1,1.1,0.2,2.2,0.3,3.3l3.1-0.4C3.2,50.4,3.1,49.4,3.1,48.4L3.1,48.4z"/>
	<path class="st0" d="M3.9,54.4l-3,0.7c0.3,1.1,0.6,2.2,1,3.3l2.9-1C4.5,56.4,4.2,55.4,3.9,54.4L3.9,54.4z"/>
	<path class="st0" d="M3.2,61.7C3.7,62.8,4.3,63.9,5,65l2.7-1.6c-0.6-1-1.1-2-1.6-3L3.2,61.7z"/>
</g>
</svg>
