<?xml version="1.0" encoding="utf-8"?>
<!-- Generator: Adobe Illustrator 24.1.3, SVG Export Plug-In . SVG Version: 6.00 Build 0)  -->
<svg version="1.1" id="Layer_1" xmlns="http://www.w3.org/2000/svg" xmlns:xlink="http://www.w3.org/1999/xlink" x="0px" y="0px"
	 viewBox="0 0 84.4 84.4" style="enable-background:new 0 0 84.4 84.4;" xml:space="preserve">
<style type="text/css">
	.st0{fill:#FFFFFF;}
</style>
<g>
	<path class="st0" d="M65.6,29.8c-0.2,0-0.4,0-0.5-0.1c-0.3-0.2-0.5-0.5-0.5-0.8v-6.7C58.3,18.8,51.3,17,44.2,17S30,18.8,23.8,22.2
		v6.7c0,0.3-0.2,0.7-0.5,0.8c-0.3,0.2-0.7,0.2-1,0L5.9,21.3c-0.3-0.2-0.5-0.5-0.5-0.9c0-0.4,0.2-0.7,0.5-0.9L43.8,0.2
		c0.3-0.1,0.6-0.1,0.9,0l37.9,19.4c0.3,0.2,0.5,0.5,0.5,0.9c0,0.4-0.2,0.7-0.5,0.9l-16.5,8.4C65.9,29.8,65.8,29.8,65.6,29.8
		L65.6,29.8z M8.5,20.4l13.3,6.8v-5.7c0-0.4,0.2-0.7,0.5-0.8C29,17,36.6,15,44.2,15s15.2,2,21.9,5.7c0.3,0.2,0.5,0.5,0.5,0.8v5.7
		l13.3-6.8L44.2,2.1L8.5,20.4z"/>
	<path class="st0" d="M65.6,42.3H22.8c-0.5,0-1-0.4-1-1V21.6c0-0.4,0.2-0.7,0.5-0.8c6.7-3.7,14.3-5.7,21.9-5.7s15.2,2,21.9,5.7
		c0.3,0.2,0.5,0.5,0.5,0.8v19.7C66.6,41.8,66.2,42.3,65.6,42.3L65.6,42.3z M23.8,40.3h40.9V22.2C58.4,18.8,51.4,17,44.3,17
		s-14.2,1.8-20.4,5.2L23.8,40.3L23.8,40.3z"/>
	<path class="st0" d="M35,22.8c-0.4,0-0.8-0.3-0.9-0.7c-0.1-0.5,0.2-1.1,0.7-1.2c1.7-0.4,3.5-0.8,5.3-1c0.5-0.1,1,0.3,1.1,0.9
		c0.1,0.5-0.3,1-0.9,1.1c-1.7,0.2-3.4,0.5-5,0.9C35.1,22.8,35.1,22.8,35,22.8L35,22.8z"/>
	<path class="st0" d="M28.8,25c-0.4,0-0.7-0.2-0.9-0.6c-0.2-0.5,0-1.1,0.5-1.3c0.7-0.3,1.4-0.6,2.1-0.9c0.5-0.2,1.1,0,1.3,0.6
		c0.2,0.5,0,1.1-0.6,1.3c-0.7,0.3-1.3,0.5-2,0.8C29.1,25,29,25,28.8,25L28.8,25z"/>
	<path class="st0" d="M10.4,46.6H2.3c-0.3,0-0.6-0.1-0.8-0.4c-0.2-0.3-0.2-0.6-0.1-0.9l4-12.7c0.1-0.4,0.5-0.7,0.9-0.7
		s0.8,0.3,0.9,0.7l4,12.7c0.1,0.3,0,0.6-0.1,0.9C10.9,46.5,10.7,46.6,10.4,46.6L10.4,46.6z M3.6,44.7H9l-2.7-8.5L3.6,44.7z"/>
	<path class="st0" d="M6.3,33.9c-0.5,0-1-0.4-1-1V20.4c0-0.5,0.4-1,1-1s1,0.4,1,1v12.5C7.3,33.5,6.9,33.9,6.3,33.9L6.3,33.9z"/>
	<path class="st0" d="M17.4,2h-2.1c-0.5,0-1-0.4-1-1s0.4-1,1-1h2.1c0.5,0,1,0.4,1,1S17.9,2,17.4,2z"/>
	<path class="st0" d="M10.1,2h-9c-0.5,0-1-0.4-1-1s0.4-1,1-1h9c0.5,0,1,0.4,1,1S10.6,2,10.1,2z"/>
	<path class="st0" d="M83.4,7.1h-8.2c-0.5,0-1-0.4-1-1c0-0.5,0.4-1,1-1l0,0h8.2c0.5,0,1,0.4,1,1C84.3,6.6,83.9,7.1,83.4,7.1z"/>
	<path class="st0" d="M82.5,84.4h-74c-1,0-1.9-0.8-1.9-1.9V66.7c0-1,0.8-1.9,1.9-1.9h74c1,0,1.9,0.8,1.9,1.9v15.8
		C84.4,83.6,83.6,84.4,82.5,84.4L82.5,84.4z M8.5,82.5h73.9V66.9H8.5V82.5z"/>
	<path class="st0" d="M28.4,79.9c-0.5,0-1-0.4-1-1v-8.5c0-0.5,0.4-1,1-1s1,0.4,1,1v8.5C29.3,79.4,28.9,79.9,28.4,79.9z"/>
	<path class="st0" d="M34.5,79.9c-0.5,0-1-0.4-1-1v-8.5c0-0.5,0.4-1,1-1s1,0.4,1,1v8.5C35.4,79.4,35,79.9,34.5,79.9z"/>
	<path class="st0" d="M75,66.8H1.9c-1,0-1.9-0.8-1.9-1.9V52.1c0-1,0.8-1.9,1.9-1.9H75c1,0,1.9,0.8,1.9,1.9v12.8
		C76.8,66,76,66.8,75,66.8L75,66.8z M1.9,64.9h72.9V52.2H1.9V64.9z"/>
	<path class="st0" d="M17.9,79.6c-2.7,0-4.9-2.2-4.9-4.9s2.2-4.9,4.9-4.9s4.9,2.2,4.9,4.9S20.6,79.6,17.9,79.6z M17.9,71.7
		c-1.6,0-2.9,1.3-2.9,2.9s1.3,2.9,2.9,2.9s2.9-1.3,2.9-2.9C20.8,73.1,19.5,71.7,17.9,71.7z"/>
	<path class="st0" d="M72.6,84.4h-9.2c-0.5,0-1-0.4-1-1V65.9c0-0.5,0.4-1,1-1h9.2c0.5,0,1,0.4,1,1v17.6C73.6,84,73.1,84.4,72.6,84.4
		z M64.4,82.5h7.3V66.9h-7.3V82.5z"/>
	<path class="st0" d="M18,66.8h-7.3c-0.5,0-1-0.4-1-1V51.2c0-0.5,0.4-1,1-1H18c0.5,0,1,0.4,1,1v14.6C19,66.4,18.5,66.8,18,66.8z
		 M11.7,64.9H17V52.2h-5.3V64.9z"/>
	<path class="st0" d="M45.1,59.5H31.8c-0.5,0-1-0.4-1-1s0.4-1,1-1h13.3c0.5,0,1,0.4,1,1S45.6,59.5,45.1,59.5z"/>
	<path class="st0" d="M66.1,66.8h-7.3c-0.5,0-1-0.4-1-1V51.2c0-0.5,0.4-1,1-1h7.3c0.5,0,1,0.4,1,1v14.6
		C67.1,66.4,66.6,66.8,66.1,66.8z M59.8,64.9h5.3V52.2h-5.3V64.9z"/>
</g>
</svg>
